SplineFontDB: 3.0
FontName: Samaano-Wide-Bold-Slanted
FullName: Samaano Wide Bold Slanted
FamilyName: Samaano
Weight: BoldSlanted
Copyright: Copyright 2025 The Samaano Project Authors (https://github.com/mitradranirban/samaano-fonts)
UComments: "fonts.atipra.in"
Version: 2.600
StyleMapFamilyName: Samaano Wide Bold Slanted
ItalicAngle: -20
UnderlinePosition: 0
UnderlineWidth: 102
Ascent: 1638
Descent: 410
InvalidEm: 0
UFOAscent: 1638
UFODescent: -410
LayerCount: 2
Layer: 0 0 "Back" 1
Layer: 1 0 "public.default" 0 "glyphs"
StyleMap: 0x0021
FSType: 0
OS2Version: 0
OS2_WeightWidthSlopeOnly: 0
OS2_UseTypoMetrics: 0
CreationTime: 1765292156
ModificationTime: 1765292156
PfmFamily: 16
TTFWeight: 700
TTFWidth: 5
LineGap: 0
VLineGap: 0
Panose: 2 7 8 9 2 2 5 2 4 4
OS2TypoAscent: 2457
OS2TypoAOffset: 0
OS2TypoDescent: -615
OS2TypoDOffset: 0
OS2TypoLinegap: 0
OS2WinAscent: 3225
OS2WinAOffset: 0
OS2WinDescent: 1040
OS2WinDOffset: 0
HheadAscent: 2457
HheadAOffset: 0
HheadDescent: -615
HheadDOffset: 0
OS2CapHeight: 1548
OS2XHeight: 1023
OS2FamilyClass: 1031
OS2Vendor: 'anir'
Lookup: 1 0 0 "loclLocalizedFormsinLatinlookup10" { "loclLocalizedFormsinLatinlookup10 subtable"  } ['locl' ('latn' <'MOL ' 'ROM ' > ) ]
Lookup: 6 0 0 "loclLocalizedFormsinLatinlookup11" { "loclLocalizedFormsinLatinlookup11 contextual 0"  "loclLocalizedFormsinLatinlookup11 contextual 1"  } ['locl' ('latn' <'CAT ' > ) ]
Lookup: 4 0 0 "Ligature Substitution lookup 2" { "Ligature Substitution lookup 2 subtable"  } []
Lookup: 4 0 0 "Ligature Substitution lookup 3" { "Ligature Substitution lookup 3 subtable"  } []
Lookup: 6 16 0 "ccmp_soft_dotted" { "ccmp_soft_dotted subtable"  } ['ccmp' ('latn' <'dflt' > 'DFLT' <'dflt' > ) ]
Lookup: 1 16 0 "Single Substitution lookup 5" { "Single Substitution lookup 5 subtable"  } []
Lookup: 4 0 0 "dligDiscretionaryLigatureslookup0" { "dligDiscretionaryLigatureslookup0 subtable"  } ['dlig' ('latn' <'dflt' > 'DFLT' <'dflt' > ) ]

StartChar: A
Encoding: 0 65 0
GlifName: A_
Width: 2048
VWidth: 0
GlyphClass: 2
Flags: W
AnchorPoint: "top" 1601 1626 basechar 0
AnchorPoint: "base" 1020 -11 basechar 0
LayerCount: 2
Fore
SplineSet
121 0 m 257
 320 0 l 257
 883 1548 l 257
 684 1548 l 257
 121 0 l 257
667 1332 m 257
 2335 1332 l 257
 2413 1548 l 257
 745 1548 l 257
 667 1332 l 257
572 1023 m 257
 509 849 l 257
 2147 849 l 257
 2210 1023 l 257
 572 1023 l 257
1725 0 m 257
 1925 0 l 257
 2488 1548 l 257
 2288 1548 l 257
 1725 0 l 257
EndSplineSet
Substitution2: "Single Substitution lookup 10 subtable" ordfeminine
EndChar

StartChar: AE
Encoding: 1 198 1
GlifName: A_E_
Width: 2048
VWidth: 0
GlyphClass: 2
Flags: W
AnchorPoint: "top" 1178 1805 basechar 0
AnchorPoint: "base" 528 -10 basechar 0
LayerCount: 2
Fore
SplineSet
1225 185 m 257
 1158 0 l 257
 2020 0 l 257
 2087 185 l 257
 1225 185 l 257
125 0 m 257
 324 0 l 257
 887 1548 l 257
 688 1548 l 257
 125 0 l 257
671 1332 m 257
 2483 1332 l 257
 2561 1548 l 257
 749 1548 l 257
 671 1332 l 257
576 1023 m 257
 513 849 l 257
 2255 849 l 257
 2318 1023 l 257
 576 1023 l 257
1063 0 m 257
 1263 0 l 257
 1826 1548 l 257
 1626 1548 l 257
 1063 0 l 257
EndSplineSet
EndChar

StartChar: B
Encoding: 16 66 16
GlifName: B_
Width: 2048
VWidth: 0
GlyphClass: 2
Flags: W
AnchorPoint: "top" 1376 1585 basechar 0
AnchorPoint: "base" 1025 -74 basechar 0
LayerCount: 2
Fore
SplineSet
90 0 m 257
 298 0 l 257
 857 1537 l 257
 649 1537 l 257
 90 0 l 257
1922 1331 m 257
 2312 989 l 257
 2394 1215 l 257
 1997 1537 l 257
 1922 1331 l 257
1736 820 m 257
 2313 991 l 257
 2394 1215 l 257
 1810 1023 l 257
 1736 820 l 257
1453 201 m 257
 1380 0 l 257
 2066 364 l 257
 2148 588 l 257
 1453 201 l 257
1652 567 m 257
 2066 364 l 257
 2147 586 l 257
 1725 766 l 257
 1652 567 l 257
624 1023 m 257
 550 820 l 257
 1736 820 l 257
 1810 1023 l 257
 624 1023 l 257
529 766 m 257
 456 567 l 257
 1652 567 l 257
 1725 766 l 257
 529 766 l 257
261 200 m 257
 188 0 l 257
 1380 0 l 257
 1453 200 l 257
 261 200 l 257
809 1537 m 257
 734 1331 l 257
 1922 1331 l 257
 1997 1537 l 257
 809 1537 l 257
EndSplineSet
EndChar

StartChar: C
Encoding: 18 67 18
GlifName: C_
Width: 2048
VWidth: 0
GlyphClass: 2
Flags: W
AnchorPoint: "top" 1618 1629 basechar 0
AnchorPoint: "base" 1007 -88 basechar 0
LayerCount: 2
Fore
SplineSet
630 1537 m 257
 71 0 l 257
 271 0 l 257
 830 1537 l 257
 630 1537 l 257
729 1537 m 257
 657 1338 l 257
 2464 1338 l 257
 2536 1537 l 257
 729 1537 l 257
228 199 m 257
 156 0 l 257
 1975 0 l 257
 2047 199 l 257
 228 199 l 257
EndSplineSet
EndChar

StartChar: D
Encoding: 26 68 26
GlifName: D_
Width: 2048
VWidth: 0
GlyphClass: 2
Flags: W
AnchorPoint: "base" 1013 -67 basechar 0
AnchorPoint: "top" 1408 1645 basechar 0
LayerCount: 2
Fore
SplineSet
681 1548 m 257
 118 0 l 257
 320 0 l 257
 883 1548 l 257
 681 1548 l 257
2007 1548 m 257
 1935 1350 l 257
 2207 767 l 257
 2300 1023 l 257
 2007 1548 l 257
1525 201 m 257
 1452 0 l 257
 2204 769 l 257
 2296 1023 l 257
 1525 201 l 257
845 1548 m 257
 773 1349 l 257
 1935 1349 l 257
 2007 1548 l 257
 845 1548 l 257
363 200 m 257
 290 0 l 257
 1452 0 l 257
 1525 200 l 257
 363 200 l 257
EndSplineSet
EndChar

StartChar: Dcroat
Encoding: 28 272 28
GlifName: D_croat
Width: 2048
VWidth: 0
GlyphClass: 2
Flags: W
AnchorPoint: "top" 1504 1645 basechar 0
AnchorPoint: "base" 1031 -159 basechar 0
LayerCount: 2
Fore
SplineSet
340 935 m 257
 266 730 l 257
 866 730 l 257
 940 935 l 257
 340 935 l 257
670 1548 m 257
 107 0 l 257
 309 0 l 257
 872 1548 l 257
 670 1548 l 257
2020 1548 m 257
 1948 1350 l 257
 2219 767 l 257
 2312 1023 l 257
 2020 1548 l 257
1538 201 m 257
 1465 0 l 257
 2217 769 l 257
 2309 1023 l 257
 1538 201 l 257
834 1548 m 257
 762 1349 l 257
 1948 1349 l 257
 2020 1548 l 257
 834 1548 l 257
352 200 m 257
 279 0 l 257
 1465 0 l 257
 1538 200 l 257
 352 200 l 257
EndSplineSet
EndChar

StartChar: Delta
Encoding: 29 8710 29
GlifName: increment
Width: 2048
VWidth: 0
GlyphClass: 2
Flags: W
LayerCount: 2
Fore
SplineSet
299.702 197 m 257
 123.908 -3 l 257
 1921.91 -3 l 257
 1889.7 197 l 257
 299.702 197 l 257
1941 0 m 257
 1732.43 1548 l 257
 1511.43 1548 l 257
 1740 0 l 257
 1941 0 l 257
307 0 m 257
 1607.43 1548 l 257
 1384.43 1548 l 257
 106 0 l 257
 307 0 l 257
EndSplineSet
EndChar

StartChar: E
Encoding: 30 69 30
GlifName: E_
Width: 2048
VWidth: 0
GlyphClass: 2
Flags: W
AnchorPoint: "top" 1516 1637 basechar 0
AnchorPoint: "base" 1035 -100 basechar 0
LayerCount: 2
Fore
SplineSet
675 1537 m 257
 116 0 l 257
 316 0 l 257
 875 1537 l 257
 675 1537 l 257
753 1537 m 257
 679 1333 l 257
 2397 1333 l 257
 2471 1537 l 257
 753 1537 l 257
256 203 m 257
 182 0 l 257
 1928 0 l 257
 2002 203 l 257
 256 203 l 257
505 888 m 257
 432 688 l 257
 1932 688 l 257
 2005 888 l 257
 505 888 l 257
EndSplineSet
EndChar

StartChar: Eng
Encoding: 39 330 39
GlifName: E_ng
Width: 2048
VWidth: 0
GlyphClass: 2
Flags: W
AnchorPoint: "top" 1620 1672 basechar 0
AnchorPoint: "base" 884 -400 basechar 0
LayerCount: 2
Fore
SplineSet
1471 -211 m 257
 1400 -408 l 257
 1786 -408 l 257
 1858 -211 l 257
 1471 -211 l 257
675 1547 m 257
 112 0 l 257
 313 0 l 257
 876 1547 l 257
 675 1547 l 257
2272 1476 m 257
 1586 -408 l 257
 1788 -408 l 257
 2473 1476 l 257
 2272 1476 l 257
650 1477 m 257
 578 1280 l 257
 2401 1280 l 257
 2473 1477 l 257
 650 1477 l 257
EndSplineSet
EndChar

StartChar: Eth
Encoding: 45 208 45
GlifName: E_th
Width: 2048
VWidth: 0
GlyphClass: 2
Flags: W
AnchorPoint: "top" 2028 1655 basechar 0
AnchorPoint: "base" 1030 -118 basechar 0
LayerCount: 2
Fore
SplineSet
681 935 m 257
 531 730 l 257
 1007 730 l 257
 1157 935 l 257
 681 935 l 257
1234 1548 m 257
 107 0 l 257
 309 0 l 257
 1436 1548 l 257
 1234 1548 l 257
2584 1548 m 257
 2440 1350 l 257
 2498 767 l 257
 2685 1023 l 257
 2584 1548 l 257
1611 201 m 257
 1465 0 l 257
 2497 769 l 257
 2682 1023 l 257
 1611 201 l 257
1398 1548 m 257
 1253 1349 l 257
 2439 1349 l 257
 2584 1548 l 257
 1398 1548 l 257
425 200 m 257
 279 0 l 257
 1465 0 l 257
 1611 200 l 257
 425 200 l 257
EndSplineSet
EndChar

StartChar: Euro
Encoding: 46 8364 46
GlifName: E_uro
Width: 2048
VWidth: 0
GlyphClass: 2
Flags: W
LayerCount: 2
Fore
SplineSet
815 520 m 257
 761 372 l 257
 1557 372 l 257
 1611 520 l 257
 815 520 l 257
978 935 m 257
 925 788 l 257
 1705 788 l 257
 1758 935 l 257
 978 935 l 257
1266 1023 m 257
 959 179 l 257
 1149 179 l 257
 1456 1023 l 257
 1266 1023 l 257
1806 1633 m 257
 1266 1023 l 257
 1456 1023 l 257
 1915 1601 l 257
 1806 1633 l 257
959 179 m 257
 1090 -406 l 257
 1242 -406 l 257
 1149 179 l 257
 959 179 l 257
EndSplineSet
EndChar

StartChar: F
Encoding: 47 70 47
GlifName: F_
Width: 2048
VWidth: 0
GlyphClass: 2
Flags: W
AnchorPoint: "top" 1568 1611 basechar 0
AnchorPoint: "base" 266 -71 basechar 0
LayerCount: 2
Fore
SplineSet
716 1548 m 257
 153 0 l 257
 353 0 l 257
 916 1548 l 257
 716 1548 l 257
818 1548 m 257
 745 1347 l 257
 2379 1347 l 257
 2452 1548 l 257
 818 1548 l 257
561 875 m 257
 488 672 l 257
 2037 672 l 257
 2110 875 l 257
 561 875 l 257
EndSplineSet
EndChar

StartChar: G
Encoding: 48 71 48
GlifName: G_
Width: 2048
VWidth: 0
GlyphClass: 2
Flags: W
AnchorPoint: "top" 1586 1604 basechar 0
AnchorPoint: "base" 1018 -102 basechar 0
LayerCount: 2
Fore
SplineSet
690 1548 m 257
 127 0 l 257
 329 0 l 257
 892 1548 l 257
 690 1548 l 257
748 1548 m 257
 675 1347 l 257
 2375 1347 l 257
 2448 1548 l 257
 748 1548 l 257
232 202 m 257
 158 0 l 257
 1921 0 l 257
 1995 202 l 257
 232 202 l 257
1926 561 m 257
 1729 18 l 257
 1928 18 l 257
 2125 561 l 257
 1926 561 l 257
EndSplineSet
EndChar

StartChar: Gamma
Encoding: 49 915 49
GlifName: G_amma
Width: 2048
VWidth: 0
GlyphClass: 2
Flags: W
LayerCount: 2
Fore
SplineSet
688.426 1548 m 257
 615.632 1348 l 257
 2413.63 1348 l 257
 2486.43 1548 l 257
 688.426 1548 l 257
651.661 1436 m 257
 131.184 6 l 257
 331.184 6 l 257
 851.661 1436 l 257
 651.661 1436 l 257
EndSplineSet
EndChar

StartChar: H
Encoding: 55 72 55
GlifName: H_
Width: 2048
VWidth: 0
GlyphClass: 2
Flags: W
AnchorPoint: "top" 1696 1638 basechar 0
AnchorPoint: "base" 1026 -45 basechar 0
LayerCount: 2
Fore
SplineSet
685 1537 m 257
 126 0 l 257
 326 0 l 257
 885 1537 l 257
 685 1537 l 257
2271 1537 m 257
 1712 0 l 257
 1922 0 l 257
 2481 1537 l 257
 2271 1537 l 257
618 1023 m 257
 544 818 l 257
 2090 818 l 257
 2164 1023 l 257
 618 1023 l 257
EndSplineSet
EndChar

StartChar: H18533
Encoding: 56 9679 56
GlifName: blackC_ircle
Width: 2048
VWidth: 0
GlyphClass: 2
Flags: W
LayerCount: 2
Fore
SplineSet
1103 1186 m 257
 920 1174 l 257
 767 1089 l 257
 673 923 l 257
 687 730 l 257
 754 515 l 257
 978 421 l 257
 1140 443 l 257
 1319 493 l 257
 1386 645 l 257
 1418 780 l 257
 1413 946 l 257
 1323 1089 l 257
 1103 1186 l 257
EndSplineSet
EndChar

StartChar: H18543
Encoding: 57 9642 57
GlifName: blackS_mallS_quare
Width: 2048
VWidth: 0
GlyphClass: 2
Flags: W
LayerCount: 2
Fore
SplineSet
772 1077 m 257
 772 580 l 257
 1269 580 l 257
 1269 1077 l 257
 772 1077 l 257
EndSplineSet
EndChar

StartChar: H18551
Encoding: 58 9643 58
GlifName: whiteS_mallS_quare
Width: 2048
VWidth: 0
GlyphClass: 2
Flags: W
LayerCount: 2
Fore
SplineSet
774 1011 m 257
 774 518 l 257
 1267 518 l 257
 1267 1011 l 257
 774 1011 l 257
823 962 m 257
 1218 962 l 257
 1218 567 l 257
 823 567 l 257
 823 962 l 257
EndSplineSet
EndChar

StartChar: H22073
Encoding: 59 9633 59
GlifName: whiteS_quare
Width: 2048
VWidth: 0
GlyphClass: 2
Flags: W
LayerCount: 2
Fore
SplineSet
614 1186 m 257
 614 363 l 257
 1437 363 l 257
 1437 1186 l 257
 614 1186 l 257
696 1104 m 257
 1355 1104 l 257
 1355 445 l 257
 696 445 l 257
 696 1104 l 257
EndSplineSet
EndChar

StartChar: Hbar
Encoding: 60 294 60
GlifName: H_bar
Width: 2048
VWidth: 0
GlyphClass: 2
Flags: W
LayerCount: 2
Fore
SplineSet
648 1537 m 257
 89 0 l 257
 289 0 l 257
 848 1537 l 257
 648 1537 l 257
2258 1537 m 257
 1699 0 l 257
 1909 0 l 257
 2468 1537 l 257
 2258 1537 l 257
581 1023 m 257
 507 818 l 257
 2077 818 l 257
 2151 1023 l 257
 581 1023 l 257
550 1434 m 257
 474 1226 l 257
 2423 1226 l 257
 2499 1434 l 257
 550 1434 l 257
EndSplineSet
EndChar

StartChar: I
Encoding: 62 73 62
GlifName: I_
Width: 2048
VWidth: 0
GlyphClass: 2
Flags: W
AnchorPoint: "top" 1637 1626 basechar 0
AnchorPoint: "base" 1029 -86 basechar 0
LayerCount: 2
Fore
SplineSet
703 1537 m 257
 630 1335 l 257
 2375 1335 l 257
 2448 1537 l 257
 703 1537 l 257
1509 1468 m 257
 1006 84 l 257
 1206 84 l 257
 1709 1468 l 257
 1509 1468 l 257
198 204 m 257
 126 6 l 257
 1926 6 l 257
 1998 204 l 257
 198 204 l 257
EndSplineSet
EndChar

StartChar: J
Encoding: 76 74 76
GlifName: J_
Width: 2048
VWidth: 0
GlyphClass: 2
Flags: W
AnchorPoint: "base" 1023 -95 basechar 0
AnchorPoint: "top" 2387 1630 basechar 0
LayerCount: 2
Fore
SplineSet
2268 1527 m 257
 1712 0 l 257
 1912 0 l 257
 2468 1527 l 257
 2268 1527 l 257
214 208 m 257
 138 0 l 257
 1752 0 l 257
 1828 208 l 257
 214 208 l 257
319 503 m 257
 155 52 l 257
 353 52 l 257
 517 503 l 257
 319 503 l 257
EndSplineSet
EndChar

StartChar: K
Encoding: 78 75 78
GlifName: K_
Width: 2048
VWidth: 0
GlyphClass: 2
Flags: W
AnchorPoint: "base" 1011 -95 basechar 0
AnchorPoint: "top" 790 1630 basechar 0
LayerCount: 2
Fore
SplineSet
671 1537 m 257
 114 5 l 257
 315 5 l 257
 872 1537 l 257
 671 1537 l 257
521 999 m 257
 580 835 l 257
 2440 1529 l 257
 2173 1529 l 257
 521 999 l 257
577 798 m 257
 384 643 l 257
 1655 0 l 257
 1936 0 l 257
 577 798 l 257
EndSplineSet
EndChar

StartChar: L
Encoding: 81 76 81
GlifName: L_
Width: 2048
VWidth: 0
GlyphClass: 2
Flags: W
AnchorPoint: "base" 1050 -62 basechar 0
AnchorPoint: "top" 792 1640 basechar 0
LayerCount: 2
Fore
SplineSet
690 1542 m 257
 129 0 l 257
 327 0 l 257
 888 1542 l 257
 690 1542 l 257
312 202 m 257
 238 0 l 257
 1914 0 l 257
 1988 202 l 257
 312 202 l 257
EndSplineSet
EndChar

StartChar: Lambda
Encoding: 84 923 84
GlifName: L_ambda
Width: 2048
VWidth: 0
GlyphClass: 2
Flags: W
LayerCount: 2
Fore
SplineSet
1941 0 m 257
 1732.43 1548 l 257
 1511.43 1548 l 257
 1740 0 l 257
 1941 0 l 257
307 0 m 257
 1607.43 1548 l 257
 1384.43 1548 l 257
 106 0 l 257
 307 0 l 257
EndSplineSet
EndChar

StartChar: Lcaron
Encoding: 85 317 85
GlifName: L_caron
Width: 2048
VWidth: 0
GlyphClass: 2
Flags: W
LayerCount: 2
Fore
SplineSet
614 1542 m 257
 53 0 l 257
 251 0 l 257
 812 1542 l 257
 614 1542 l 257
236 202 m 257
 162 0 l 257
 1912 0 l 257
 1986 202 l 257
 236 202 l 257
991 1496 m 257
 907 1264 l 257
 1037 1264 l 257
 1122 1496 l 257
 991 1496 l 257
EndSplineSet
EndChar

StartChar: Lslash
Encoding: 89 321 89
GlifName: L_slash
Width: 2048
VWidth: 0
GlyphClass: 2
Flags: W
LayerCount: 2
Fore
SplineSet
732 1542 m 257
 171 0 l 257
 369 0 l 257
 930 1542 l 257
 732 1542 l 257
354 202 m 257
 280 0 l 257
 2030 0 l 257
 2104 202 l 257
 354 202 l 257
344 902 m 257
 362 730 l 257
 869 932 l 257
 852 1104 l 257
 344 902 l 257
EndSplineSet
EndChar

StartChar: M
Encoding: 90 77 90
GlifName: M_
Width: 2048
VWidth: 0
GlyphClass: 2
Flags: W
AnchorPoint: "base" 1019 -30 basechar 0
AnchorPoint: "top" 1623 1635 basechar 0
LayerCount: 2
Fore
SplineSet
701 1548 m 257
 138 0 l 257
 340 0 l 257
 903 1548 l 257
 701 1548 l 257
2267 1548 m 257
 1708 0 l 257
 1910 0 l 257
 2469 1548 l 257
 2267 1548 l 257
694 1429 m 257
 1265 1031 l 257
 1453 1031 l 257
 879 1548 l 257
 694 1429 l 257
2295 1548 m 257
 1260 1023 l 257
 1448 1023 l 257
 2444 1499 l 257
 2295 1548 l 257
EndSplineSet
EndChar

StartChar: N
Encoding: 92 78 92
GlifName: N_
Width: 2048
VWidth: 0
GlyphClass: 2
Flags: W
AnchorPoint: "top" 1658 1630 basechar 0
AnchorPoint: "base" 1027 -36 basechar 0
LayerCount: 2
Fore
SplineSet
697 1548 m 257
 134 0 l 257
 338 0 l 257
 901 1548 l 257
 697 1548 l 257
2273 1548 m 257
 1712 0 l 257
 1912 0 l 257
 2475 1548 l 257
 2273 1548 l 257
697 1548 m 257
 1712 0 l 257
 1912 0 l 257
 903 1548 l 257
 697 1548 l 257
EndSplineSet
EndChar

StartChar: O
Encoding: 98 79 98
GlifName: O_
Width: 2048
VWidth: 0
GlyphClass: 2
Flags: W
AnchorPoint: "top" 1700 1633 basechar 0
AnchorPoint: "base" 1023 -119 basechar 0
LayerCount: 2
Fore
SplineSet
708 1537 m 257
 149 0 l 257
 350 0 l 257
 909 1537 l 257
 708 1537 l 257
2255 1537 m 257
 1696 0 l 257
 1899 0 l 257
 2458 1537 l 257
 2255 1537 l 257
772 1537 m 257
 700 1337 l 257
 2293 1337 l 257
 2365 1537 l 257
 772 1537 l 257
263 204 m 257
 189 0 l 257
 1812 0 l 257
 1886 204 l 257
 263 204 l 257
EndSplineSet
Substitution2: "Single Substitution lookup 11 subtable" ordmasculine
EndChar

StartChar: OE
Encoding: 99 338 99
GlifName: O_E_
Width: 2048
VWidth: 0
GlyphClass: 2
Flags: W
AnchorPoint: "top" 1697 1657 basechar 0
AnchorPoint: "base" 1024 -85 basechar 0
LayerCount: 2
Fore
SplineSet
674 1548 m 257
 111 0 l 257
 312 0 l 257
 875 1548 l 257
 674 1548 l 257
1578 1548 m 257
 1015 0 l 257
 1216 0 l 257
 1779 1548 l 257
 1578 1548 l 257
711 1548 m 257
 639 1349 l 257
 2395 1349 l 257
 2467 1548 l 257
 711 1548 l 257
223 200 m 257
 150 0 l 257
 1912 0 l 257
 1985 200 l 257
 223 200 l 257
1431 859 m 257
 1358 659 l 257
 2114 659 l 257
 2187 859 l 257
 1431 859 l 257
EndSplineSet
EndChar

StartChar: OU
Encoding: 100 546 100
GlifName: O_U_
Width: 2048
VWidth: 0
Flags: W
LayerCount: 2
Fore
SplineSet
680 1552 m 257
 447 911 l 257
 647 911 l 257
 880 1552 l 257
 680 1552 l 257
2316 1552 m 257
 2081 915 l 257
 2281 915 l 257
 2516 1552 l 257
 2316 1552 l 257
386 779 m 257
 311 581 l 257
 2178 578 l 257
 2251 783 l 257
 386 779 l 257
386 779 m 257
 104 24 l 257
 308 24 l 257
 583 779 l 257
 386 779 l 257
2051 780 m 257
 1773 0 l 257
 1976 3 l 257
 2251 783 l 257
 2051 780 l 257
167 200 m 257
 92 0 l 257
 1966 0 l 257
 2039 200 l 257
 167 200 l 257
2251 783 m 257
 529 1143 l 257
 448 910 l 257
 2178 578 l 257
 2251 783 l 257
312 581 m 257
 2281 915 l 257
 2358 1139 l 257
 386 780 l 257
 312 581 l 257
1469 1559 m 257
 680 1557 l 257
 613 1359 l 257
 1409 1358 l 257
 1469 1559 l 257
1577 1344 m 257
 2446 1342 l 257
 2511 1547 l 257
 1636 1545 l 257
 1577 1344 l 257
EndSplineSet
EndChar

StartChar: Oslash
Encoding: 113 216 113
GlifName: O_slash
Width: 2048
VWidth: 0
GlyphClass: 2
Flags: W
AnchorPoint: "top" 1615 1635 basechar 0
AnchorPoint: "base" 1031 -91 basechar 0
LayerCount: 2
Fore
SplineSet
2419 1667 m 257
 19 -45 l 257
 180 -118 l 257
 2580 1594 l 257
 2419 1667 l 257
669 1537 m 257
 110 0 l 257
 311 0 l 257
 870 1537 l 257
 669 1537 l 257
2290 1537 m 257
 1731 0 l 257
 1934 0 l 257
 2493 1537 l 257
 2290 1537 l 257
733 1537 m 257
 661 1337 l 257
 2328 1337 l 257
 2400 1537 l 257
 733 1537 l 257
224 204 m 257
 150 0 l 257
 1847 0 l 257
 1921 204 l 257
 224 204 l 257
EndSplineSet
EndChar

StartChar: P
Encoding: 116 80 116
GlifName: P_
Width: 2048
VWidth: 0
GlyphClass: 2
Flags: W
AnchorPoint: "base" 1029 -73 basechar 0
AnchorPoint: "top" 1558 1642 basechar 0
LayerCount: 2
Fore
SplineSet
735 1548 m 257
 175 9 l 257
 365 9 l 257
 925 1548 l 257
 735 1548 l 257
813 1548 m 257
 740 1346 l 257
 2346 1346 l 257
 2419 1548 l 257
 813 1548 l 257
2239 1548 m 257
 1997 881 l 257
 2197 881 l 257
 2439 1548 l 257
 2239 1548 l 257
623 1068 m 257
 550 868 l 257
 2188 868 l 257
 2261 1068 l 257
 623 1068 l 257
EndSplineSet
EndChar

StartChar: Phi
Encoding: 117 934 117
GlifName: P_hi
Width: 2048
VWidth: 0
GlyphClass: 2
Flags: W
LayerCount: 2
Fore
SplineSet
1496.88 1541 m 257
 940.731 13 l 257
 1139.73 13 l 257
 1695.88 1541 l 257
 1496.88 1541 l 257
626.838 1420 m 257
 152.948 118 l 257
 353.948 118 l 257
 827.838 1420 l 257
 626.838 1420 l 257
2247.84 1420 m 257
 1773.95 118 l 257
 1976.95 118 l 257
 2450.84 1420 l 257
 2247.84 1420 l 257
690.838 1420 m 257
 618.044 1220 l 257
 2285.04 1220 l 257
 2357.84 1420 l 257
 690.838 1420 l 257
267.198 322 m 257
 192.948 118 l 257
 1889.95 118 l 257
 1964.2 322 l 257
 267.198 322 l 257
EndSplineSet
EndChar

StartChar: Pi
Encoding: 118 928 118
GlifName: P_i
Width: 2048
VWidth: 0
GlyphClass: 2
Flags: W
LayerCount: 2
Fore
SplineSet
669.422 1537 m 257
 110 0 l 257
 311 0 l 257
 870.422 1537 l 257
 669.422 1537 l 257
2290.42 1537 m 257
 1731 0 l 257
 1934 0 l 257
 2493.42 1537 l 257
 2290.42 1537 l 257
733.422 1537 m 257
 660.628 1337 l 257
 2327.63 1337 l 257
 2400.42 1537 l 257
 733.422 1537 l 257
EndSplineSet
EndChar

StartChar: Psi
Encoding: 119 936 119
GlifName: P_si
Width: 2048
VWidth: 0
GlyphClass: 2
Flags: W
LayerCount: 2
Fore
SplineSet
1383.79 1266 m 257
 923 0 l 257
 1125 0 l 257
 1585.79 1266 l 257
 1383.79 1266 l 257
723.426 1548 m 257
 453.36 806 l 257
 653.36 806 l 257
 923.426 1548 l 257
 723.426 1548 l 257
2252.43 1548 m 257
 1982.36 806 l 257
 2181.36 806 l 257
 2451.43 1548 l 257
 2252.43 1548 l 257
581.051 970 m 257
 521.36 806 l 257
 2091.36 806 l 257
 2151.05 970 l 257
 581.051 970 l 257
EndSplineSet
EndChar

StartChar: Q
Encoding: 120 81 120
GlifName: Q_
Width: 2048
VWidth: 0
GlyphClass: 2
Flags: W
AnchorPoint: "base" 1010 -88 basechar 0
AnchorPoint: "top" 1592 1651 basechar 0
LayerCount: 2
Fore
SplineSet
708 1537 m 257
 151 5 l 257
 350 5 l 257
 907 1537 l 257
 708 1537 l 257
2257 1537 m 257
 1698 0 l 257
 1899 0 l 257
 2458 1537 l 257
 2257 1537 l 257
772 1537 m 257
 700 1337 l 257
 2293 1337 l 257
 2365 1537 l 257
 772 1537 l 257
264 205 m 257
 189 0 l 257
 1812 0 l 257
 1887 205 l 257
 264 205 l 257
1255 21 m 257
 1329 -285 l 257
 1562 -169 l 257
 1488 137 l 257
 1255 21 l 257
EndSplineSet
EndChar

StartChar: R
Encoding: 121 82 121
GlifName: R_
Width: 2048
VWidth: 0
GlyphClass: 2
Flags: W
AnchorPoint: "base" 1027 -41 basechar 0
AnchorPoint: "top" 1542 1648 basechar 0
LayerCount: 2
Fore
SplineSet
661 1537 m 257
 102 0 l 257
 303 0 l 257
 862 1537 l 257
 661 1537 l 257
740 1537 m 257
 667 1335 l 257
 2323 1335 l 257
 2396 1537 l 257
 740 1537 l 257
2223 1537 m 257
 1981 872 l 257
 2181 872 l 257
 2423 1537 l 257
 2223 1537 l 257
558 1079 m 257
 481 868 l 257
 2168 868 l 257
 2245 1079 l 257
 558 1079 l 257
630 892 m 257
 1706 0 l 257
 1946 0 l 257
 829 892 l 257
 630 892 l 257
EndSplineSet
EndChar

StartChar: S
Encoding: 126 83 126
GlifName: S_
Width: 2048
VWidth: 0
GlyphClass: 2
Flags: W
AnchorPoint: "top" 1590 1641 basechar 0
AnchorPoint: "base" 1020 -67 basechar 0
LayerCount: 2
Fore
SplineSet
697 1537 m 257
 624 1336 l 257
 2222 1336 l 257
 2295 1537 l 257
 697 1537 l 257
699 1542 m 257
 512 1028 l 257
 714 1028 l 257
 901 1542 l 257
 699 1542 l 257
238 199 m 257
 166 0 l 257
 1874 0 l 257
 1946 199 l 257
 238 199 l 257
1709 0 m 257
 1910 0 l 257
 2039 355 l 257
 1838 355 l 257
 1709 0 l 257
512 1028 m 257
 1838 355 l 257
 2039 355 l 257
 714 1028 l 257
 512 1028 l 257
EndSplineSet
EndChar

StartChar: Sigma
Encoding: 132 931 132
GlifName: S_igma
Width: 2048
VWidth: 0
GlyphClass: 2
Flags: W
LayerCount: 2
Fore
SplineSet
1553.76 928 m 257
 186.434 210 l 257
 104.904 -14 l 257
 1479.88 725 l 257
 1553.76 928 l 257
1553.22 921 m 257
 688.15 1539 l 257
 615.992 1338 l 257
 1480.79 722 l 257
 1553.22 921 l 257
2360.63 1337 m 257
 2433.42 1537 l 257
 687.422 1537 l 257
 614.628 1337 l 257
 2360.63 1337 l 257
1812 0 m 257
 1886.98 206 l 257
 199.978 206 l 257
 125 0 l 257
 1812 0 l 257
EndSplineSet
EndChar

StartChar: T
Encoding: 133 84 133
GlifName: T_
Width: 2048
VWidth: 0
GlyphClass: 2
Flags: W
AnchorPoint: "top" 1582 1604 basechar 0
AnchorPoint: "base" 1013 -120 basechar 0
LayerCount: 2
Fore
SplineSet
688 1548 m 257
 616 1348 l 257
 2414 1348 l 257
 2486 1548 l 257
 688 1548 l 257
1447 1436 m 257
 926 6 l 257
 1126 6 l 257
 1647 1436 l 257
 1447 1436 l 257
EndSplineSet
EndChar

StartChar: Theta
Encoding: 139 920 139
GlifName: T_heta
Width: 2048
VWidth: 0
GlyphClass: 2
Flags: W
LayerCount: 2
Fore
SplineSet
728.863 953 m 257
 656.069 753 l 257
 1968.07 753 l 257
 2040.86 953 l 257
 728.863 953 l 257
669.422 1537 m 257
 110 0 l 257
 311 0 l 257
 870.422 1537 l 257
 669.422 1537 l 257
2290.42 1537 m 257
 1731 0 l 257
 1934 0 l 257
 2493.42 1537 l 257
 2290.42 1537 l 257
733.422 1537 m 257
 660.628 1337 l 257
 2327.63 1337 l 257
 2400.42 1537 l 257
 733.422 1537 l 257
224.25 204 m 257
 150 0 l 257
 1847 0 l 257
 1921.25 204 l 257
 224.25 204 l 257
EndSplineSet
EndChar

StartChar: Thorn
Encoding: 140 222 140
GlifName: T_horn
Width: 2048
VWidth: 0
GlyphClass: 2
Flags: W
AnchorPoint: "base" 442 -42 basechar 0
AnchorPoint: "top" 379 1684 basechar 0
LayerCount: 2
Fore
SplineSet
673 1542 m 257
 115 9 l 257
 305 9 l 257
 863 1542 l 257
 673 1542 l 257
640 1234 m 257
 568 1035 l 257
 2248 1035 l 257
 2320 1234 l 257
 640 1234 l 257
2140 1233 m 257
 1898 569 l 257
 2098 569 l 257
 2340 1233 l 257
 2140 1233 l 257
428 684 m 257
 355 484 l 257
 2066 484 l 257
 2139 684 l 257
 428 684 l 257
EndSplineSet
EndChar

StartChar: U
Encoding: 141 85 141
GlifName: U_
Width: 2048
VWidth: 0
GlyphClass: 2
Flags: W
AnchorPoint: "top" 1643 1626 basechar 0
AnchorPoint: "base" 1041 -110 basechar 0
LayerCount: 2
Fore
SplineSet
715 1537 m 257
 156 0 l 257
 356 0 l 257
 915 1537 l 257
 715 1537 l 257
2251 1537 m 257
 1692 0 l 257
 1890 0 l 257
 2449 1537 l 257
 2251 1537 l 257
277 200 m 257
 204 0 l 257
 1848 0 l 257
 1921 200 l 257
 277 200 l 257
EndSplineSet
EndChar

StartChar: V
Encoding: 156 86 156
GlifName: V_
Width: 2048
VWidth: 0
GlyphClass: 2
Flags: W
AnchorPoint: "top" 1584 1639 basechar 0
AnchorPoint: "base" 1041 -60 basechar 0
LayerCount: 2
Fore
SplineSet
681 1548 m 257
 890 0 l 257
 1112 0 l 257
 883 1548 l 257
 681 1548 l 257
2291 1548 m 257
 1016 0 l 257
 1238 0 l 257
 2493 1548 l 257
 2291 1548 l 257
EndSplineSet
EndChar

StartChar: W
Encoding: 157 87 157
GlifName: W_
Width: 2048
VWidth: 0
GlyphClass: 2
Flags: W
AnchorPoint: "base" 1021 -80 basechar 0
AnchorPoint: "top" 1571 1643 basechar 0
LayerCount: 2
Fore
SplineSet
667 1548 m 257
 104 0 l 257
 304 0 l 257
 867 1548 l 257
 667 1548 l 257
2307 1548 m 257
 1748 12 l 257
 1950 12 l 257
 2509 1548 l 257
 2307 1548 l 257
1300 1028 m 257
 926 0 l 257
 1128 0 l 257
 1502 1028 l 257
 1300 1028 l 257
175 201 m 257
 102 0 l 257
 1946 0 l 257
 2019 201 l 257
 175 201 l 257
EndSplineSet
EndChar

StartChar: X
Encoding: 162 88 162
GlifName: X_
Width: 2048
VWidth: 0
GlyphClass: 2
Flags: W
AnchorPoint: "top" 1596 1633 basechar 0
AnchorPoint: "base" 1013 -26 basechar 0
LayerCount: 2
Fore
SplineSet
645 1548 m 257
 1766 0 l 257
 1966 0 l 257
 844 1548 l 257
 645 1548 l 257
87 6 m 257
 288 6 l 257
 2521 1548 l 257
 2322 1548 l 257
 87 6 l 257
EndSplineSet
EndChar

StartChar: Xi
Encoding: 163 926 163
GlifName: X_i
Width: 2048
VWidth: 0
GlyphClass: 2
Flags: W
LayerCount: 2
Fore
SplineSet
496.044 948 m 257
 418.882 736 l 257
 2162.88 736 l 257
 2240.04 948 l 257
 496.044 948 l 257
660.426 1548 m 257
 583.265 1336 l 257
 2441.26 1336 l 257
 2518.43 1548 l 257
 660.426 1548 l 257
175.162 212 m 257
 98 0 l 257
 1950 0 l 257
 2027.16 212 l 257
 175.162 212 l 257
EndSplineSet
EndChar

StartChar: Y
Encoding: 164 89 164
GlifName: Y_
Width: 2048
VWidth: 0
GlyphClass: 2
Flags: W
AnchorPoint: "top" 1555 1642 basechar 0
AnchorPoint: "base" 1004 -82 basechar 0
LayerCount: 2
Fore
SplineSet
1240 897 m 257
 914 0 l 257
 1116 0 l 257
 1442 897 l 257
 1240 897 l 257
673 1548 m 257
 423 859 l 257
 623 859 l 257
 873 1548 l 257
 673 1548 l 257
2301 1548 m 257
 2051 859 l 257
 2251 859 l 257
 2501 1548 l 257
 2301 1548 l 257
550 1023 m 257
 491 859 l 257
 2161 859 l 257
 2220 1023 l 257
 550 1023 l 257
EndSplineSet
EndChar

StartChar: Z
Encoding: 169 90 169
GlifName: Z_
Width: 2048
VWidth: 0
GlyphClass: 2
Flags: W
AnchorPoint: "top" 1743 1637 basechar 0
AnchorPoint: "base" 1021 -55 basechar 0
LayerCount: 2
Fore
SplineSet
670 1548 m 257
 593 1336 l 257
 2427 1336 l 257
 2504 1548 l 257
 670 1548 l 257
185 212 m 257
 108 0 l 257
 1936 0 l 257
 2013 212 l 257
 185 212 l 257
2166 1335 m 257
 185 211 l 257
 392 211 l 257
 2411 1335 l 257
 2166 1335 l 257
EndSplineSet
EndChar

StartChar: a
Encoding: 174 97 174
GlifName: a
Width: 2048
VWidth: 0
GlyphClass: 2
Flags: W
AnchorPoint: "top" 1574 1116 basechar 0
AnchorPoint: "base" 1027 -82 basechar 0
LayerCount: 2
Fore
SplineSet
550 1023 m 257
 478 824 l 257
 2084 824 l 257
 2156 1023 l 257
 550 1023 l 257
2043 1023 m 257
 1671 0 l 257
 1865 0 l 257
 2237 1023 l 257
 2043 1023 l 257
400 599 m 257
 328 400 l 257
 1952 400 l 257
 2024 599 l 257
 400 599 l 257
391 575 m 257
 182 0 l 257
 383 0 l 257
 592 575 l 257
 391 575 l 257
253 201 m 257
 180 0 l 257
 1870 0 l 257
 1943 201 l 257
 253 201 l 257
EndSplineSet
Substitution2: "Single Substitution lookup 10 subtable" ordfeminine
EndChar

StartChar: acute
Encoding: 178 180 178
GlifName: acute
Width: 2048
VWidth: 0
GlyphClass: 2
Flags: W
LayerCount: 2
Fore
SplineSet
1088 1556 m 257
 866 1302 l 257
 937 1256 l 257
 1161 1511 l 257
 1088 1556 l 257
EndSplineSet
EndChar

StartChar: acutecomb
Encoding: 179 769 179
GlifName: acutecomb
Width: 0
VWidth: 0
GlyphClass: 4
Flags: W
AnchorPoint: "top" -16 794 mark 0
LayerCount: 2
Fore
SplineSet
99 1171 m 257
 -124 917 l 257
 37 818 l 257
 262 1073 l 257
 99 1171 l 257
EndSplineSet
EndChar

StartChar: ae
Encoding: 181 230 181
GlifName: ae
Width: 2048
VWidth: 0
GlyphClass: 2
Flags: W
AnchorPoint: "base" 1027 -103 basechar 0
AnchorPoint: "top" 1459 1109 basechar 0
LayerCount: 2
Fore
SplineSet
420 1023 m 257
 348 824 l 257
 2191 824 l 257
 2263 1023 l 257
 420 1023 l 257
1333 1023 m 257
 961 0 l 257
 1155 0 l 257
 1527 1023 l 257
 1333 1023 l 257
289 599 m 257
 217 400 l 257
 2038 400 l 257
 2110 599 l 257
 289 599 l 257
280 575 m 257
 71 0 l 257
 272 0 l 257
 481 575 l 257
 280 575 l 257
142 201 m 257
 69 0 l 257
 2013 0 l 257
 2086 201 l 257
 142 201 l 257
2169 1023 m 257
 1943 400 l 257
 2138 400 l 257
 2364 1023 l 257
 2169 1023 l 257
EndSplineSet
EndChar

StartChar: afii10018
Encoding: 185 1041 185
GlifName: B_e-cy
Width: 2048
VWidth: 0
GlyphClass: 2
Flags: W
AnchorPoint: "base" 1108 -57 basechar 0
AnchorPoint: "top" 830 1625 basechar 0
LayerCount: 2
Fore
SplineSet
614 1537 m 257
 55 0 l 257
 254 0 l 257
 813 1537 l 257
 614 1537 l 257
528 808 m 257
 456 609 l 257
 2112 609 l 257
 2184 808 l 257
 528 808 l 257
2124 808 m 257
 1748 0 l 257
 1947 0 l 257
 2323 808 l 257
 2124 808 l 257
255 207 m 257
 180 0 l 257
 1868 0 l 257
 1943 207 l 257
 255 207 l 257
791 1537 m 257
 719 1338 l 257
 2375 1338 l 257
 2447 1537 l 257
 791 1537 l 257
EndSplineSet
EndChar

StartChar: afii10021
Encoding: 188 1044 188
GlifName: D_e-cy
Width: 2048
VWidth: 0
GlyphClass: 2
Flags: W
LayerCount: 2
Fore
SplineSet
92 203 m 257
 19 3 l 257
 2017 3 l 257
 2090 203 l 257
 92 203 l 257
76 159 m 257
 -127 -405 l 257
 73 -405 l 257
 276 159 l 257
 76 159 l 257
1874 159 m 257
 1666 -412 l 257
 1866 -412 l 257
 2074 159 l 257
 1874 159 l 257
1995 1436 m 257
 1520 132 l 257
 1720 132 l 257
 2195 1436 l 257
 1995 1436 l 257
1244 1538 m 257
 1171 1338 l 257
 2159 1338 l 257
 2232 1538 l 257
 1244 1538 l 257
1224 1539 m 257
 302 185 l 257
 502 185 l 257
 1424 1539 l 257
 1224 1539 l 257
EndSplineSet
EndChar

StartChar: afii10024
Encoding: 191 1046 191
GlifName: Z_he-cy
Width: 2048
VWidth: 0
GlyphClass: 2
Flags: W
AnchorPoint: "base" 1030 -39 basechar 0
AnchorPoint: "top" 236 1629 basechar 0
LayerCount: 2
Fore
SplineSet
1479 1537 m 257
 922 5 l 257
 1123 5 l 257
 1680 1537 l 257
 1479 1537 l 257
1329 999 m 257
 1388 835 l 257
 2489 1529 l 257
 2222 1529 l 257
 1329 999 l 257
1385 798 m 257
 1192 643 l 257
 1704 0 l 257
 1985 0 l 257
 1385 798 l 257
1401 999 m 257
 921 1529 l 257
 654 1529 l 257
 1222 835 l 257
 1401 999 l 257
1231 798 m 257
 44 0 l 257
 325 0 l 257
 1312 643 l 257
 1231 798 l 257
EndSplineSet
EndChar

StartChar: afii10025
Encoding: 192 1047 192
GlifName: Z_e-cy
Width: 2048
VWidth: 0
GlyphClass: 2
Flags: W
LayerCount: 2
Fore
SplineSet
662 1547 m 257
 589 1347 l 257
 2439 1347 l 257
 2512 1547 l 257
 662 1547 l 257
662 1547 m 257
 539 1211 l 257
 739 1211 l 257
 862 1547 l 257
 662 1547 l 257
2308 1535 m 257
 2065 868 l 257
 2265 868 l 257
 2508 1535 l 257
 2308 1535 l 257
2008 710 m 257
 1752 7 l 257
 1952 7 l 257
 2208 710 l 257
 2008 710 l 257
175 200 m 257
 102 0 l 257
 1945 0 l 257
 2018 200 l 257
 175 200 l 257
242 395 m 257
 98 0 l 257
 298 0 l 257
 442 395 l 257
 242 395 l 257
824 892 m 257
 751 692 l 257
 2048 692 l 257
 2121 892 l 257
 824 892 l 257
EndSplineSet
EndChar

StartChar: afii10026
Encoding: 193 1048 193
GlifName: I_i-cy
Width: 2048
VWidth: 0
GlyphClass: 2
Flags: W
LayerCount: 2
Fore
SplineSet
599 1552 m 257
 34 0 l 257
 234 0 l 257
 799 1552 l 257
 599 1552 l 257
2378 1552 m 257
 1813 0 l 257
 2013 0 l 257
 2578 1552 l 257
 2378 1552 l 257
2378 1552 m 257
 34 0 l 257
 234 0 l 257
 2579 1552 l 257
 2378 1552 l 257
EndSplineSet
EndChar

StartChar: afii10029
Encoding: 196 1051 196
GlifName: E_l-cy
Width: 2048
VWidth: 0
GlyphClass: 2
Flags: W
LayerCount: 2
Fore
SplineSet
2399 1548 m 257
 1836 1 l 257
 2036 1 l 257
 2599 1548 l 257
 2399 1548 l 257
1225 1548 m 257
 1153 1348 l 257
 2515 1348 l 257
 2587 1548 l 257
 1225 1548 l 257
1215 1548 m 257
 342 0 l 257
 542 0 l 257
 1415 1548 l 257
 1215 1548 l 257
106 201 m 257
 33 1 l 257
 542 1 l 257
 615 201 l 257
 106 201 l 257
EndSplineSet
EndChar

StartChar: afii10037
Encoding: 204 1059 204
GlifName: U_-cy
Width: 2048
VWidth: 0
GlyphClass: 2
Flags: W
AnchorPoint: "top" 1492 1096 basechar 0
AnchorPoint: "base" 1039 -512 basechar 0
LayerCount: 2
Fore
SplineSet
2062 1427 m 257
 1542 -2 l 257
 1742 -2 l 257
 2262 1427 l 257
 2062 1427 l 257
81 193 m 257
 10 -2 l 257
 1726 -2 l 257
 1797 193 l 257
 81 193 l 257
530 1427 m 257
 254 668 l 257
 454 668 l 257
 730 1427 l 257
 530 1427 l 257
327 868 m 257
 254 668 l 257
 1872 668 l 257
 1945 868 l 257
 327 868 l 257
EndSplineSet
EndChar

StartChar: afii10040
Encoding: 207 1062 207
GlifName: T_se-cy
Width: 2048
VWidth: 0
GlyphClass: 2
Flags: W
LayerCount: 2
Fore
SplineSet
599 1548 m 257
 36 3 l 257
 236 3 l 257
 799 1548 l 257
 599 1548 l 257
2196 1553 m 257
 1630 0 l 257
 1830 0 l 257
 2396 1553 l 257
 2196 1553 l 257
117 200 m 257
 44 0 l 257
 1830 0 l 257
 1903 200 l 257
 117 200 l 257
1898 198 m 257
 1680 -401 l 257
 1879 -401 l 257
 2097 198 l 257
 1898 198 l 257
EndSplineSet
EndChar

StartChar: afii10041
Encoding: 208 1063 208
GlifName: C_he-cy
Width: 2048
VWidth: 0
GlyphClass: 2
Flags: W
LayerCount: 2
Fore
SplineSet
2276 1554 m 257
 1710 -1 l 257
 1910 -1 l 257
 2476 1554 l 257
 2276 1554 l 257
656 1554 m 257
 302 582 l 257
 502 582 l 257
 856 1554 l 257
 656 1554 l 257
555 782 m 257
 502 581 l 257
 2070 698 l 257
 2124 899 l 257
 555 782 l 257
EndSplineSet
EndChar

StartChar: afii10042
Encoding: 209 1064 209
GlifName: S_ha-cy
Width: 2048
VWidth: 0
GlyphClass: 2
Flags: W
LayerCount: 2
Fore
SplineSet
696 1548 m 257
 133 3 l 257
 333 3 l 257
 896 1548 l 257
 696 1548 l 257
2293 1553 m 257
 1727 0 l 257
 1927 0 l 257
 2493 1553 l 257
 2293 1553 l 257
214 200 m 257
 141 0 l 257
 1927 0 l 257
 2000 200 l 257
 214 200 l 257
1495 1553 m 257
 929 0 l 257
 1129 0 l 257
 1695 1553 l 257
 1495 1553 l 257
EndSplineSet
EndChar

StartChar: afii10043
Encoding: 210 1065 210
GlifName: S_hcha-cy
Width: 2048
VWidth: 0
GlyphClass: 2
Flags: W
LayerCount: 2
Fore
SplineSet
599 1548 m 257
 36 3 l 257
 236 3 l 257
 799 1548 l 257
 599 1548 l 257
2196 1553 m 257
 1630 0 l 257
 1830 0 l 257
 2396 1553 l 257
 2196 1553 l 257
117 200 m 257
 44 0 l 257
 1830 0 l 257
 1903 200 l 257
 117 200 l 257
1898 198 m 257
 1680 -401 l 257
 1879 -401 l 257
 2097 198 l 257
 1898 198 l 257
1398 1553 m 257
 832 0 l 257
 1032 0 l 257
 1598 1553 l 257
 1398 1553 l 257
EndSplineSet
EndChar

StartChar: afii10044
Encoding: 211 1066 211
GlifName: H_ardsign-cy
Width: 2048
VWidth: 0
GlyphClass: 2
Flags: W
AnchorPoint: "base" 1108 -57 basechar 0
AnchorPoint: "top" 830 1625 basechar 0
LayerCount: 2
Fore
SplineSet
1314 1537 m 257
 755 0 l 257
 954 0 l 257
 1513 1537 l 257
 1314 1537 l 257
1228 808 m 257
 1156 609 l 257
 2112 609 l 257
 2184 808 l 257
 1228 808 l 257
2124 808 m 257
 1748 0 l 257
 1947 0 l 257
 2323 808 l 257
 2124 808 l 257
955 207 m 257
 880 0 l 257
 1868 0 l 257
 1943 207 l 257
 955 207 l 257
755 1543 m 257
 612 1338 l 257
 1314 1338 l 257
 1457 1543 l 257
 755 1543 l 257
EndSplineSet
EndChar

StartChar: afii10045
Encoding: 212 1067 212
GlifName: Y_eru-cy
Width: 2048
VWidth: 0
GlyphClass: 2
Flags: W
AnchorPoint: "base" 1108 -57 basechar 0
AnchorPoint: "top" 830 1625 basechar 0
LayerCount: 2
Fore
SplineSet
614 1537 m 257
 55 0 l 257
 254 0 l 257
 813 1537 l 257
 614 1537 l 257
528 808 m 257
 456 609 l 257
 1600 609 l 257
 1672 808 l 257
 528 808 l 257
1612 808 m 257
 1236 0 l 257
 1435 0 l 257
 1811 808 l 257
 1612 808 l 257
255 207 m 257
 180 0 l 257
 1356 0 l 257
 1431 207 l 257
 255 207 l 257
2178 1535 m 257
 1619 -2 l 257
 1818 -2 l 257
 2377 1535 l 257
 2178 1535 l 257
EndSplineSet
EndChar

StartChar: afii10046
Encoding: 213 1068 213
GlifName: S_oftsign-cy
Width: 2048
VWidth: 0
GlyphClass: 2
Flags: W
AnchorPoint: "base" 1108 -57 basechar 0
AnchorPoint: "top" 830 1625 basechar 0
LayerCount: 2
Fore
SplineSet
614 1537 m 257
 55 0 l 257
 254 0 l 257
 813 1537 l 257
 614 1537 l 257
528 808 m 257
 456 609 l 257
 2112 609 l 257
 2184 808 l 257
 528 808 l 257
2124 808 m 257
 1748 0 l 257
 1947 0 l 257
 2323 808 l 257
 2124 808 l 257
255 207 m 257
 180 0 l 257
 1868 0 l 257
 1943 207 l 257
 255 207 l 257
EndSplineSet
EndChar

StartChar: afii10047
Encoding: 214 1069 214
GlifName: E_reversed-cy
Width: 2048
VWidth: 0
GlyphClass: 2
Flags: W
LayerCount: 2
Fore
SplineSet
1580 1542 m 257
 577 1542 l 257
 504 1342 l 257
 1507 1342 l 257
 1580 1542 l 257
2097 898 m 257
 408 898 l 257
 335 698 l 257
 2024 698 l 257
 2097 898 l 257
1120 201 m 257
 94 201 l 257
 21 1 l 257
 1047 1 l 257
 1120 201 l 257
1579 1541 m 257
 1336 1541 l 257
 1988 806 l 257
 2231 806 l 257
 1579 1541 l 257
2229 806 m 257
 1984 806 l 257
 801 0 l 257
 1046 0 l 257
 2229 806 l 257
EndSplineSet
EndChar

StartChar: afii10048
Encoding: 215 1070 215
GlifName: Y_u-cy
Width: 2048
VWidth: 0
GlyphClass: 2
Flags: W
AnchorPoint: "top" 1700 1633 basechar 0
AnchorPoint: "base" 1023 -119 basechar 0
LayerCount: 2
Fore
SplineSet
1408 1537 m 257
 849 0 l 257
 1050 0 l 257
 1609 1537 l 257
 1408 1537 l 257
2255 1537 m 257
 1696 0 l 257
 1899 0 l 257
 2458 1537 l 257
 2255 1537 l 257
1472 1537 m 257
 1400 1337 l 257
 2293 1337 l 257
 2365 1537 l 257
 1472 1537 l 257
963 204 m 257
 889 0 l 257
 1812 0 l 257
 1886 204 l 257
 963 204 l 257
623 1542 m 257
 64 5 l 257
 265 5 l 257
 824 1542 l 257
 623 1542 l 257
417 924 m 257
 388 724 l 257
 1183 724 l 257
 1211 924 l 257
 417 924 l 257
EndSplineSet
EndChar

StartChar: afii10049
Encoding: 216 1071 216
GlifName: Y_a-cy
Width: 2048
VWidth: 0
GlyphClass: 2
Flags: W
AnchorPoint: "base" 1037 -69 basechar 0
AnchorPoint: "top" 1007 1601 basechar 0
LayerCount: 2
Fore
SplineSet
2505 1537 m 257
 1946 0 l 257
 1745 0 l 257
 2304 1537 l 257
 2505 1537 l 257
2426 1537 m 257
 2353 1335 l 257
 697 1335 l 257
 770 1537 l 257
 2426 1537 l 257
943 1537 m 257
 701 872 l 257
 501 872 l 257
 743 1537 l 257
 943 1537 l 257
2276 1079 m 257
 2199 868 l 257
 512 868 l 257
 589 1079 l 257
 2276 1079 l 257
2061 892 m 257
 342 0 l 257
 102 0 l 257
 1861 892 l 257
 2061 892 l 257
EndSplineSet
EndChar

StartChar: afii10050
Encoding: 217 1168 217
GlifName: G_eupturn-cy
Width: 2048
VWidth: 0
GlyphClass: 2
Flags: W
LayerCount: 2
Fore
SplineSet
688.426 1548 m 257
 615.632 1348 l 257
 2413.63 1348 l 257
 2486.43 1548 l 257
 688.426 1548 l 257
651.661 1436 m 257
 131.184 6 l 257
 331.184 6 l 257
 851.661 1436 l 257
 651.661 1436 l 257
2498 1754.83 m 257
 2208 1348.68 l 257
 2410 1348.68 l 257
 2700 1754.83 l 257
 2498 1754.83 l 257
EndSplineSet
EndChar

StartChar: afii10051
Encoding: 218 1026 218
GlifName: D_je-cy
Width: 2048
VWidth: 0
GlyphClass: 2
Flags: W
LayerCount: 2
Fore
SplineSet
586 1548 m 257
 513 1348 l 257
 2069 1348 l 257
 2142 1548 l 257
 586 1548 l 257
1281 1544 m 257
 719 -1 l 257
 919 -1 l 257
 1481 1544 l 257
 1281 1544 l 257
1164 994 m 257
 1091 794 l 257
 2216 794 l 257
 2289 994 l 257
 1164 994 l 257
2087 989 m 257
 1741 37 l 257
 1941 37 l 257
 2287 989 l 257
 2087 989 l 257
1421 200 m 257
 1348 0 l 257
 1927 0 l 257
 2000 200 l 257
 1421 200 l 257
EndSplineSet
EndChar

StartChar: afii10053
Encoding: 220 1028 220
GlifName: E_-cy
Width: 2048
VWidth: 0
GlyphClass: 2
Flags: W
LayerCount: 2
Fore
SplineSet
1520 1542 m 257
 1447 1342 l 257
 2450 1342 l 257
 2523 1542 l 257
 1520 1542 l 257
534 898 m 257
 461 698 l 257
 2150 698 l 257
 2223 898 l 257
 534 898 l 257
1004 201 m 257
 931 1 l 257
 1957 1 l 257
 2030 201 l 257
 1004 201 l 257
1520 1541 m 257
 333 806 l 257
 576 806 l 257
 1763 1541 l 257
 1520 1541 l 257
335 806 m 257
 931 0 l 257
 1176 0 l 257
 580 806 l 257
 335 806 l 257
EndSplineSet
EndChar

StartChar: afii10058
Encoding: 225 1033 225
GlifName: L_je-cy
Width: 2048
VWidth: 0
GlyphClass: 2
Flags: W
LayerCount: 2
Fore
SplineSet
1921 1548 m 257
 1358 1 l 257
 1558 1 l 257
 2121 1548 l 257
 1921 1548 l 257
1110 1548 m 257
 1038 1348 l 257
 2037 1348 l 257
 2109 1548 l 257
 1110 1548 l 257
1100 1548 m 257
 227 0 l 257
 427 0 l 257
 1300 1548 l 257
 1100 1548 l 257
106 201 m 257
 33 1 l 257
 427 1 l 257
 500 201 l 257
 106 201 l 257
1631 200 m 257
 1558 0 l 257
 1952 0 l 257
 2025 200 l 257
 1631 200 l 257
1843 780 m 257
 1770 580 l 257
 2164 580 l 257
 2237 780 l 257
 1843 780 l 257
1746 1 m 257
 1949 1 l 257
 2209 695 l 257
 2006 695 l 257
 1746 1 l 257
EndSplineSet
EndChar

StartChar: afii10059
Encoding: 226 1034 226
GlifName: N_je-cy
Width: 2048
VWidth: 0
GlyphClass: 2
Flags: W
LayerCount: 2
Fore
SplineSet
596 1545 m 257
 34 0 l 257
 234 0 l 257
 796 1545 l 257
 596 1545 l 257
1518 1545 m 257
 956 0 l 257
 1156 0 l 257
 1718 1545 l 257
 1518 1545 l 257
391 923 m 257
 318 723 l 257
 2187 723 l 257
 2260 923 l 257
 391 923 l 257
2150 924 m 257
 1814 1 l 257
 2014 0 l 257
 2350 923 l 257
 2150 924 l 257
1080 200 m 257
 1007 0 l 257
 2014 0 l 257
 2087 200 l 257
 1080 200 l 257
EndSplineSet
EndChar

StartChar: afii10060
Encoding: 227 1035 227
GlifName: T_she-cy
Width: 2048
VWidth: 0
GlyphClass: 2
Flags: W
LayerCount: 2
Fore
SplineSet
612 1548 m 257
 539 1348 l 257
 2095 1348 l 257
 2168 1548 l 257
 612 1548 l 257
1307 1544 m 257
 745 -1 l 257
 945 -1 l 257
 1507 1544 l 257
 1307 1544 l 257
1190 994 m 257
 1117 794 l 257
 2242 794 l 257
 2315 994 l 257
 1190 994 l 257
2113 989 m 257
 1753 0 l 257
 1953 0 l 257
 2313 989 l 257
 2113 989 l 257
EndSplineSet
EndChar

StartChar: afii10066
Encoding: 231 1073 231
GlifName: be-cy
Width: 2048
VWidth: 0
GlyphClass: 2
Flags: W
AnchorPoint: "base" 1108 -57 basechar 0
AnchorPoint: "top" 830 1625 basechar 0
LayerCount: 2
Fore
SplineSet
702 1261 m 257
 143 0 l 257
 342 0 l 257
 901 1261 l 257
 702 1261 l 257
616 1033 m 257
 544 834 l 257
 2070 834 l 257
 2142 1033 l 257
 616 1033 l 257
2082 1033 m 257
 1706 0 l 257
 1905 0 l 257
 2281 1033 l 257
 2082 1033 l 257
343 207 m 257
 268 0 l 257
 1826 0 l 257
 1901 207 l 257
 343 207 l 257
703 1261 m 257
 631 1062 l 257
 2468 1354 l 257
 2540 1553 l 257
 703 1261 l 257
EndSplineSet
EndChar

StartChar: afii10067
Encoding: 232 1074 232
GlifName: ve-cy
Width: 2048
VWidth: 0
GlyphClass: 2
Flags: W
AnchorPoint: "top" 1376 1585 basechar 0
AnchorPoint: "base" 1025 -74 basechar 0
LayerCount: 2
Fore
SplineSet
90 0 m 257
 298 0 l 257
 857 1055 l 257
 649 1055 l 257
 90 0 l 257
1922 849 m 257
 2286 657 l 257
 2368 883 l 257
 1997 1055 l 257
 1922 849 l 257
1736 526 m 257
 2287 659 l 257
 2368 883 l 257
 1810 729 l 257
 1736 526 l 257
1453 201 m 257
 1380 0 l 257
 2066 160 l 257
 2148 384 l 257
 1453 201 l 257
1652 309 m 257
 2066 160 l 257
 2147 382 l 257
 1725 508 l 257
 1652 309 l 257
624 729 m 257
 550 526 l 257
 1736 526 l 257
 1810 729 l 257
 624 729 l 257
529 508 m 257
 456 309 l 257
 1652 309 l 257
 1725 508 l 257
 529 508 l 257
261 200 m 257
 188 0 l 257
 1380 0 l 257
 1453 200 l 257
 261 200 l 257
809 1055 m 257
 734 849 l 257
 1922 849 l 257
 1997 1055 l 257
 809 1055 l 257
EndSplineSet
EndChar

StartChar: afii10068
Encoding: 233 1075 233
GlifName: ge-cy
Width: 2048
VWidth: 0
GlyphClass: 2
Flags: W
LayerCount: 2
Fore
SplineSet
478 1021 m 257
 406 821 l 257
 2204 821 l 257
 2276 1021 l 257
 478 1021 l 257
442 909 m 257
 131.184 6 l 257
 331.184 6 l 257
 642 909 l 257
 442 909 l 257
EndSplineSet
EndChar

StartChar: afii10069
Encoding: 234 1076 234
GlifName: de-cy
Width: 2048
VWidth: 0
GlyphClass: 2
Flags: W
LayerCount: 2
Fore
SplineSet
92 203 m 257
 19 3 l 257
 2017 3 l 257
 2090 203 l 257
 92 203 l 257
76 159 m 257
 -127 -405 l 257
 73 -405 l 257
 276 159 l 257
 76 159 l 257
1874 159 m 257
 1666 -412 l 257
 1866 -412 l 257
 2074 159 l 257
 1874 159 l 257
1995 916 m 257
 1520 132 l 257
 1720 132 l 257
 2195 916 l 257
 1995 916 l 257
1244 1018 m 257
 1171 818 l 257
 2159 818 l 257
 2232 1018 l 257
 1244 1018 l 257
1224 1019 m 257
 302 185 l 257
 502 185 l 257
 1424 1019 l 257
 1224 1019 l 257
EndSplineSet
EndChar

StartChar: afii10072
Encoding: 237 1078 237
GlifName: zhe-cy
Width: 2048
VWidth: 0
GlyphClass: 2
Flags: W
AnchorPoint: "base" 1030 -39 basechar 0
AnchorPoint: "top" 236 1629 basechar 0
LayerCount: 2
Fore
SplineSet
1479 1022 m 257
 922 5 l 257
 1123 5 l 257
 1680 1022 l 257
 1479 1022 l 257
1329 613 m 257
 1388 449 l 257
 2489 1014 l 257
 2222 1014 l 257
 1329 613 l 257
1385 548 m 257
 1192 393 l 257
 1704 0 l 257
 1985 0 l 257
 1385 548 l 257
1401 613 m 257
 921 1014 l 257
 654 1014 l 257
 1222 449 l 257
 1401 613 l 257
1231 474 m 257
 44 0 l 257
 325 0 l 257
 1312 319 l 257
 1231 474 l 257
EndSplineSet
EndChar

StartChar: afii10073
Encoding: 238 1079 238
GlifName: ze-cy
Width: 2048
VWidth: 0
GlyphClass: 2
Flags: W
LayerCount: 2
Fore
SplineSet
574 1018 m 257
 505 818 l 257
 2321 818 l 257
 2424 1018 l 257
 574 1018 l 257
574 1018 m 257
 451 752 l 257
 651 752 l 257
 774 1018 l 257
 574 1018 l 257
2220 1006 m 257
 1977 570 l 257
 2177 570 l 257
 2420 1006 l 257
 2220 1006 l 257
1920 412 m 257
 1664 7 l 257
 1864 7 l 257
 2120 412 l 257
 1920 412 l 257
87 200 m 257
 14 0 l 257
 1857 0 l 257
 1930 200 l 257
 87 200 l 257
154 288 m 257
 10 0 l 257
 210 0 l 257
 354 288 l 257
 154 288 l 257
736 594 m 257
 663 394 l 257
 1960 394 l 257
 2033 594 l 257
 736 594 l 257
EndSplineSet
EndChar

StartChar: afii10074
Encoding: 239 1080 239
GlifName: ii-cy
Width: 2048
VWidth: 0
GlyphClass: 2
Flags: W
AnchorPoint: "top" 1641 1100 basechar 0
LayerCount: 2
Fore
SplineSet
412 1019 m 257
 34 0 l 257
 234 0 l 257
 612 1019 l 257
 412 1019 l 257
2191 1019 m 257
 1813 0 l 257
 2013 0 l 257
 2391 1019 l 257
 2191 1019 l 257
2191 1019 m 257
 34 0 l 257
 234 0 l 257
 2392 1019 l 257
 2191 1019 l 257
EndSplineSet
EndChar

StartChar: afii10077
Encoding: 242 1083 242
GlifName: el-cy
Width: 2048
VWidth: 0
GlyphClass: 2
Flags: W
LayerCount: 2
Fore
SplineSet
2200 1021 m 257
 1637 1 l 257
 1837 1 l 257
 2400 1021 l 257
 2200 1021 l 257
999 1021 m 257
 842 821 l 257
 2231 821 l 257
 2388 1021 l 257
 999 1021 l 257
989 1021 m 257
 342 0 l 257
 542 0 l 257
 1189 1021 l 257
 989 1021 l 257
106 201 m 257
 33 1 l 257
 542 1 l 257
 615 201 l 257
 106 201 l 257
EndSplineSet
EndChar

StartChar: afii10078
Encoding: 243 1084 243
GlifName: em-cy
Width: 2048
VWidth: 0
GlyphClass: 2
Flags: W
AnchorPoint: "base" 1019 -30 basechar 0
AnchorPoint: "top" 1623 1635 basechar 0
LayerCount: 2
Fore
SplineSet
529 1009 m 257
 138 0 l 257
 340 0 l 257
 731 1009 l 257
 529 1009 l 257
2095 1009 m 257
 1708 0 l 257
 1910 0 l 257
 2297 1009 l 257
 2095 1009 l 257
522 890 m 257
 1057 296 l 257
 1245 296 l 257
 707 1009 l 257
 522 890 l 257
2123 1009 m 257
 1052 288 l 257
 1240 288 l 257
 2272 949 l 257
 2123 1009 l 257
EndSplineSet
EndChar

StartChar: afii10079
Encoding: 244 1085 244
GlifName: en-cy
Width: 2048
VWidth: 0
GlyphClass: 2
Flags: W
AnchorPoint: "top" 1696 1638 basechar 0
AnchorPoint: "base" 1026 -45 basechar 0
LayerCount: 2
Fore
SplineSet
533 1019 m 257
 126 0 l 257
 326 0 l 257
 733 1019 l 257
 533 1019 l 257
2119 1019 m 257
 1712 0 l 257
 1922 0 l 257
 2329 1019 l 257
 2119 1019 l 257
485 646 m 257
 411 441 l 257
 1957 441 l 257
 2031 646 l 257
 485 646 l 257
EndSplineSet
EndChar

StartChar: afii10081
Encoding: 246 1087 246
GlifName: uni043F_
Width: 2048
VWidth: 0
GlyphClass: 2
Flags: W
LayerCount: 2
Fore
SplineSet
481 1018 m 257
 110 0 l 257
 311 0 l 257
 682 1018 l 257
 481 1018 l 257
2102 1018 m 257
 1731 0 l 257
 1934 0 l 257
 2305 1018 l 257
 2102 1018 l 257
545 1018 m 257
 473 818 l 257
 2140 818 l 257
 2212 1018 l 257
 545 1018 l 257
EndSplineSet
EndChar

StartChar: afii10084
Encoding: 249 1090 249
GlifName: te-cy
Width: 2048
VWidth: 0
GlyphClass: 2
Flags: W
AnchorPoint: "top" 1582 1604 basechar 0
AnchorPoint: "base" 1013 -120 basechar 0
LayerCount: 2
Fore
SplineSet
485 1021 m 257
 413 821 l 257
 2211 821 l 257
 2283 1021 l 257
 485 1021 l 257
1244 909 m 257
 866 6 l 257
 1066 6 l 257
 1444 909 l 257
 1244 909 l 257
EndSplineSet
EndChar

StartChar: afii10086
Encoding: 251 1092 251
GlifName: ef-cy
Width: 2048
VWidth: 0
GlyphClass: 2
Flags: W
LayerCount: 2
Fore
SplineSet
1394 1541 m 257
 838 -430 l 257
 1037 -430 l 257
 1593 1541 l 257
 1394 1541 l 257
466 1015 m 257
 131 0 l 257
 332 0 l 257
 667 1015 l 257
 466 1015 l 257
2087 1015 m 257
 1752 0 l 257
 1955 0 l 257
 2290 1015 l 257
 2087 1015 l 257
530 1015 m 257
 457 815 l 257
 2124 815 l 257
 2197 1015 l 257
 530 1015 l 257
245 204 m 257
 171 0 l 257
 1868 0 l 257
 1942 204 l 257
 245 204 l 257
EndSplineSet
EndChar

StartChar: afii10088
Encoding: 253 1094 253
GlifName: tse-cy
Width: 2048
VWidth: 0
GlyphClass: 2
Flags: W
LayerCount: 2
Fore
SplineSet
425 1024 m 257
 36 3 l 257
 236 3 l 257
 625 1024 l 257
 425 1024 l 257
2022 1029 m 257
 1630 0 l 257
 1830 0 l 257
 2222 1029 l 257
 2022 1029 l 257
117 200 m 257
 44 0 l 257
 1830 0 l 257
 1903 200 l 257
 117 200 l 257
1898 198 m 257
 1680 -401 l 257
 1879 -401 l 257
 2097 198 l 257
 1898 198 l 257
EndSplineSet
EndChar

StartChar: afii10089
Encoding: 254 1095 254
GlifName: che-cy
Width: 2048
VWidth: 0
GlyphClass: 2
Flags: W
LayerCount: 2
Fore
SplineSet
2109 1024 m 257
 1710 -1 l 257
 1910 -1 l 257
 2309 1024 l 257
 2109 1024 l 257
489 1024 m 257
 135 286 l 257
 335 286 l 257
 689 1024 l 257
 489 1024 l 257
390 486 m 257
 335 285 l 257
 1973 402 l 257
 2029 603 l 257
 390 486 l 257
EndSplineSet
EndChar

StartChar: afii10090
Encoding: 255 1096 255
GlifName: sha-cy
Width: 2048
VWidth: 0
GlyphClass: 2
Flags: W
LayerCount: 2
Fore
SplineSet
568 1024 m 257
 133 3 l 257
 333 3 l 257
 768 1024 l 257
 568 1024 l 257
2165 1029 m 257
 1727 0 l 257
 1927 0 l 257
 2365 1029 l 257
 2165 1029 l 257
212 200 m 257
 141 0 l 257
 1884 0 l 257
 1955 200 l 257
 212 200 l 257
1367 1029 m 257
 929 0 l 257
 1129 0 l 257
 1567 1029 l 257
 1367 1029 l 257
EndSplineSet
EndChar

StartChar: afii10091
Encoding: 256 1097 256
GlifName: shcha-cy
Width: 2048
VWidth: 0
GlyphClass: 2
Flags: W
LayerCount: 2
Fore
SplineSet
471 1024 m 257
 36 3 l 257
 236 3 l 257
 671 1024 l 257
 471 1024 l 257
2068 1029 m 257
 1630 0 l 257
 1830 0 l 257
 2268 1029 l 257
 2068 1029 l 257
117 200 m 257
 44 0 l 257
 1830 0 l 257
 1903 200 l 257
 117 200 l 257
1898 198 m 257
 1680 -401 l 257
 1879 -401 l 257
 2097 198 l 257
 1898 198 l 257
1270 1029 m 257
 832 0 l 257
 1032 0 l 257
 1470 1029 l 257
 1270 1029 l 257
EndSplineSet
EndChar

StartChar: afii10092
Encoding: 257 1098 257
GlifName: hardsign-cy
Width: 2048
VWidth: 0
GlyphClass: 2
Flags: W
AnchorPoint: "base" 1108 -57 basechar 0
AnchorPoint: "top" 830 1625 basechar 0
LayerCount: 2
Fore
SplineSet
1218 1013 m 257
 787 0 l 257
 986 0 l 257
 1417 1013 l 257
 1218 1013 l 257
1196 584 m 257
 1124 385 l 257
 2016 385 l 257
 2088 584 l 257
 1196 584 l 257
2028 584 m 257
 1780 0 l 257
 1979 0 l 257
 2227 584 l 257
 2028 584 l 257
987 207 m 257
 912 0 l 257
 1900 0 l 257
 1975 207 l 257
 987 207 l 257
659 1019 m 257
 516 814 l 257
 1218 814 l 257
 1361 1019 l 257
 659 1019 l 257
EndSplineSet
EndChar

StartChar: afii10093
Encoding: 258 1099 258
GlifName: yeru-cy
Width: 2048
VWidth: 0
GlyphClass: 2
Flags: W
AnchorPoint: "base" 1108 -57 basechar 0
AnchorPoint: "top" 830 1625 basechar 0
LayerCount: 2
Fore
SplineSet
431 1017 m 257
 55 0 l 257
 254 0 l 257
 630 1017 l 257
 431 1017 l 257
443 637 m 257
 379 421 l 257
 1474 423 l 257
 1538 639 l 257
 443 637 l 257
1429 641 m 257
 1093 0 l 257
 1292 0 l 257
 1628 641 l 257
 1429 641 l 257
255 207 m 257
 180 0 l 257
 1213 0 l 257
 1288 207 l 257
 255 207 l 257
1995 1020 m 257
 1619 -2 l 257
 1818 -2 l 257
 2194 1020 l 257
 1995 1020 l 257
EndSplineSet
EndChar

StartChar: afii10094
Encoding: 259 1100 259
GlifName: softsign-cy
Width: 2048
VWidth: 0
GlyphClass: 2
Flags: W
AnchorPoint: "base" 1108 -57 basechar 0
AnchorPoint: "top" 830 1625 basechar 0
LayerCount: 2
Fore
SplineSet
489 1017 m 257
 55 0 l 257
 254 0 l 257
 688 1017 l 257
 489 1017 l 257
493 641 m 257
 425 442 l 257
 1991 442 l 257
 2059 641 l 257
 493 641 l 257
1999 641 m 257
 1748 0 l 257
 1947 0 l 257
 2198 641 l 257
 1999 641 l 257
255 207 m 257
 180 0 l 257
 1868 0 l 257
 1943 207 l 257
 255 207 l 257
EndSplineSet
EndChar

StartChar: afii10095
Encoding: 260 1101 260
GlifName: ereversed-cy
Width: 2048
VWidth: 0
GlyphClass: 2
Flags: W
AnchorPoint: "top" 1012 1185 basechar 0
LayerCount: 2
Fore
SplineSet
1482 1024 m 257
 479 1024 l 257
 406 824 l 257
 1409 824 l 257
 1482 1024 l 257
1979 631 m 257
 310 632 l 257
 237 432 l 257
 1909 433 l 257
 1979 631 l 257
1120 201 m 257
 94 201 l 257
 21 1 l 257
 1047 1 l 257
 1120 201 l 257
1481 1023 m 257
 1085 1014 l 257
 1890 540 l 257
 2133 540 l 257
 1481 1023 l 257
2131 540 m 257
 1886 540 l 257
 671 3 l 257
 1046 0 l 257
 2131 540 l 257
EndSplineSet
EndChar

StartChar: afii10096
Encoding: 261 1102 261
GlifName: yu-cy
Width: 2048
VWidth: 0
GlyphClass: 2
Flags: W
AnchorPoint: "top" 1700 1633 basechar 0
AnchorPoint: "base" 1023 -119 basechar 0
LayerCount: 2
Fore
SplineSet
1205 1013 m 257
 849 0 l 257
 1050 0 l 257
 1406 1013 l 257
 1205 1013 l 257
2052 1013 m 257
 1696 0 l 257
 1899 0 l 257
 2255 1013 l 257
 2052 1013 l 257
1269 1013 m 257
 1197 813 l 257
 2090 813 l 257
 2162 1013 l 257
 1269 1013 l 257
963 204 m 257
 889 0 l 257
 1812 0 l 257
 1886 204 l 257
 963 204 l 257
420 1018 m 257
 64 5 l 257
 265 5 l 257
 621 1018 l 257
 420 1018 l 257
342 617 m 257
 313 417 l 257
 1108 417 l 257
 1136 617 l 257
 342 617 l 257
EndSplineSet
EndChar

StartChar: afii10097
Encoding: 262 1103 262
GlifName: ya-cy
Width: 2048
VWidth: 0
GlyphClass: 2
Flags: W
AnchorPoint: "base" 1037 -69 basechar 0
AnchorPoint: "top" 1007 1601 basechar 0
LayerCount: 2
Fore
SplineSet
2313 1013 m 257
 1946 0 l 257
 1745 0 l 257
 2112 1013 l 257
 2313 1013 l 257
2234 1013 m 257
 2161 811 l 257
 505 811 l 257
 578 1013 l 257
 2234 1013 l 257
751 1013 m 257
 509 394 l 257
 309 394 l 257
 551 1013 l 257
 751 1013 l 257
2084 601 m 257
 2007 390 l 257
 320 390 l 257
 397 601 l 257
 2084 601 l 257
1251 418 m 257
 342 0 l 257
 102 0 l 257
 1051 418 l 257
 1251 418 l 257
EndSplineSet
EndChar

StartChar: afii10098
Encoding: 263 1169 263
GlifName: geupturn-cy
Width: 2048
VWidth: 0
GlyphClass: 2
Flags: W
LayerCount: 2
Fore
SplineSet
688 1023 m 257
 616 823 l 257
 2414 823 l 257
 2486 1023 l 257
 688 1023 l 257
652 911 m 257
 131.184 6 l 257
 331.184 6 l 257
 852 911 l 257
 652 911 l 257
2498 1230 m 257
 2208 824 l 257
 2410 824 l 257
 2700 1230 l 257
 2498 1230 l 257
EndSplineSet
EndChar

StartChar: afii10099
Encoding: 264 1106 264
GlifName: dje-cy
Width: 2048
VWidth: 0
GlyphClass: 2
Flags: W
LayerCount: 2
Fore
SplineSet
586 1369 m 257
 513 1169 l 257
 2069 1169 l 257
 2142 1369 l 257
 586 1369 l 257
1281 1544 m 257
 719 -1 l 257
 919 -1 l 257
 1481 1544 l 257
 1281 1544 l 257
1164 994 m 257
 1091 794 l 257
 2216 794 l 257
 2289 994 l 257
 1164 994 l 257
2087 989 m 257
 1561 -406 l 257
 1761 -406 l 257
 2287 989 l 257
 2087 989 l 257
1241 -243 m 257
 1168 -443 l 257
 1747 -443 l 257
 1820 -243 l 257
 1241 -243 l 257
EndSplineSet
EndChar

StartChar: afii10101
Encoding: 266 1108 266
GlifName: e-cy
Width: 2048
VWidth: 0
GlyphClass: 2
Flags: W
AnchorPoint: "top" 1960 1173 basechar 0
LayerCount: 2
Fore
SplineSet
1392 1018 m 257
 1334 818 l 257
 2322 818 l 257
 2395 1018 l 257
 1392 1018 l 257
534 598 m 257
 461 398 l 257
 2150 398 l 257
 2223 598 l 257
 534 598 l 257
1004 201 m 257
 931 1 l 257
 1957 1 l 257
 2030 201 l 257
 1004 201 l 257
1392 1018 m 257
 333 506 l 257
 669 506 l 257
 1763 1017 l 257
 1392 1018 l 257
335 506 m 257
 931 0 l 257
 1223 5 l 257
 673 506 l 257
 335 506 l 257
EndSplineSet
EndChar

StartChar: afii10106
Encoding: 271 1113 271
GlifName: lje-cy
Width: 2048
VWidth: 0
GlyphClass: 2
Flags: W
LayerCount: 2
Fore
SplineSet
1793 1024 m 257
 1358 1 l 257
 1558 1 l 257
 1993 1024 l 257
 1793 1024 l 257
982 1024 m 257
 910 824 l 257
 1909 824 l 257
 1981 1024 l 257
 982 1024 l 257
972 1024 m 257
 227 0 l 257
 427 0 l 257
 1172 1024 l 257
 972 1024 l 257
106 201 m 257
 33 1 l 257
 427 1 l 257
 500 201 l 257
 106 201 l 257
1631 200 m 257
 1558 0 l 257
 1952 0 l 257
 2025 200 l 257
 1631 200 l 257
1804 636 m 257
 1731 436 l 257
 2125 436 l 257
 2198 636 l 257
 1804 636 l 257
1746 1 m 257
 1949 1 l 257
 2170 551 l 257
 1967 551 l 257
 1746 1 l 257
EndSplineSet
EndChar

StartChar: afii10107
Encoding: 272 1114 272
GlifName: nje-cy
Width: 2048
VWidth: 0
GlyphClass: 2
Flags: W
LayerCount: 2
Fore
SplineSet
468 1021 m 257
 34 0 l 257
 234 0 l 257
 668 1021 l 257
 468 1021 l 257
1390 1021 m 257
 956 0 l 257
 1156 0 l 257
 1590 1021 l 257
 1390 1021 l 257
263 661 m 257
 190 461 l 257
 2059 461 l 257
 2132 661 l 257
 263 661 l 257
2022 662 m 257
 1814 1 l 257
 2014 0 l 257
 2222 661 l 257
 2022 662 l 257
1080 200 m 257
 1007 0 l 257
 2014 0 l 257
 2087 200 l 257
 1080 200 l 257
EndSplineSet
EndChar

StartChar: afii10108
Encoding: 273 1115 273
GlifName: tshe-cy
Width: 2048
VWidth: 0
GlyphClass: 2
Flags: W
LayerCount: 2
Fore
SplineSet
612 1365 m 257
 539 1165 l 257
 2095 1165 l 257
 2168 1365 l 257
 612 1365 l 257
1307 1544 m 257
 745 -1 l 257
 945 -1 l 257
 1507 1544 l 257
 1307 1544 l 257
1190 994 m 257
 1117 794 l 257
 2242 794 l 257
 2315 994 l 257
 1190 994 l 257
2113 989 m 257
 1753 0 l 257
 1953 0 l 257
 2313 989 l 257
 2113 989 l 257
EndSplineSet
EndChar

StartChar: afii10145
Encoding: 276 1039 276
GlifName: D_zhe-cy
Width: 2048
VWidth: 0
GlyphClass: 2
Flags: W
LayerCount: 2
Fore
SplineSet
589 1466 m 257
 62 18 l 257
 262 18 l 257
 789 1466 l 257
 589 1466 l 257
2314 1470 m 257
 1780 3 l 257
 1980 3 l 257
 2514 1470 l 257
 2314 1470 l 257
128 200 m 257
 55 0 l 257
 1979 0 l 257
 2052 200 l 257
 128 200 l 257
946 79 m 257
 770 -405 l 257
 970 -405 l 257
 1146 79 l 257
 946 79 l 257
EndSplineSet
EndChar

StartChar: afii10146
Encoding: 277 1122 277
GlifName: Y_at-cy
Width: 2048
VWidth: 0
GlyphClass: 2
Flags: W
AnchorPoint: "base" 1108 -57 basechar 0
AnchorPoint: "top" 830 1625 basechar 0
LayerCount: 2
Fore
SplineSet
1314 1537 m 257
 755 0 l 257
 954 0 l 257
 1513 1537 l 257
 1314 1537 l 257
1228 808 m 257
 1156 609 l 257
 2112 609 l 257
 2184 808 l 257
 1228 808 l 257
2124 808 m 257
 1748 0 l 257
 1947 0 l 257
 2323 808 l 257
 2124 808 l 257
955 207 m 257
 880 0 l 257
 1868 0 l 257
 1943 207 l 257
 955 207 l 257
822 1279 m 257
 582 1074 l 257
 1762 1074 l 257
 2002 1279 l 257
 822 1279 l 257
EndSplineSet
EndChar

StartChar: afii10148
Encoding: 279 1140 279
GlifName: I_zhitsa-cy
Width: 2048
VWidth: 0
GlyphClass: 2
Flags: W
AnchorPoint: "top" 1584 1639 basechar 0
AnchorPoint: "base" 1041 -60 basechar 0
LayerCount: 2
Fore
SplineSet
681 1548 m 257
 890 0 l 257
 1112 0 l 257
 883 1548 l 257
 681 1548 l 257
2291 1548 m 257
 1016 0 l 257
 1238 0 l 257
 2493 1548 l 257
 2291 1548 l 257
2288 1534 m 257
 2495 1411 l 257
 2579 1550 l 257
 2403 1657 l 257
 2288 1534 l 257
EndSplineSet
EndChar

StartChar: afii10193
Encoding: 280 1119 280
GlifName: dzhe-cy
Width: 2048
VWidth: 0
GlyphClass: 2
Flags: W
LayerCount: 2
Fore
SplineSet
589 942 m 257
 62 18 l 257
 262 18 l 257
 789 942 l 257
 589 942 l 257
2314 946 m 257
 1780 3 l 257
 1980 3 l 257
 2514 946 l 257
 2314 946 l 257
128 200 m 257
 55 0 l 257
 1979 0 l 257
 2052 200 l 257
 128 200 l 257
946 79 m 257
 770 -405 l 257
 970 -405 l 257
 1146 79 l 257
 946 79 l 257
EndSplineSet
EndChar

StartChar: afii10194
Encoding: 281 1123 281
GlifName: yat-cy
Width: 2048
VWidth: 0
GlyphClass: 2
Flags: W
AnchorPoint: "base" 1108 -57 basechar 0
AnchorPoint: "top" 830 1625 basechar 0
LayerCount: 2
Fore
SplineSet
1314 1287 m 257
 755 0 l 257
 954 0 l 257
 1513 1287 l 257
 1314 1287 l 257
1115 558 m 257
 1032 359 l 257
 1950 359 l 257
 2032 558 l 257
 1115 558 l 257
1972 558 m 257
 1748 0 l 257
 1947 0 l 257
 2171 558 l 257
 1972 558 l 257
955 207 m 257
 880 0 l 257
 1868 0 l 257
 1902 203 l 257
 955 207 l 257
822 1029 m 257
 582 824 l 257
 1762 824 l 257
 2002 1029 l 257
 822 1029 l 257
EndSplineSet
EndChar

StartChar: afii10196
Encoding: 283 1141 283
GlifName: izhitsa-cy
Width: 2048
VWidth: 0
GlyphClass: 2
Flags: W
AnchorPoint: "top" 1584 1639 basechar 0
AnchorPoint: "base" 1041 -60 basechar 0
LayerCount: 2
Fore
SplineSet
425 1024 m 257
 890 0 l 257
 1112 0 l 257
 627 1024 l 257
 425 1024 l 257
2035 1024 m 257
 1016 0 l 257
 1238 0 l 257
 2237 1024 l 257
 2035 1024 l 257
2017 815 m 257
 2275 819 l 257
 2312 1026 l 257
 2036 1025 l 257
 2017 815 l 257
EndSplineSet
EndChar

StartChar: afii57636
Encoding: 286 8362 286
GlifName: sheqel
Width: 2048
VWidth: 0
GlyphClass: 2
Flags: W
LayerCount: 2
Fore
SplineSet
1186 1534 m 257
 629 4 l 257
 791 4 l 257
 1348 1534 l 257
 1186 1534 l 257
1187 1538 m 257
 1130 1381 l 257
 1601 1381 l 257
 1658 1538 l 257
 1187 1538 l 257
1573 1538 m 257
 1596 1278 l 257
 1743 1277 l 257
 1726 1538 l 257
 1573 1538 l 257
1596 1278 m 257
 1379 673 l 257
 1523 673 l 257
 1743 1277 l 257
 1596 1278 l 257
1481 8 m 257
 2038 1538 l 257
 1876 1538 l 257
 1319 8 l 257
 1481 8 l 257
1480 4 m 257
 1537 161 l 257
 1066 161 l 257
 1009 4 l 257
 1480 4 l 257
1094 4 m 257
 1072 264 l 257
 924 265 l 257
 941 4 l 257
 1094 4 l 257
1072 264 m 257
 1288 869 l 257
 1144 869 l 257
 924 265 l 257
 1072 264 l 257
EndSplineSet
EndChar

StartChar: afii61289
Encoding: 289 8467 289
GlifName: literS_ign
Width: 2048
VWidth: 0
GlyphClass: 2
Flags: W
LayerCount: 2
Fore
SplineSet
749 290 m 257
 676 90 l 257
 1061 9 l 257
 1134 209 l 257
 749 290 l 257
1204 1548 m 257
 672 86 l 257
 872 86 l 257
 1404 1548 l 257
 1204 1548 l 257
1347 1549 m 257
 1268 1340 l 257
 1517 1335 l 257
 1596 1544 l 257
 1347 1549 l 257
1597 1545 m 257
 691 123 l 257
 864 70 l 257
 1771 1492 l 257
 1597 1545 l 257
EndSplineSet
EndChar

StartChar: alpha
Encoding: 293 945 293
GlifName: alpha
Width: 2048
VWidth: 0
GlyphClass: 2
Flags: W
LayerCount: 2
Fore
SplineSet
546 1023 m 257
 474 826 l 257
 1409 826 l 257
 1481 1023 l 257
 546 1023 l 257
531 984 m 257
 173 0 l 257
 375 0 l 257
 733 984 l 257
 531 984 l 257
352 201 m 257
 279 0 l 257
 1131 5 l 257
 1204 206 l 257
 352 201 l 257
1842 -20 m 257
 2053 65 l 257
 1482 1024 l 257
 1271 939 l 257
 1842 -20 l 257
1133 3 m 257
 2371 939 l 257
 2222 1024 l 257
 984 88 l 257
 1133 3 l 257
EndSplineSet
EndChar

StartChar: ampersand
Encoding: 296 38 296
GlifName: ampersand
Width: 2048
VWidth: 0
GlyphClass: 2
Flags: W
LayerCount: 2
Fore
SplineSet
1331 1537 m 257
 1635 12 l 257
 1797 56 l 257
 1493 1537 l 257
 1331 1537 l 257
2237 1401 m 257
 2286 1537 l 257
 1409 1537 l 257
 1360 1401 l 257
 2237 1401 l 257
2093 1446 m 257
 1901 917 l 257
 2061 917 l 257
 2253 1446 l 257
 2093 1446 l 257
737 1045 m 257
 664 843 l 257
 2034 843 l 257
 2107 1045 l 257
 737 1045 l 257
737 1045 m 257
 366 24 l 257
 576 24 l 257
 947 1045 l 257
 737 1045 l 257
426 190 m 257
 359 6 l 257
 1841 6 l 257
 1908 190 l 257
 426 190 l 257
EndSplineSet
EndChar

StartChar: approxequal
Encoding: 299 8776 299
GlifName: approxequal
Width: 2048
VWidth: 0
GlyphClass: 2
Flags: W
LayerCount: 2
Fore
SplineSet
934 559 m 257
 898 395 l 257
 1576 334 l 257
 1612 498 l 257
 934 559 l 257
437 501 m 257
 432 338 l 257
 898 395 l 257
 934 559 l 257
 437 501 l 257
1612 498 m 257
 1576 334 l 257
 1990 475 l 257
 1976 636 l 257
 1612 498 l 257
1028 898 m 257
 992 716 l 257
 1669 655 l 257
 1705 837 l 257
 1028 898 l 257
531 840 m 257
 525 659 l 257
 992 716 l 257
 1028 898 l 257
 531 840 l 257
1705 837 m 257
 1669 655 l 257
 2083 796 l 257
 2070 975 l 257
 1705 837 l 257
EndSplineSet
EndChar

StartChar: arrowboth
Encoding: 302 8596 302
GlifName: leftR_ightA_rrow
Width: 2048
VWidth: 0
GlyphClass: 2
Flags: W
LayerCount: 2
Fore
SplineSet
645 855 m 257
 645 644 l 257
 1358 644 l 257
 1358 855 l 257
 645 855 l 257
748 1076 m 257
 578 744 l 257
 763 744 l 257
 934 1076 l 257
 748 1076 l 257
578 744 m 257
 764 411 l 257
 948 411 l 257
 764 744 l 257
 578 744 l 257
1341 414 m 257
 1512 746 l 257
 1327 746 l 257
 1156 414 l 257
 1341 414 l 257
1525 746 m 257
 1339 1079 l 257
 1154 1079 l 257
 1339 746 l 257
 1525 746 l 257
EndSplineSet
EndChar

StartChar: arrowdown
Encoding: 303 8595 303
GlifName: downA_rrow
Width: 2048
VWidth: 0
GlyphClass: 2
Flags: W
LayerCount: 2
Fore
SplineSet
1046 82 m 257
 1257 5 l 257
 1257 1630 l 257
 1046 1707 l 257
 1046 82 l 257
825 411 m 257
 1157 -190 l 257
 1157 52 l 257
 825 653 l 257
 825 411 l 257
1157 -190 m 257
 1490 188 l 257
 1490 430 l 257
 1157 53 l 257
 1157 -190 l 257
EndSplineSet
EndChar

StartChar: arrowleft
Encoding: 304 8592 304
GlifName: leftA_rrow
Width: 2048
VWidth: 0
GlyphClass: 2
Flags: W
LayerCount: 2
Fore
SplineSet
481 870 m 257
 404 659 l 257
 2029 659 l 257
 2106 870 l 257
 481 870 l 257
810 1091 m 257
 209 759 l 257
 451 759 l 257
 1052 1091 l 257
 810 1091 l 257
209 759 m 257
 587 426 l 257
 829 426 l 257
 452 759 l 257
 209 759 l 257
EndSplineSet
EndChar

StartChar: arrowright
Encoding: 305 8594 305
GlifName: rightA_rrow
Width: 2048
VWidth: 0
GlyphClass: 2
Flags: W
LayerCount: 2
Fore
SplineSet
1834 647 m 257
 1911 858 l 257
 286 858 l 257
 209 647 l 257
 1834 647 l 257
1505 426 m 257
 2106 758 l 257
 1864 758 l 257
 1263 426 l 257
 1505 426 l 257
2106 758 m 257
 1728 1091 l 257
 1486 1091 l 257
 1863 758 l 257
 2106 758 l 257
EndSplineSet
EndChar

StartChar: arrowup
Encoding: 306 8593 306
GlifName: upA_rrow
Width: 2048
VWidth: 0
GlyphClass: 2
Flags: W
LayerCount: 2
Fore
SplineSet
1269 1435 m 257
 1058 1512 l 257
 1058 -113 l 257
 1269 -190 l 257
 1269 1435 l 257
1490 1106 m 257
 1158 1707 l 257
 1158 1465 l 257
 1490 864 l 257
 1490 1106 l 257
1158 1707 m 257
 825 1329 l 257
 825 1087 l 257
 1158 1464 l 257
 1158 1707 l 257
EndSplineSet
EndChar

StartChar: arrowupdn
Encoding: 307 8597 307
GlifName: upD_ownA_rrow
Width: 2048
VWidth: 0
GlyphClass: 2
Flags: W
LayerCount: 2
Fore
SplineSet
1129 1277 m 257
 918 1277 l 257
 918 344 l 257
 1129 344 l 257
 1129 1277 l 257
1350 1141 m 257
 1018 1365 l 257
 1018 1123 l 257
 1350 899 l 257
 1350 1141 l 257
1018 1365 m 257
 685 1122 l 257
 685 880 l 257
 1018 1122 l 257
 1018 1365 l 257
688 366 m 257
 1020 142 l 257
 1020 384 l 257
 688 608 l 257
 688 366 l 257
1020 125 m 257
 1353 368 l 257
 1353 610 l 257
 1020 368 l 257
 1020 125 l 257
EndSplineSet
EndChar

StartChar: asciicircum
Encoding: 308 94 308
GlifName: asciicircum
Width: 2048
VWidth: 0
GlyphClass: 2
Flags: W
LayerCount: 2
Fore
SplineSet
1472 1023 m 257
 1322 1023 l 257
 834 407 l 257
 962 345 l 257
 1472 1023 l 257
1285 904 m 257
 1337 343 l 257
 1508 400 l 257
 1472 1023 l 257
 1285 904 l 257
EndSplineSet
EndChar

StartChar: asciitilde
Encoding: 309 126 309
GlifName: asciitilde
Width: 2048
VWidth: 0
GlyphClass: 2
Flags: W
LayerCount: 2
Fore
SplineSet
1175 815 m 257
 1139 655 l 257
 1466 594 l 257
 1502 754 l 257
 1175 815 l 257
916 757 m 257
 894 598 l 257
 1139 655 l 257
 1175 815 l 257
 916 757 l 257
1502 754 m 257
 1466 594 l 257
 1698 735 l 257
 1709 892 l 257
 1502 754 l 257
EndSplineSet
EndChar

StartChar: asterisk
Encoding: 310 42 310
GlifName: asterisk
Width: 2048
VWidth: 0
GlyphClass: 2
Flags: W
LayerCount: 2
Fore
SplineSet
1406 1297 m 257
 1043 300 l 257
 1273 300 l 257
 1636 1297 l 257
 1406 1297 l 257
977 1099 m 257
 1436 360 l 257
 1647 504 l 257
 1184 1241 l 257
 977 1099 l 257
1777 1232 m 257
 797 525 l 257
 883 372 l 257
 1864 1079 l 257
 1777 1232 l 257
EndSplineSet
EndChar

StartChar: at
Encoding: 311 64 311
GlifName: at
Width: 2048
VWidth: 0
GlyphClass: 2
Flags: W
LayerCount: 2
Fore
SplineSet
985 1023 m 257
 933 879 l 257
 1752 879 l 257
 1804 1023 l 257
 985 1023 l 257
1364 592 m 257
 1149 0 l 257
 1302 0 l 257
 1517 592 l 257
 1364 592 l 257
1034 600 m 257
 978 444 l 257
 1403 444 l 257
 1459 600 l 257
 1034 600 l 257
1027 589 m 257
 817 12 l 257
 991 12 l 257
 1201 589 l 257
 1027 589 l 257
879 188 m 257
 811 0 l 257
 1305 0 l 257
 1373 188 l 257
 879 188 l 257
897 1023 m 257
 444 -223 l 257
 620 -223 l 257
 1073 1023 l 257
 897 1023 l 257
492 -86 m 257
 429 -258 l 257
 1377 -258 l 257
 1440 -86 l 257
 492 -86 l 257
1742 1011 m 257
 1374 0 l 257
 1525 0 l 257
 1893 1011 l 257
 1742 1011 l 257
1310 175 m 257
 1246 0 l 257
 1455 0 l 257
 1519 175 l 257
 1310 175 l 257
EndSplineSet
EndChar

StartChar: b
Encoding: 313 98 313
GlifName: b
Width: 2048
VWidth: 0
GlyphClass: 2
Flags: W
AnchorPoint: "base" 1108 -57 basechar 0
AnchorPoint: "top" 830 1625 basechar 0
LayerCount: 2
Fore
SplineSet
702 1537 m 257
 143 0 l 257
 342 0 l 257
 901 1537 l 257
 702 1537 l 257
616 1033 m 257
 544 834 l 257
 2070 834 l 257
 2142 1033 l 257
 616 1033 l 257
2082 1033 m 257
 1706 0 l 257
 1905 0 l 257
 2281 1033 l 257
 2082 1033 l 257
343 207 m 257
 268 0 l 257
 1826 0 l 257
 1901 207 l 257
 343 207 l 257
EndSplineSet
EndChar

StartChar: backslash
Encoding: 314 92 314
GlifName: backslash
Width: 2048
VWidth: 0
GlyphClass: 2
Flags: W
LayerCount: 2
Fore
SplineSet
1139 1441 m 257
 1237 -13 l 257
 1457 65 l 257
 1360 1519 l 257
 1139 1441 l 257
EndSplineSet
EndChar

StartChar: bar
Encoding: 315 124 315
GlifName: bar
Width: 2048
VWidth: 0
GlyphClass: 2
Flags: W
LayerCount: 2
Fore
SplineSet
1444 1435 m 257
 889 -90 l 257
 1093 -90 l 257
 1648 1435 l 257
 1444 1435 l 257
EndSplineSet
EndChar

StartChar: beta
Encoding: 316 946 316
GlifName: beta
Width: 2048
VWidth: 0
GlyphClass: 2
Flags: W
LayerCount: 2
Fore
SplineSet
456 1505 m 257
 -258 -457 l 257
 -58 -457 l 257
 656 1505 l 257
 456 1505 l 257
472 1547 m 257
 399 1347 l 257
 2211 1252 l 257
 2284 1452 l 257
 472 1547 l 257
2084 1453 m 257
 1556 2 l 257
 1756 2 l 257
 2284 1453 l 257
 2084 1453 l 257
242 916 m 257
 169 716 l 257
 2016 716 l 257
 2089 916 l 257
 242 916 l 257
786 202 m 257
 713 2 l 257
 1756 2 l 257
 1829 202 l 257
 786 202 l 257
EndSplineSet
EndChar

StartChar: braceleft
Encoding: 317 123 317
GlifName: braceleft
Width: 2048
VWidth: 0
GlyphClass: 2
Flags: W
LayerCount: 2
Fore
SplineSet
1587 1548 m 257
 1329 838 l 257
 1475 838 l 257
 1733 1548 l 257
 1587 1548 l 257
1190 424 m 257
 932 -286 l 257
 1078 -286 l 257
 1336 424 l 257
 1190 424 l 257
986 690 m 257
 964 630 l 257
 1475 838 l 257
 1329 838 l 257
 986 690 l 257
986 690 m 257
 964 630 l 257
 1189 425 l 257
 1338 425 l 257
 986 690 l 257
1608 1603 m 257
 1553 1452 l 257
 1866 1574 l 257
 1880 1603 l 257
 1608 1603 l 257
986 -140 m 257
 933 -287 l 257
 1209 -287 l 257
 1213 -274 l 257
 986 -140 l 257
EndSplineSet
EndChar

StartChar: braceright
Encoding: 318 125 318
GlifName: braceright
Width: 2048
VWidth: 0
GlyphClass: 2
Flags: W
LayerCount: 2
Fore
SplineSet
1603 1548 m 257
 1441 1548 l 257
 1183 838 l 257
 1341 838 l 257
 1603 1548 l 257
1180 424 m 257
 1020 424 l 257
 762 -286 l 257
 922 -286 l 257
 1180 424 l 257
1564 690 m 257
 1340 838 l 257
 1179 838 l 257
 1542 630 l 257
 1564 690 l 257
1564 690 m 257
 1020 424 l 257
 1180 424 l 257
 1542 630 l 257
 1564 690 l 257
1624 1603 m 257
 1349 1603 l 257
 1343 1574 l 257
 1566 1452 l 257
 1624 1603 l 257
960 -140 m 257
 635 -274 l 257
 632 -284 l 257
 908 -284 l 257
 960 -140 l 257
EndSplineSet
EndChar

StartChar: bracketleft
Encoding: 319 91 319
GlifName: bracketleft
Width: 2048
VWidth: 0
GlyphClass: 2
Flags: W
LayerCount: 2
Fore
SplineSet
1451 1542 m 257
 802 -242 l 257
 924 -242 l 257
 1573 1542 l 257
 1451 1542 l 257
1506 1543 m 257
 1459 1416 l 257
 1668 1416 l 257
 1715 1543 l 257
 1506 1543 l 257
911 -91 m 257
 856 -242 l 257
 1070 -242 l 257
 1125 -91 l 257
 911 -91 l 257
EndSplineSet
EndChar

StartChar: bracketright
Encoding: 320 93 320
GlifName: bracketright
Width: 2048
VWidth: 0
GlyphClass: 2
Flags: W
LayerCount: 2
Fore
SplineSet
1597 1542 m 257
 948 -242 l 257
 1070 -242 l 257
 1719 1542 l 257
 1597 1542 l 257
1448 1543 m 257
 1401 1416 l 257
 1609 1416 l 257
 1656 1543 l 257
 1448 1543 l 257
853 -91 m 257
 798 -242 l 257
 1012 -242 l 257
 1067 -91 l 257
 853 -91 l 257
EndSplineSet
EndChar

StartChar: breve
Encoding: 321 728 321
GlifName: breve
Width: 2048
VWidth: 0
GlyphClass: 2
Flags: W
LayerCount: 2
Fore
SplineSet
1665 1548 m 257
 1641 1480 l 257
 1830 1548 l 257
 1866 1645 l 257
 1665 1548 l 257
1341 1548 m 257
 1317 1480 l 257
 1641 1480 l 257
 1665 1548 l 257
 1341 1548 l 257
1200 1630 m 257
 1170 1548 l 257
 1317 1480 l 257
 1341 1548 l 257
 1200 1630 l 257
EndSplineSet
EndChar

StartChar: brokenbar
Encoding: 326 166 326
GlifName: brokenbar
Width: 2048
VWidth: 0
GlyphClass: 2
Flags: W
LayerCount: 2
Fore
SplineSet
846 -332 m 257
 956 -332 l 257
 1325 682 l 257
 1215 682 l 257
 846 -332 l 257
1258 790 m 257
 1369 790 l 257
 1676 1636 l 257
 1565 1636 l 257
 1258 790 l 257
EndSplineSet
EndChar

StartChar: bullet
Encoding: 327 8226 327
GlifName: bullet
Width: 2048
VWidth: 0
GlyphClass: 2
Flags: W
LayerCount: 2
Fore
SplineSet
1254 1023 m 257
 1160 765 l 257
 1444 765 l 257
 1538 1023 l 257
 1254 1023 l 257
EndSplineSet
EndChar

StartChar: c
Encoding: 328 99 328
GlifName: c
Width: 2048
VWidth: 0
GlyphClass: 2
Flags: W
AnchorPoint: "base" 1014 -91 basechar 0
AnchorPoint: "top" 1398 1123 basechar 0
LayerCount: 2
Fore
SplineSet
543 1023 m 257
 472 826 l 257
 2178 826 l 257
 2249 1023 l 257
 543 1023 l 257
531 984 m 257
 173 0 l 257
 375 0 l 257
 733 984 l 257
 531 984 l 257
352 201 m 257
 279 0 l 257
 1871 0 l 257
 1944 201 l 257
 352 201 l 257
EndSplineSet
EndChar

StartChar: caron
Encoding: 330 711 330
GlifName: caron
Width: 2048
VWidth: 0
GlyphClass: 2
Flags: W
LayerCount: 2
Fore
SplineSet
1400 1158 m 257
 1393 1430 l 257
 1324 1405 l 257
 1340 1158 l 257
 1400 1158 l 257
1360 1206 m 257
 1400 1158 l 257
 1596 1408 l 257
 1544 1430 l 257
 1360 1206 l 257
EndSplineSet
EndChar

StartChar: cedilla
Encoding: 335 184 335
GlifName: cedilla
Width: 2048
VWidth: 0
GlyphClass: 2
Flags: W
LayerCount: 2
Fore
SplineSet
867 185 m 257
 749 -139 l 257
 905 -139 l 257
 1023 185 l 257
 867 185 l 257
699 -283 m 257
 654 -406 l 257
 1100 -406 l 257
 1145 -283 l 257
 699 -283 l 257
1098 5 m 257
 962 -367 l 257
 1114 -367 l 257
 1250 5 l 257
 1098 5 l 257
804 5 m 257
 747 -151 l 257
 1193 -151 l 257
 1250 5 l 257
 804 5 l 257
EndSplineSet
EndChar

StartChar: cent
Encoding: 336 162 336
GlifName: cent
Width: 2048
VWidth: 0
GlyphClass: 2
Flags: W
LayerCount: 2
Fore
SplineSet
1634 1183 m 257
 1487 1183 l 257
 1025 -86 l 257
 1172 -86 l 257
 1634 1183 l 257
1048 1023 m 257
 977 826 l 257
 1673 826 l 257
 1744 1023 l 257
 1048 1023 l 257
1036 984 m 257
 678 0 l 257
 880 0 l 257
 1238 984 l 257
 1036 984 l 257
857 201 m 257
 784 0 l 257
 1366 0 l 257
 1439 201 l 257
 857 201 l 257
EndSplineSet
EndChar

StartChar: chi
Encoding: 337 967 337
GlifName: chi
Width: 2048
VWidth: 0
GlyphClass: 2
Flags: W
LayerCount: 2
Fore
SplineSet
343 -245 m 257
 539 -245 l 257
 2160 1023 l 257
 1967 1023 l 257
 343 -245 l 257
808 1023 m 257
 1512 -245 l 257
 1706 -245 l 257
 1004 1023 l 257
 808 1023 l 257
473 1023 m 257
 399 821 l 257
 929 821 l 257
 1003 1023 l 257
 473 1023 l 257
1587 -43 m 257
 1513 -245 l 257
 2039 -245 l 257
 2113 -43 l 257
 1587 -43 l 257
EndSplineSet
EndChar

StartChar: circle
Encoding: 338 9675 338
GlifName: whiteC_ircle
Width: 2048
VWidth: 0
GlyphClass: 2
Flags: W
LayerCount: 2
Fore
SplineSet
1077 1191 m 257
 894 1179 l 257
 741 1094 l 257
 647 928 l 257
 661 735 l 257
 728 520 l 257
 952 426 l 257
 1114 448 l 257
 1293 498 l 257
 1360 650 l 257
 1392 785 l 257
 1387 951 l 257
 1297 1094 l 257
 1077 1191 l 257
1066 1115 m 257
 1242 1037 l 257
 1314 923 l 257
 1318 790 l 257
 1292 682 l 257
 1238 560 l 257
 1095 520 l 257
 966 502 l 257
 786 578 l 257
 733 750 l 257
 722 904 l 257
 797 1037 l 257
 919 1105 l 257
 1066 1115 l 257
EndSplineSet
EndChar

StartChar: circumflex
Encoding: 339 710 339
GlifName: circumflex
Width: 2048
VWidth: 0
GlyphClass: 2
Flags: W
LayerCount: 2
Fore
SplineSet
1557 1298 m 257
 1497 1298 l 257
 1302 1051 l 257
 1352 1026 l 257
 1557 1298 l 257
1482 1250 m 257
 1504 1026 l 257
 1572 1048 l 257
 1557 1298 l 257
 1482 1250 l 257
EndSplineSet
EndChar

StartChar: colon
Encoding: 344 58 344
GlifName: colon
Width: 2048
VWidth: 0
GlyphClass: 2
Flags: W
LayerCount: 2
Fore
SplineSet
1069 430 m 257
 985 201 l 257
 1233 201 l 257
 1317 430 l 257
 1069 430 l 257
1359 1294 m 257
 1269 1047 l 257
 1535 1047 l 257
 1625 1294 l 257
 1359 1294 l 257
EndSplineSet
EndChar

StartChar: colonmonetary
Encoding: 345 8353 345
GlifName: colonmonetary
Width: 2048
VWidth: 0
GlyphClass: 2
Flags: W
LayerCount: 2
Fore
SplineSet
1869 1483 m 257
 761 6 l 257
 829 -67 l 257
 1936 1410 l 257
 1869 1483 l 257
1698 1606 m 257
 590 129 l 257
 669 56 l 257
 1777 1533 l 257
 1698 1606 l 257
1182 1537 m 257
 623 0 l 257
 823 0 l 257
 1382 1537 l 257
 1182 1537 l 257
1281 1537 m 257
 1209 1338 l 257
 1992 1338 l 257
 2064 1537 l 257
 1281 1537 l 257
780 199 m 257
 708 0 l 257
 1503 0 l 257
 1575 199 l 257
 780 199 l 257
EndSplineSet
EndChar

StartChar: comma
Encoding: 346 44 346
GlifName: comma
Width: 2048
VWidth: 0
GlyphClass: 2
Flags: W
LayerCount: 2
Fore
SplineSet
996 237 m 257
 913 8 l 257
 1161 8 l 257
 1244 237 l 257
 996 237 l 257
1057 135 m 257
 837 -146 l 257
 959 -206 l 257
 1156 0 l 257
 1057 135 l 257
EndSplineSet
EndChar

StartChar: copyright
Encoding: 347 169 347
GlifName: copyright
Width: 2048
VWidth: 0
GlyphClass: 2
Flags: W
LayerCount: 2
Fore
SplineSet
583 1537 m 257
 24 0 l 257
 224 0 l 257
 783 1537 l 257
 583 1537 l 257
2381 1537 m 257
 1822 0 l 257
 2024 0 l 257
 2583 1537 l 257
 2381 1537 l 257
693 1537 m 257
 621 1337 l 257
 2311 1337 l 257
 2383 1537 l 257
 693 1537 l 257
232 204 m 257
 158 0 l 257
 1830 0 l 257
 1904 204 l 257
 232 204 l 257
706 1197 m 257
 633 996 l 257
 2067 996 l 257
 2140 1197 l 257
 706 1197 l 257
690 1154 m 257
 394 340 l 257
 564 340 l 257
 860 1154 l 257
 690 1154 l 257
450 495 m 257
 377 294 l 257
 1817 294 l 257
 1890 495 l 257
 450 495 l 257
EndSplineSet
EndChar

StartChar: currency
Encoding: 349 164 349
GlifName: currency
Width: 2048
VWidth: 0
GlyphClass: 2
Flags: W
LayerCount: 2
Fore
SplineSet
553 1202 m 257
 182 180 l 257
 382 180 l 257
 753 1202 l 257
 553 1202 l 257
2169 1204 m 257
 1797 180 l 257
 1999 180 l 257
 2371 1204 l 257
 2169 1204 l 257
677 1204 m 257
 604 1002 l 257
 2190 1002 l 257
 2263 1204 l 257
 677 1204 l 257
381 380 m 257
 309 181 l 257
 1881 181 l 257
 1953 380 l 257
 381 380 l 257
551 1372 m 257
 461 1125 l 257
 727 1125 l 257
 817 1372 l 257
 551 1372 l 257
2229 1371 m 257
 2139 1124 l 257
 2405 1124 l 257
 2495 1371 l 257
 2229 1371 l 257
148 270 m 257
 58 23 l 257
 324 23 l 257
 414 270 l 257
 148 270 l 257
1834 279 m 257
 1744 32 l 257
 2010 32 l 257
 2100 279 l 257
 1834 279 l 257
EndSplineSet
EndChar

StartChar: d
Encoding: 350 100 350
GlifName: d
Width: 2048
VWidth: 0
GlyphClass: 2
Flags: W
AnchorPoint: "base" 1015 -59 basechar 0
AnchorPoint: "top" 2372 1632 basechar 0
LayerCount: 2
Fore
SplineSet
2260 1527 m 257
 1704 0 l 257
 1904 0 l 257
 2460 1527 l 257
 2260 1527 l 257
612 1023 m 257
 539 822 l 257
 2091 822 l 257
 2164 1023 l 257
 612 1023 l 257
516 1023 m 257
 144 0 l 257
 344 0 l 257
 716 1023 l 257
 516 1023 l 257
311 195 m 257
 240 0 l 257
 1856 0 l 257
 1927 195 l 257
 311 195 l 257
EndSplineSet
EndChar

StartChar: dagger
Encoding: 351 8224 351
GlifName: dagger
Width: 2048
VWidth: 0
GlyphClass: 2
Flags: W
LayerCount: 2
Fore
SplineSet
1176 1251 m 257
 1116 1086 l 257
 1722 1086 l 257
 1782 1251 l 257
 1176 1251 l 257
1508 1548 m 257
 945 0 l 257
 1090 0 l 257
 1653 1548 l 257
 1508 1548 l 257
EndSplineSet
EndChar

StartChar: daggerdbl
Encoding: 352 8225 352
GlifName: daggerdbl
Width: 2048
VWidth: 0
GlyphClass: 2
Flags: W
LayerCount: 2
Fore
SplineSet
1062 937 m 257
 1002 772 l 257
 1608 772 l 257
 1668 937 l 257
 1062 937 l 257
1176 1251 m 257
 1116 1086 l 257
 1722 1086 l 257
 1782 1251 l 257
 1176 1251 l 257
1508 1548 m 257
 945 0 l 257
 1090 0 l 257
 1653 1548 l 257
 1508 1548 l 257
EndSplineSet
EndChar

StartChar: dcaron
Encoding: 353 271 353
GlifName: dcaron
Width: 2048
VWidth: 0
GlyphClass: 2
Flags: W
AnchorPoint: "base" 1016 -97 basechar 0
LayerCount: 2
Fore
SplineSet
2193 1527 m 257
 1637 0 l 257
 1838 0 l 257
 2394 1527 l 257
 2193 1527 l 257
521 1023 m 257
 448 822 l 257
 2025 822 l 257
 2098 1023 l 257
 521 1023 l 257
425 1023 m 257
 53 0 l 257
 254 0 l 257
 626 1023 l 257
 425 1023 l 257
220 195 m 257
 149 0 l 257
 1790 0 l 257
 1861 195 l 257
 220 195 l 257
2428 1496 m 257
 2344 1264 l 257
 2474 1264 l 257
 2558 1496 l 257
 2428 1496 l 257
EndSplineSet
EndChar

StartChar: dcroat
Encoding: 354 273 354
GlifName: dcroat
Width: 2048
VWidth: 0
GlyphClass: 2
Flags: W
AnchorPoint: "top" 2374 1659 basechar 0
AnchorPoint: "base" 1032 -128 basechar 0
LayerCount: 2
Fore
SplineSet
2272 1527 m 257
 1716 0 l 257
 1917 0 l 257
 2473 1527 l 257
 2272 1527 l 257
600 1023 m 257
 527 822 l 257
 2104 822 l 257
 2177 1023 l 257
 600 1023 l 257
504 1023 m 257
 132 0 l 257
 333 0 l 257
 705 1023 l 257
 504 1023 l 257
299 195 m 257
 228 0 l 257
 1869 0 l 257
 1940 195 l 257
 299 195 l 257
2090 1403 m 257
 2016 1202 l 257
 2460 1202 l 257
 2534 1403 l 257
 2090 1403 l 257
EndSplineSet
EndChar

StartChar: degree
Encoding: 355 176 355
GlifName: degree
Width: 2048
VWidth: 0
GlyphClass: 2
Flags: W
LayerCount: 2
Fore
SplineSet
1479 1456 m 257
 1627 1456 l 257
 1580 1326 l 257
 1432 1326 l 257
 1479 1456 l 257
1407 1548 m 257
 1295 1238 l 257
 1655 1238 l 257
 1767 1548 l 257
 1407 1548 l 257
EndSplineSet
EndChar

StartChar: delta
Encoding: 356 948 356
GlifName: delta
Width: 2048
VWidth: 0
GlyphClass: 2
Flags: W
LayerCount: 2
Fore
SplineSet
1828 1548 m 257
 1716 0 l 257
 1917 0 l 257
 2029 1548 l 257
 1828 1548 l 257
600 1023 m 257
 527 822 l 257
 1892 822 l 257
 1965 1023 l 257
 600 1023 l 257
504 1023 m 257
 132 0 l 257
 333 0 l 257
 705 1023 l 257
 504 1023 l 257
299 195 m 257
 228 0 l 257
 1869 0 l 257
 1940 195 l 257
 299 195 l 257
1884 1546 m 257
 1816 1359 l 257
 2348 1359 l 257
 2416 1546 l 257
 1884 1546 l 257
EndSplineSet
EndChar

StartChar: divide
Encoding: 359 247 359
GlifName: divide
Width: 2048
VWidth: 0
GlyphClass: 2
Flags: W
LayerCount: 2
Fore
SplineSet
1069 430 m 257
 985 201 l 257
 1233 201 l 257
 1317 430 l 257
 1069 430 l 257
1359 1294 m 257
 1269 1047 l 257
 1535 1047 l 257
 1625 1294 l 257
 1359 1294 l 257
905 808 m 257
 829 600 l 257
 1655 600 l 257
 1731 808 l 257
 905 808 l 257
EndSplineSet
EndChar

StartChar: dollar
Encoding: 360 36 360
GlifName: dollar
Width: 2048
VWidth: 0
GlyphClass: 2
Flags: W
LayerCount: 2
Fore
SplineSet
1197 1537 m 257
 1132 1358 l 257
 1730 1358 l 257
 1795 1537 l 257
 1197 1537 l 257
1199 1542 m 257
 1012 1028 l 257
 1217 1028 l 257
 1404 1542 l 257
 1199 1542 l 257
725 163 m 257
 666 0 l 257
 1374 0 l 257
 1433 163 l 257
 725 163 l 257
1204 0 m 257
 1410 0 l 257
 1539 355 l 257
 1333 355 l 257
 1204 0 l 257
1012 1028 m 257
 1333 355 l 257
 1539 355 l 257
 1217 1028 l 257
 1012 1028 l 257
1492 1636 m 257
 819 -215 l 257
 1033 -215 l 257
 1706 1636 l 257
 1492 1636 l 257
EndSplineSet
EndChar

StartChar: dong
Encoding: 361 8363 361
GlifName: dong
Width: 2048
VWidth: 0
GlyphClass: 2
Flags: W
LayerCount: 2
Fore
SplineSet
693 18 m 257
 622 -177 l 257
 1239 -177 l 257
 1310 18 l 257
 693 18 l 257
1706 1527 m 257
 1186 98 l 257
 1387 98 l 257
 1907 1527 l 257
 1706 1527 l 257
1059 1023 m 257
 986 822 l 257
 1539 822 l 257
 1612 1023 l 257
 1059 1023 l 257
963 1023 m 257
 626 98 l 257
 827 98 l 257
 1164 1023 l 257
 963 1023 l 257
793 293 m 257
 722 98 l 257
 1339 98 l 257
 1410 293 l 257
 793 293 l 257
1524 1403 m 257
 1451 1202 l 257
 1895 1202 l 257
 1968 1403 l 257
 1524 1403 l 257
EndSplineSet
EndChar

StartChar: dotaccent
Encoding: 362 729 362
GlifName: dotaccent
Width: 2048
VWidth: 0
GlyphClass: 2
Flags: W
LayerCount: 2
Fore
SplineSet
1280 1023 m 257
 1245 926 l 257
 1357 926 l 257
 1392 1023 l 257
 1280 1023 l 257
EndSplineSet
EndChar

StartChar: dotbelowcomb
Encoding: 363 803 363
GlifName: dotbelowcomb
Width: 0
VWidth: 0
GlyphClass: 4
Flags: W
AnchorPoint: "base" -14 -187 mark 0
LayerCount: 2
Fore
SplineSet
-206 -204 m 257
 -296 -451 l 257
 -32 -451 l 257
 58 -204 l 257
 -206 -204 l 257
EndSplineSet
EndChar

StartChar: dotlessi
Encoding: 364 305 364
GlifName: dotlessi
Width: 2048
VWidth: 0
GlyphClass: 2
Flags: W
AnchorPoint: "top" 1394 1114 basechar 0
AnchorPoint: "base" 1105 -35 basechar 0
LayerCount: 2
Fore
SplineSet
1294 1018 m 257
 974 139 l 257
 1176 139 l 257
 1496 1018 l 257
 1294 1018 l 257
227 204 m 257
 155 6 l 257
 1897 6 l 257
 1969 204 l 257
 227 204 l 257
574 1018 m 257
 501 818 l 257
 1377 818 l 257
 1450 1018 l 257
 574 1018 l 257
EndSplineSet
EndChar

StartChar: e
Encoding: 365 101 365
GlifName: e
Width: 2048
VWidth: 0
GlyphClass: 2
Flags: W
AnchorPoint: "top" 1444 1113 basechar 0
AnchorPoint: "base" 1019 -82 basechar 0
LayerCount: 2
Fore
SplineSet
602 1023 m 257
 526 812 l 257
 2160 812 l 257
 2236 1023 l 257
 602 1023 l 257
552 1023 m 257
 180 0 l 257
 382 0 l 257
 754 1023 l 257
 552 1023 l 257
355 201 m 257
 282 0 l 257
 1864 0 l 257
 1937 201 l 257
 355 201 l 257
477 625 m 257
 412 446 l 257
 2002 446 l 257
 2067 625 l 257
 477 625 l 257
2029 993 m 257
 1830 445 l 257
 2024 445 l 257
 2223 993 l 257
 2029 993 l 257
EndSplineSet
EndChar

StartChar: eight
Encoding: 373 56 373
GlifName: eight
Width: 2048
VWidth: 0
GlyphClass: 2
Flags: W
LayerCount: 2
Fore
SplineSet
619 1548 m 257
 56 0 l 257
 1993 0 l 257
 2556 1548 l 257
 619 1548 l 257
2067 759 m 257
 1863 197 l 257
 332 197 l 257
 536 759 l 257
 2067 759 l 257
2141 959 m 257
 609 959 l 257
 751 1350 l 257
 2283 1350 l 257
 2141 959 l 257
EndSplineSet
Substitution2: "sinfScientificInferiorsinLatinlookup3 subtable" uni2088
Substitution2: "supsSuperscriptinLatinlookup16 subtable" uni2078
EndChar

StartChar: ellipsis
Encoding: 374 8230 374
GlifName: ellipsis
Width: 2048
VWidth: 0
GlyphClass: 2
Flags: W
LayerCount: 2
Fore
SplineSet
442 114 m 257
 401 0 l 257
 543 0 l 257
 584 114 l 257
 442 114 l 257
989 114 m 257
 948 0 l 257
 1092 0 l 257
 1133 114 l 257
 989 114 l 257
1538 114 m 257
 1497 0 l 257
 1639 0 l 257
 1680 114 l 257
 1538 114 l 257
EndSplineSet
EndChar

StartChar: emdash
Encoding: 376 8212 376
GlifName: emdash
Width: 2048
VWidth: 0
GlyphClass: 2
Flags: W
LayerCount: 2
Fore
SplineSet
305 600 m 257
 2168 600 l 257
 2244 808 l 257
 381 808 l 257
 305 600 l 257
EndSplineSet
EndChar

StartChar: endash
Encoding: 378 8211 378
GlifName: endash
Width: 2048
VWidth: 0
GlyphClass: 2
Flags: W
LayerCount: 2
Fore
SplineSet
829 600 m 257
 1655 600 l 257
 1731 808 l 257
 905 808 l 257
 829 600 l 257
EndSplineSet
EndChar

StartChar: eng
Encoding: 379 331 379
GlifName: eng
Width: 2048
VWidth: 0
GlyphClass: 2
Flags: W
AnchorPoint: "top" 1412 1160 basechar 0
AnchorPoint: "base" 916 -400 basechar 0
LayerCount: 2
Fore
SplineSet
1403 -211 m 257
 1332 -408 l 257
 1718 -408 l 257
 1790 -211 l 257
 1403 -211 l 257
604 990 m 257
 244 0 l 257
 445 0 l 257
 805 990 l 257
 604 990 l 257
2022 976 m 257
 1518 -408 l 257
 1720 -408 l 257
 2223 976 l 257
 2022 976 l 257
437 1023 m 257
 366 826 l 257
 2168 826 l 257
 2239 1023 l 257
 437 1023 l 257
EndSplineSet
EndChar

StartChar: epsilon
Encoding: 381 949 381
GlifName: epsilon
Width: 2048
VWidth: 0
GlyphClass: 2
Flags: W
LayerCount: 2
Fore
SplineSet
518 1140 m 257
 339 669 l 257
 539 668 l 257
 718 1139 l 257
 518 1140 l 257
596 1139 m 257
 521 935 l 257
 2264 935 l 257
 2339 1139 l 257
 596 1139 l 257
244 203 m 257
 170 0 l 257
 1940 0 l 257
 2014 203 l 257
 244 203 l 257
486 670 m 257
 413 470 l 257
 1352 470 l 257
 1425 670 l 257
 486 670 l 257
275 473 m 257
 97 2 l 257
 296 1 l 257
 475 472 l 257
 275 473 l 257
EndSplineSet
EndChar

StartChar: equal
Encoding: 383 61 383
GlifName: equal
Width: 2048
VWidth: 0
GlyphClass: 2
Flags: W
LayerCount: 2
Fore
SplineSet
949 914 m 257
 880 724 l 257
 1696 724 l 257
 1765 914 l 257
 949 914 l 257
813 540 m 257
 743 350 l 257
 1559 350 l 257
 1629 540 l 257
 813 540 l 257
EndSplineSet
EndChar

StartChar: estimated
Encoding: 384 8494 384
GlifName: estimated
Width: 2048
VWidth: 0
GlyphClass: 2
Flags: W
LayerCount: 2
Fore
SplineSet
683 798 m 257
 683 718 l 257
 1429 719 l 257
 1429 799 l 257
 683 798 l 257
1238 1098 m 257
 1244 727 l 257
 1428 727 l 257
 1422 1098 l 257
 1238 1098 l 257
679 1103 m 257
 680 731 l 257
 859 731 l 257
 858 1103 l 257
 679 1103 l 257
680 1175 m 257
 680 1081 l 257
 1025 1125 l 257
 1025 1219 l 257
 680 1175 l 257
1025 1221 m 257
 1024 1123 l 257
 1422 1081 l 257
 1423 1179 l 257
 1025 1221 l 257
683 731 m 257
 683 287 l 257
 764 287 l 257
 764 731 l 257
 683 731 l 257
683 342 m 257
 683 248 l 257
 1025 183 l 257
 1025 277 l 257
 683 342 l 257
1024 277 m 257
 1024 183 l 257
 1423 247 l 257
 1423 341 l 257
 1024 277 l 257
EndSplineSet
EndChar

StartChar: eta
Encoding: 385 951 385
GlifName: eta
Width: 2048
VWidth: 0
GlyphClass: 2
Flags: W
LayerCount: 2
Fore
SplineSet
749 990 m 257
 388 0 l 257
 589 0 l 257
 950 990 l 257
 749 990 l 257
1910 976 m 257
 1406 -409 l 257
 1607 -409 l 257
 2111 976 l 257
 1910 976 l 257
326 1023 m 257
 254 826 l 257
 2056 826 l 257
 2128 1023 l 257
 326 1023 l 257
EndSplineSet
EndChar

StartChar: eth
Encoding: 387 240 387
GlifName: eth
Width: 2048
VWidth: 0
GlyphClass: 2
Flags: W
AnchorPoint: "top" 1940 1664 basechar 0
AnchorPoint: "base" 1084 -112 basechar 0
LayerCount: 2
Fore
SplineSet
1828 1548 m 257
 1716 0 l 257
 1917 0 l 257
 2029 1548 l 257
 1828 1548 l 257
600 1023 m 257
 527 822 l 257
 1892 822 l 257
 1965 1023 l 257
 600 1023 l 257
504 1023 m 257
 132 0 l 257
 333 0 l 257
 705 1023 l 257
 504 1023 l 257
299 195 m 257
 228 0 l 257
 1869 0 l 257
 1940 195 l 257
 299 195 l 257
1700 1416 m 257
 1632 1229 l 257
 2164 1229 l 257
 2232 1416 l 257
 1700 1416 l 257
EndSplineSet
EndChar

StartChar: exclam
Encoding: 388 33 388
GlifName: exclam
Width: 2048
VWidth: 0
GlyphClass: 2
Flags: W
LayerCount: 2
Fore
SplineSet
998 126 m 257
 1142 126 l 257
 1232 374 l 257
 1088 374 l 257
 998 126 l 257
1184 611 m 257
 1312 611 l 257
 1683 1629 l 257
 1555 1629 l 257
 1184 611 l 257
EndSplineSet
EndChar

StartChar: exclamdown
Encoding: 389 161 389
GlifName: exclamdown
Width: 2048
VWidth: 0
GlyphClass: 2
Flags: W
LayerCount: 2
Fore
SplineSet
1649 1520 m 257
 1505 1520 l 257
 1415 1272 l 257
 1559 1272 l 257
 1649 1520 l 257
1463 1035 m 257
 1335 1035 l 257
 964 17 l 257
 1092 17 l 257
 1463 1035 l 257
EndSplineSet
EndChar

StartChar: f
Encoding: 390 102 390
GlifName: f
Width: 2048
VWidth: 0
GlyphClass: 2
Flags: W
AnchorPoint: "top" 1868 1641 basechar 0
AnchorPoint: "base" 822 -147 basechar 0
LayerCount: 2
Fore
SplineSet
1254 1537 m 257
 692 -6 l 257
 874 -6 l 257
 1436 1537 l 257
 1254 1537 l 257
1312 1537 m 257
 1242 1345 l 257
 2320 1345 l 257
 2390 1537 l 257
 1312 1537 l 257
275 959 m 257
 202 756 l 257
 2010 756 l 257
 2083 959 l 257
 275 959 l 257
EndSplineSet
EndChar

StartChar: filledbox
Encoding: 392 9632 392
GlifName: blackS_quare
Width: 2048
VWidth: 0
GlyphClass: 2
Flags: W
LayerCount: 2
Fore
SplineSet
607 1242 m 257
 607 415 l 257
 1434 415 l 257
 1434 1242 l 257
 607 1242 l 257
EndSplineSet
EndChar

StartChar: five
Encoding: 393 53 393
GlifName: five
Width: 2048
VWidth: 0
GlyphClass: 2
Flags: W
LayerCount: 2
Fore
SplineSet
2072 759 m 257
 1868 198 l 257
 131 198 l 257
 59 0 l 257
 2001 0 l 257
 2350 959 l 257
 609 959 l 257
 752 1352 l 257
 2503 1352 l 257
 2574 1548 l 257
 623 1548 l 257
 336 759 l 257
 2072 759 l 257
EndSplineSet
Substitution2: "sinfScientificInferiorsinLatinlookup3 subtable" uni2085
Substitution2: "supsSuperscriptinLatinlookup16 subtable" uni2075
EndChar

StartChar: florin
Encoding: 395 402 395
GlifName: uni0192
Width: 2048
VWidth: 0
GlyphClass: 2
Flags: W
LayerCount: 2
Fore
SplineSet
1135 1023 m 257
 615 -406 l 257
 815 -406 l 257
 1335 1023 l 257
 1135 1023 l 257
1197 1023 m 257
 1127 831 l 257
 1905 831 l 257
 1975 1023 l 257
 1197 1023 l 257
432 559 m 257
 359 356 l 257
 1636 356 l 257
 1709 559 l 257
 432 559 l 257
94 -201 m 257
 19 -406 l 257
 817 -406 l 257
 892 -201 l 257
 94 -201 l 257
EndSplineSet
EndChar

StartChar: four
Encoding: 396 52 396
GlifName: four
Width: 2048
VWidth: 0
GlyphClass: 2
Flags: W
LayerCount: 2
Fore
SplineSet
368 761 m 257
 2034 761 l 257
 1760 7 l 257
 1956 7 l 257
 2516 1548 l 257
 2317 1548 l 257
 2104 961 l 257
 641 961 l 257
 854 1548 l 257
 654 1548 l 257
 368 761 l 257
EndSplineSet
Substitution2: "sinfScientificInferiorsinLatinlookup3 subtable" uni2084
Substitution2: "supsSuperscriptinLatinlookup16 subtable" uni2074
EndChar

StartChar: fraction
Encoding: 397 8260 397
GlifName: uni2044
Width: 2048
VWidth: 0
GlyphClass: 2
Flags: W
LayerCount: 2
Fore
SplineSet
1849 1483 m 257
 619 6 l 257
 821 -67 l 257
 2049 1410 l 257
 1849 1483 l 257
EndSplineSet
EndChar

StartChar: franc
Encoding: 398 8355 398
GlifName: franc
Width: 2048
VWidth: 0
GlyphClass: 2
Flags: W
LayerCount: 2
Fore
SplineSet
791 565 m 257
 717 362 l 257
 1266 362 l 257
 1340 565 l 257
 791 565 l 257
1290 1548 m 257
 726 0 l 257
 926 0 l 257
 1490 1548 l 257
 1290 1548 l 257
1392 1548 m 257
 1319 1347 l 257
 1953 1347 l 257
 2026 1548 l 257
 1392 1548 l 257
1135 875 m 257
 1061 672 l 257
 1610 672 l 257
 1684 875 l 257
 1135 875 l 257
EndSplineSet
EndChar

StartChar: g
Encoding: 399 103 399
GlifName: g
Width: 2048
VWidth: 0
GlyphClass: 2
Flags: W
AnchorPoint: "top" 1430 1144 basechar 0
AnchorPoint: "base" 1003 -450 basechar 0
LayerCount: 2
Fore
SplineSet
610 1023 m 257
 238 0 l 257
 430 0 l 257
 802 1023 l 257
 610 1023 l 257
650 1023 m 257
 578 823 l 257
 2094 823 l 257
 2166 1023 l 257
 650 1023 l 257
1994 1023 m 257
 1472 -411 l 257
 1666 -411 l 257
 2188 1023 l 257
 1994 1023 l 257
373 198 m 257
 301 0 l 257
 1758 0 l 257
 1830 198 l 257
 373 198 l 257
154 -214 m 257
 82 -413 l 257
 1617 -413 l 257
 1689 -214 l 257
 154 -214 l 257
EndSplineSet
EndChar

StartChar: gamma
Encoding: 400 947 400
GlifName: gamma
Width: 2048
VWidth: 0
GlyphClass: 2
Flags: W
LayerCount: 2
Fore
SplineSet
894 235 m 257
 664 -398 l 257
 866 -398 l 257
 1096 235 l 257
 894 235 l 257
419 1026 m 257
 880 197 l 257
 1076 197 l 257
 619 1026 l 257
 419 1026 l 257
1948 1026 m 257
 881 197 l 257
 1080 197 l 257
 2147 1026 l 257
 1948 1026 l 257
EndSplineSet
EndChar

StartChar: germandbls
Encoding: 406 223 406
GlifName: germandbls
Width: 2048
VWidth: 0
GlyphClass: 2
Flags: W
LayerCount: 2
Fore
SplineSet
462 1221 m 257
 390 1023 l 257
 897 1023 l 257
 969 1221 l 257
 462 1221 l 257
1023 1548 m 257
 460 0 l 257
 666 0 l 257
 1229 1548 l 257
 1023 1548 l 257
1229 1548 m 257
 1149 1328 l 257
 2312 1328 l 257
 2392 1548 l 257
 1229 1548 l 257
2277 1548 m 257
 2086 1023 l 257
 2285 1023 l 257
 2476 1548 l 257
 2277 1548 l 257
2023 848 m 257
 1778 175 l 257
 1978 175 l 257
 2223 848 l 257
 2023 848 l 257
1406 251 m 257
 1330 40 l 257
 1929 40 l 257
 2005 251 l 257
 1406 251 l 257
1823 1224 m 257
 1750 1027 l 257
 2284 1020 l 257
 2358 1223 l 257
 1823 1224 l 257
1704 897 m 257
 1631 694 l 257
 2167 694 l 257
 2240 897 l 257
 1704 897 l 257
1471 1222 m 257
 1281 693 l 257
 1631 694 l 257
 1823 1223 l 257
 1471 1222 l 257
EndSplineSet
EndChar

StartChar: grave
Encoding: 407 96 407
GlifName: grave
Width: 2048
VWidth: 0
GlyphClass: 2
Flags: W
LayerCount: 2
Fore
SplineSet
1371 1358 m 257
 1407 1057 l 257
 1582 1129 l 257
 1545 1430 l 257
 1371 1358 l 257
EndSplineSet
EndChar

StartChar: gravecomb
Encoding: 408 768 408
GlifName: gravecomb
Width: 0
VWidth: 0
GlyphClass: 4
Flags: W
AnchorPoint: "top" 28 812 mark 0
LayerCount: 2
Fore
SplineSet
-126 1139 m 257
 -24 825 l 257
 159 910 l 257
 57 1225 l 257
 -126 1139 l 257
EndSplineSet
EndChar

StartChar: greater
Encoding: 409 62 409
GlifName: greater
Width: 2048
VWidth: 0
GlyphClass: 2
Flags: W
LayerCount: 2
Fore
SplineSet
1719 777 m 257
 983 1013 l 257
 908 807 l 257
 1644 568 l 257
 1719 777 l 257
1719 777 m 257
 732 319 l 257
 660 122 l 257
 1644 568 l 257
 1719 777 l 257
EndSplineSet
EndChar

StartChar: greaterequal
Encoding: 410 8805 410
GlifName: greaterequal
Width: 2048
VWidth: 0
GlyphClass: 2
Flags: W
LayerCount: 2
Fore
SplineSet
-2 -5 m 257
 -57 -157 l 257
 1991 -157 l 257
 2046 -5 l 257
 -2 -5 l 257
2137 777 m 257
 579 1013 l 257
 504 807 l 257
 2065 568 l 257
 2137 777 l 257
2137 777 m 257
 330 319 l 257
 258 122 l 257
 2065 568 l 257
 2137 777 l 257
EndSplineSet
EndChar

StartChar: guillemotleft
Encoding: 411 171 411
GlifName: guillemotleft
Width: 2048
VWidth: 0
GlyphClass: 2
Flags: W
LayerCount: 2
Fore
SplineSet
854 609 m 257
 797 454 l 257
 1231 631 l 257
 1286 784 l 257
 854 609 l 257
854 609 m 257
 797 454 l 257
 1044 122 l 257
 1098 268 l 257
 854 609 l 257
1269 609 m 257
 1212 454 l 257
 1646 631 l 257
 1701 784 l 257
 1269 609 l 257
1269 609 m 257
 1212 454 l 257
 1459 122 l 257
 1513 268 l 257
 1269 609 l 257
EndSplineSet
EndChar

StartChar: guillemotright
Encoding: 412 187 412
GlifName: guillemotright
Width: 2048
VWidth: 0
GlyphClass: 2
Flags: W
LayerCount: 2
Fore
SplineSet
1638 609 m 257
 1332 784 l 257
 1277 631 l 257
 1581 454 l 257
 1638 609 l 257
1638 609 m 257
 1146 268 l 257
 1092 122 l 257
 1581 454 l 257
 1638 609 l 257
1223 609 m 257
 917 784 l 257
 862 631 l 257
 1166 454 l 257
 1223 609 l 257
1223 609 m 257
 731 268 l 257
 677 122 l 257
 1166 454 l 257
 1223 609 l 257
EndSplineSet
EndChar

StartChar: guilsinglleft
Encoding: 413 8249 413
GlifName: guilsinglleft
Width: 2048
VWidth: 0
GlyphClass: 2
Flags: W
LayerCount: 2
Fore
SplineSet
897 777 m 257
 821 569 l 257
 1726 807 l 257
 1801 1013 l 257
 897 777 l 257
897 777 m 257
 821 569 l 257
 1474 122 l 257
 1546 319 l 257
 897 777 l 257
EndSplineSet
EndChar

StartChar: guilsinglright
Encoding: 414 8250 414
GlifName: guilsinglright
Width: 2048
VWidth: 0
GlyphClass: 2
Flags: W
LayerCount: 2
Fore
SplineSet
1719 777 m 257
 983 1013 l 257
 908 807 l 257
 1644 568 l 257
 1719 777 l 257
1719 777 m 257
 732 319 l 257
 660 122 l 257
 1644 568 l 257
 1719 777 l 257
EndSplineSet
EndChar

StartChar: h
Encoding: 415 104 415
GlifName: h
Width: 2048
VWidth: 0
GlyphClass: 2
Flags: W
AnchorPoint: "top" 876 1633 basechar 0
AnchorPoint: "base" 1025 -63 basechar 0
LayerCount: 2
Fore
SplineSet
745 1537 m 257
 188 6 l 257
 388 6 l 257
 945 1537 l 257
 745 1537 l 257
695 1023 m 257
 624 826 l 257
 2155 826 l 257
 2226 1023 l 257
 695 1023 l 257
2035 1023 m 257
 1663 0 l 257
 1862 0 l 257
 2234 1023 l 257
 2035 1023 l 257
EndSplineSet
EndChar

StartChar: hbar
Encoding: 416 295 416
GlifName: hbar
Width: 2048
VWidth: 0
GlyphClass: 2
Flags: W
LayerCount: 2
Fore
SplineSet
861 1537 m 257
 304 6 l 257
 504 6 l 257
 1061 1537 l 257
 861 1537 l 257
811 1023 m 257
 740 826 l 257
 2167 826 l 257
 2238 1023 l 257
 811 1023 l 257
2047 1023 m 257
 1675 0 l 257
 1874 0 l 257
 2246 1023 l 257
 2047 1023 l 257
558 1429 m 257
 482 1221 l 257
 1194 1221 l 257
 1270 1429 l 257
 558 1429 l 257
EndSplineSet
EndChar

StartChar: hookabovecomb
Encoding: 418 777 418
GlifName: hookabovecomb
Width: 0
VWidth: 0
GlyphClass: 4
Flags: W
AnchorPoint: "top" 6 784 mark 0
LayerCount: 2
Fore
SplineSet
98 1263 m 257
 70 1186 l 257
 293 1186 l 257
 321 1263 l 257
 98 1263 l 257
279 1263 m 257
 192 1026 l 257
 236 1026 l 257
 323 1263 l 257
 279 1263 l 257
60 1041 m 257
 37 979 l 257
 219 979 l 257
 242 1041 l 257
 60 1041 l 257
60 1041 m 257
 -7 858 l 257
 45 858 l 257
 112 1041 l 257
 60 1041 l 257
EndSplineSet
EndChar

StartChar: hungarumlaut
Encoding: 419 733 419
GlifName: hungarumlaut
Width: 2048
VWidth: 0
GlyphClass: 2
Flags: W
LayerCount: 2
Fore
SplineSet
1165 1134 m 257
 1309 1134 l 257
 1399 1382 l 257
 1255 1382 l 257
 1165 1134 l 257
1565 1134 m 257
 1709 1134 l 257
 1799 1382 l 257
 1655 1382 l 257
 1565 1134 l 257
EndSplineSet
EndChar

StartChar: hyphen
Encoding: 420 45 420
GlifName: hyphen
Width: 2048
VWidth: 0
GlyphClass: 2
Flags: W
LayerCount: 2
Fore
SplineSet
905 808 m 257
 829 600 l 257
 1655 600 l 257
 1731 808 l 257
 905 808 l 257
EndSplineSet
EndChar

StartChar: i
Encoding: 421 105 421
GlifName: i
Width: 2048
VWidth: 0
GlyphClass: 2
Flags: W
AnchorPoint: "top" 1259 1440 basechar 0
AnchorPoint: "base" 939 -95 basechar 0
LayerCount: 2
Fore
SplineSet
1294 1018 m 257
 974 139 l 257
 1176 139 l 257
 1496 1018 l 257
 1294 1018 l 257
227 204 m 257
 155 6 l 257
 1897 6 l 257
 1969 204 l 257
 227 204 l 257
1144 1333 m 257
 1071 1133 l 257
 1278 1133 l 257
 1351 1333 l 257
 1144 1333 l 257
868 1018 m 257
 794 816 l 257
 1414 816 l 257
 1488 1018 l 257
 868 1018 l 257
EndSplineSet
Substitution2: "Single Substitution lookup 5 subtable" dotlessi
EndChar

StartChar: infinity
Encoding: 430 8734 430
GlifName: infinity
Width: 2048
VWidth: 0
GlyphClass: 2
Flags: W
LayerCount: 2
Fore
SplineSet
402 1023 m 257
 330 826 l 257
 1135 826 l 257
 1207 1023 l 257
 402 1023 l 257
388 984 m 257
 29 0 l 257
 231 0 l 257
 590 984 l 257
 388 984 l 257
209 201 m 257
 135 0 l 257
 856 1 l 257
 930 206 l 257
 209 201 l 257
1166 1 m 257
 1371 54 l 257
 1207 1023 l 257
 994 939 l 257
 1166 1 l 257
856 1 m 257
 1790 961 l 257
 1633 1044 l 257
 707 88 l 257
 856 1 l 257
1632 1044 m 257
 1561 847 l 257
 2281 853 l 257
 2353 1050 l 257
 1632 1044 l 257
2148 1048 m 257
 1772 0 l 257
 1974 0 l 257
 2350 1048 l 257
 2148 1048 l 257
1236 200 m 257
 1163 -1 l 257
 1950 0 l 257
 2024 201 l 257
 1236 200 l 257
EndSplineSet
EndChar

StartChar: integral
Encoding: 431 8747 431
GlifName: integral
Width: 2048
VWidth: 0
GlyphClass: 2
Flags: W
LayerCount: 2
Fore
SplineSet
1046 1641 m 257
 823 -390 l 257
 1016 -390 l 257
 1239 1641 l 257
 1046 1641 l 257
351 -240 m 257
 351 -390 l 257
 982 -390 l 257
 982 -240 l 257
 351 -240 l 257
1118 1641 m 257
 1118 1507 l 257
 1778 1504 l 257
 1778 1638 l 257
 1118 1641 l 257
EndSplineSet
EndChar

StartChar: iota
Encoding: 434 953 434
GlifName: iota
Width: 2048
VWidth: 0
GlyphClass: 2
Flags: W
LayerCount: 2
Fore
SplineSet
1176 1018 m 257
 893 239 l 257
 1095 239 l 257
 1378 1018 l 257
 1176 1018 l 257
916 304 m 257
 844 106 l 257
 1816 6 l 257
 1888 204 l 257
 916 304 l 257
EndSplineSet
EndChar

StartChar: j
Encoding: 441 106 441
GlifName: j
Width: 2048
VWidth: 0
GlyphClass: 2
Flags: W
AnchorPoint: "top" 2220 1424 basechar 0
AnchorPoint: "base" 1025 -476 basechar 0
LayerCount: 2
Fore
SplineSet
2012 1023 m 257
 1490 -411 l 257
 1688 -411 l 257
 2210 1023 l 257
 2012 1023 l 257
134 -209 m 257
 62 -406 l 257
 1592 -406 l 257
 1664 -209 l 257
 134 -209 l 257
208 -6 m 257
 82 -351 l 257
 282 -351 l 257
 408 -6 l 257
 208 -6 l 257
2103 1307 m 257
 2032 1112 l 257
 2258 1112 l 257
 2329 1307 l 257
 2103 1307 l 257
EndSplineSet
Substitution2: "Single Substitution lookup 5 subtable" uni0237
EndChar

StartChar: k
Encoding: 444 107 444
GlifName: k
Width: 2048
VWidth: 0
GlyphClass: 2
Flags: W
AnchorPoint: "base" 1041 -48 basechar 0
AnchorPoint: "top" 767 1638 basechar 0
LayerCount: 2
Fore
SplineSet
662 1537 m 257
 105 5 l 257
 305 5 l 257
 862 1537 l 257
 662 1537 l 257
340 516 m 257
 309 298 l 257
 2260 1023 l 257
 2043 1023 l 257
 340 516 l 257
684 596 m 257
 433 483 l 257
 1707 0 l 257
 1945 0 l 257
 684 596 l 257
EndSplineSet
EndChar

StartChar: kgreenlandic
Encoding: 447 312 447
GlifName: kgreenlandic
Width: 2048
VWidth: 0
GlyphClass: 2
Flags: W
AnchorPoint: "base" 1006 -109 basechar 0
AnchorPoint: "top" 538 1151 basechar 0
LayerCount: 2
Fore
SplineSet
414 1022 m 257
 44 5 l 257
 244 5 l 257
 614 1022 l 257
 414 1022 l 257
279 516 m 257
 248 298 l 257
 2408 1023 l 257
 2191 1023 l 257
 279 516 l 257
654 631 m 257
 372 483 l 257
 1789 0 l 257
 2027 0 l 257
 654 631 l 257
EndSplineSet
EndChar

StartChar: l
Encoding: 448 108 448
GlifName: l
Width: 2048
VWidth: 0
GlyphClass: 2
Flags: W
AnchorPoint: "base" 1027 -75 basechar 0
AnchorPoint: "top" 1636 1637 basechar 0
LayerCount: 2
Fore
SplineSet
283 209 m 257
 210 9 l 257
 1844 9 l 257
 1917 209 l 257
 283 209 l 257
1487 1548 m 257
 955 86 l 257
 1155 86 l 257
 1687 1548 l 257
 1487 1548 l 257
831 1548 m 257
 759 1349 l 257
 1494 1349 l 257
 1566 1548 l 257
 831 1548 l 257
EndSplineSet
EndChar

StartChar: lambda
Encoding: 451 955 451
GlifName: lambda
Width: 2048
VWidth: 0
GlyphClass: 2
Flags: W
LayerCount: 2
Fore
SplineSet
-10 0 m 257
 189 0 l 257
 1404 777 l 257
 1197 777 l 257
 -10 0 l 257
1476 0 m 257
 1676 0 l 257
 1318 1047 l 257
 1111 1047 l 257
 1476 0 l 257
EndSplineSet
EndChar

StartChar: lcaron
Encoding: 453 318 453
GlifName: lcaron
Width: 2048
VWidth: 0
GlyphClass: 2
Flags: W
LayerCount: 2
Fore
SplineSet
209 209 m 257
 136 9 l 257
 1794 9 l 257
 1867 209 l 257
 209 209 l 257
1425 1548 m 257
 893 86 l 257
 1093 86 l 257
 1625 1548 l 257
 1425 1548 l 257
757 1548 m 257
 685 1349 l 257
 1432 1349 l 257
 1504 1548 l 257
 757 1548 l 257
1854 1496 m 257
 1769 1264 l 257
 1899 1264 l 257
 1984 1496 l 257
 1854 1496 l 257
EndSplineSet
EndChar

StartChar: less
Encoding: 456 60 456
GlifName: less
Width: 2048
VWidth: 0
GlyphClass: 2
Flags: W
LayerCount: 2
Fore
SplineSet
897 777 m 257
 821 569 l 257
 1726 807 l 257
 1801 1013 l 257
 897 777 l 257
897 777 m 257
 821 569 l 257
 1474 122 l 257
 1546 319 l 257
 897 777 l 257
EndSplineSet
EndChar

StartChar: lessequal
Encoding: 457 8804 457
GlifName: lessequal
Width: 2048
VWidth: 0
GlyphClass: 2
Flags: W
LayerCount: 2
Fore
SplineSet
-2 -5 m 257
 -57 -157 l 257
 1991 -157 l 257
 2046 -5 l 257
 -2 -5 l 257
499 777 m 257
 423 569 l 257
 2146 807 l 257
 2221 1013 l 257
 499 777 l 257
499 777 m 257
 423 569 l 257
 1892 122 l 257
 1964 319 l 257
 499 777 l 257
EndSplineSet
EndChar

StartChar: lira
Encoding: 458 8356 458
GlifName: lira
Width: 2048
VWidth: 0
GlyphClass: 2
Flags: W
LayerCount: 2
Fore
SplineSet
887 770 m 257
 815 571 l 257
 1541 571 l 257
 1613 770 l 257
 887 770 l 257
1496 1543 m 257
 1423 1344 l 257
 1714 1344 l 257
 1787 1543 l 257
 1496 1543 l 257
994 1064 m 257
 922 865 l 257
 1648 865 l 257
 1720 1064 l 257
 994 1064 l 257
1451 1542 m 257
 890 0 l 257
 1088 0 l 257
 1649 1542 l 257
 1451 1542 l 257
789 202 m 257
 715 0 l 257
 1441 0 l 257
 1515 202 l 257
 789 202 l 257
EndSplineSet
EndChar

StartChar: logicalnot
Encoding: 459 172 459
GlifName: logicalnot
Width: 2048
VWidth: 0
GlyphClass: 2
Flags: W
LayerCount: 2
Fore
SplineSet
1519 935 m 257
 1412 640 l 257
 1522 640 l 257
 1629 935 l 257
 1519 935 l 257
1089 935 m 257
 1053 835 l 257
 1603 835 l 257
 1639 935 l 257
 1089 935 l 257
EndSplineSet
EndChar

StartChar: longs
Encoding: 460 383 460
GlifName: longs
Width: 2048
VWidth: 0
GlyphClass: 2
Flags: W
LayerCount: 2
Fore
SplineSet
462 1221 m 257
 390 1023 l 257
 897 1023 l 257
 969 1221 l 257
 462 1221 l 257
1023 1548 m 257
 460 0 l 257
 666 0 l 257
 1229 1548 l 257
 1023 1548 l 257
1229 1548 m 257
 1149 1328 l 257
 2312 1328 l 257
 2392 1548 l 257
 1229 1548 l 257
EndSplineSet
EndChar

StartChar: lozenge
Encoding: 461 9674 461
GlifName: lozenge
Width: 2048
VWidth: 0
GlyphClass: 2
Flags: W
LayerCount: 2
Fore
SplineSet
836 809 m 257
 1024 382 l 257
 1231 800 l 257
 1025 1235 l 257
 836 809 l 257
EndSplineSet
EndChar

StartChar: lslash
Encoding: 462 322 462
GlifName: lslash
Width: 2048
VWidth: 0
GlyphClass: 2
Flags: W
LayerCount: 2
Fore
SplineSet
271 209 m 257
 198 9 l 257
 1856 9 l 257
 1929 209 l 257
 271 209 l 257
1487 1548 m 257
 955 86 l 257
 1155 86 l 257
 1687 1548 l 257
 1487 1548 l 257
819 1548 m 257
 747 1349 l 257
 1494 1349 l 257
 1566 1548 l 257
 819 1548 l 257
1882 1213 m 257
 646 830 l 257
 685 656 l 257
 1920 1039 l 257
 1882 1213 l 257
EndSplineSet
EndChar

StartChar: m
Encoding: 463 109 463
GlifName: m
Width: 2048
VWidth: 0
GlyphClass: 2
Flags: W
AnchorPoint: "base" 1025 -105 basechar 0
AnchorPoint: "top" 1447 1103 basechar 0
LayerCount: 2
Fore
SplineSet
509 993 m 257
 148 0 l 257
 348 0 l 257
 709 993 l 257
 509 993 l 257
1316 972 m 257
 962 0 l 257
 1162 0 l 257
 1516 972 l 257
 1316 972 l 257
2133 976 m 257
 1778 0 l 257
 1978 0 l 257
 2333 976 l 257
 2133 976 l 257
442 1023 m 257
 371 826 l 257
 2277 826 l 257
 2348 1023 l 257
 442 1023 l 257
EndSplineSet
EndChar

StartChar: macron
Encoding: 464 175 464
GlifName: macron
Width: 2048
VWidth: 0
GlyphClass: 2
Flags: W
LayerCount: 2
Fore
SplineSet
1130 1023 m 257
 1100 941 l 257
 1660 941 l 257
 1690 1023 l 257
 1130 1023 l 257
EndSplineSet
EndChar

StartChar: mu
Encoding: 467 181 467
GlifName: mu
Width: 2048
VWidth: 0
GlyphClass: 2
Flags: W
LayerCount: 2
Fore
SplineSet
1894 935 m 257
 1554 0 l 257
 1754 0 l 257
 2094 935 l 257
 1894 935 l 257
255 200 m 257
 182 0 l 257
 1696 0 l 257
 1769 200 l 257
 255 200 l 257
450 935 m 257
 -46 -430 l 257
 154 -430 l 257
 650 935 l 257
 450 935 l 257
EndSplineSet
EndChar

StartChar: multiply
Encoding: 468 215 468
GlifName: multiply
Width: 2048
VWidth: 0
GlyphClass: 2
Flags: W
LayerCount: 2
Fore
SplineSet
201 302 m 257
 524 302 l 257
 2433 1323 l 257
 2122 1323 l 257
 201 302 l 257
575 1325 m 257
 1755 298 l 257
 2066 298 l 257
 899 1325 l 257
 575 1325 l 257
EndSplineSet
EndChar

StartChar: n
Encoding: 469 110 469
GlifName: n
Width: 2048
VWidth: 0
GlyphClass: 2
Flags: W
AnchorPoint: "base" 1032 -71 basechar 0
AnchorPoint: "top" 1514 1127 basechar 0
LayerCount: 2
Fore
SplineSet
674 990 m 257
 314 0 l 257
 514 0 l 257
 874 990 l 257
 674 990 l 257
2067 976 m 257
 1712 0 l 257
 1914 0 l 257
 2269 976 l 257
 2067 976 l 257
506 1023 m 257
 435 826 l 257
 2213 826 l 257
 2284 1023 l 257
 506 1023 l 257
EndSplineSet
EndChar

StartChar: nine
Encoding: 474 57 474
GlifName: nine
Width: 2048
VWidth: 0
GlyphClass: 2
Flags: W
LayerCount: 2
Fore
SplineSet
2081 759 m 257
 1878 200 l 257
 152 200 l 257
 79 0 l 257
 2001 0 l 257
 2567 1554 l 257
 623 1554 l 257
 616 1537 l 257
 333 759 l 257
 2081 759 l 257
2151 959 m 257
 606 959 l 257
 750 1354 l 257
 2295 1354 l 257
 2151 959 l 257
EndSplineSet
Substitution2: "sinfScientificInferiorsinLatinlookup3 subtable" uni2089
Substitution2: "supsSuperscriptinLatinlookup16 subtable" uni2079
EndChar

StartChar: notequal
Encoding: 475 8800 475
GlifName: notequal
Width: 2048
VWidth: 0
GlyphClass: 2
Flags: W
LayerCount: 2
Fore
SplineSet
1807 1101 m 257
 332 182 l 257
 568 109 l 257
 2042 1028 l 257
 1807 1101 l 257
541 914 m 257
 472 724 l 257
 2104 724 l 257
 2173 914 l 257
 541 914 l 257
405 540 m 257
 335 350 l 257
 1967 350 l 257
 2037 540 l 257
 405 540 l 257
EndSplineSet
EndChar

StartChar: numbersign
Encoding: 478 35 478
GlifName: numbersign
Width: 2048
VWidth: 0
GlyphClass: 2
Flags: W
LayerCount: 2
Fore
SplineSet
1230 1347 m 257
 854 313 l 257
 994 313 l 257
 1370 1347 l 257
 1230 1347 l 257
1643 1350 m 257
 1254 279 l 257
 1420 279 l 257
 1809 1350 l 257
 1643 1350 l 257
1033 1157 m 257
 980 1010 l 257
 1798 1010 l 257
 1851 1157 l 257
 1033 1157 l 257
891 767 m 257
 827 592 l 257
 1653 592 l 257
 1717 767 l 257
 891 767 l 257
EndSplineSet
EndChar

StartChar: o
Encoding: 479 111 479
GlifName: o
Width: 2048
VWidth: 0
GlyphClass: 2
Flags: W
AnchorPoint: "top" 1362 1076 basechar 0
AnchorPoint: "base" 971 -120 basechar 0
LayerCount: 2
Fore
SplineSet
488 1023 m 257
 116 0 l 257
 316 0 l 257
 688 1023 l 257
 488 1023 l 257
2104 1023 m 257
 1732 0 l 257
 1934 0 l 257
 2306 1023 l 257
 2104 1023 l 257
612 1023 m 257
 539 822 l 257
 2125 822 l 257
 2198 1023 l 257
 612 1023 l 257
317 200 m 257
 244 0 l 257
 1816 0 l 257
 1889 200 l 257
 317 200 l 257
EndSplineSet
Substitution2: "Single Substitution lookup 11 subtable" ordmasculine
EndChar

StartChar: oe
Encoding: 484 339 484
GlifName: oe
Width: 2048
VWidth: 0
GlyphClass: 2
Flags: W
AnchorPoint: "top" 1468 1152 basechar 0
AnchorPoint: "base" 1076 -128 basechar 0
LayerCount: 2
Fore
SplineSet
1344 645 m 257
 1271 446 l 257
 2010 446 l 257
 2083 645 l 257
 1344 645 l 257
2195 1023 m 257
 1985 445 l 257
 2185 445 l 257
 2395 1023 l 257
 2195 1023 l 257
475 1023 m 257
 103 0 l 257
 303 0 l 257
 675 1023 l 257
 475 1023 l 257
1335 1023 m 257
 963 0 l 257
 1163 0 l 257
 1535 1023 l 257
 1335 1023 l 257
530 1023 m 257
 458 823 l 257
 2183 823 l 257
 2255 1023 l 257
 530 1023 l 257
222 200 m 257
 149 0 l 257
 2023 0 l 257
 2096 200 l 257
 222 200 l 257
EndSplineSet
EndChar

StartChar: ogonek
Encoding: 485 731 485
GlifName: ogonek
Width: 2048
VWidth: 0
GlyphClass: 2
Flags: W
LayerCount: 2
Fore
SplineSet
653 -274 m 257
 609 -396 l 257
 1151 -396 l 257
 1195 -274 l 257
 653 -274 l 257
758 14 m 257
 609 -396 l 257
 727 -396 l 257
 876 14 l 257
 758 14 l 257
758 14 m 257
 714 -107 l 257
 1256 -107 l 257
 1300 14 l 257
 758 14 l 257
EndSplineSet
EndChar

StartChar: omega
Encoding: 490 969 490
GlifName: omega
Width: 2048
VWidth: 0
GlyphClass: 2
Flags: W
LayerCount: 2
Fore
SplineSet
573 1023 m 257
 204 129 l 257
 403 129 l 257
 772 1023 l 257
 573 1023 l 257
2109 1024 m 257
 1843 127 l 257
 2042 127 l 257
 2308 1024 l 257
 2109 1024 l 257
1193 612 m 257
 920 119 l 257
 1121 119 l 257
 1394 612 l 257
 1193 612 l 257
229 197 m 257
 153 2 l 257
 996 119 l 257
 1069 319 l 257
 229 197 l 257
1124 319 m 257
 1051 119 l 257
 1996 2 l 257
 2067 197 l 257
 1124 319 l 257
EndSplineSet
EndChar

StartChar: one
Encoding: 494 49 494
GlifName: one
Width: 2048
VWidth: 0
GlyphClass: 2
Flags: W
LayerCount: 2
Fore
SplineSet
1022 0 m 257
 1220 0 l 257
 1783 1548 l 257
 1585 1548 l 257
 1022 0 l 257
1589 1548 m 257
 1284 1252 l 257
 1397 1152 l 257
 1703 1449 l 257
 1589 1548 l 257
EndSplineSet
Substitution2: "sinfScientificInferiorsinLatinlookup3 subtable" uni2081
Substitution2: "supsSuperscriptinLatinlookup16 subtable" uni00B9
EndChar

StartChar: onequarter
Encoding: 497 188 497
GlifName: onequarter
Width: 2048
VWidth: 0
GlyphClass: 2
Flags: W
LayerCount: 2
Fore
SplineSet
79 10 m 257
 182 10 l 257
 79 10 l 257
873 7 m 257
 932 7 l 257
 873 7 l 257
EndSplineSet
Refer: 596 185 N 1 0 0 1 -635 394 2
Refer: 557 47 N 1 0 0 1 -325 61 2
Refer: 1943 8324 N 1 0 0 1 470 13 2
Ligature2: "fracDiagonalFractionsinLatinlookup2 subtable" one slash four
Ligature2: "fracDiagonalFractionsinLatinlookup2 subtable" one fraction four
EndChar

StartChar: openbullet
Encoding: 499 9702 499
GlifName: whiteB_ullet
Width: 2048
VWidth: 0
GlyphClass: 2
Flags: W
LayerCount: 2
Fore
SplineSet
901 1038 m 257
 901 780 l 257
 1186 780 l 257
 1186 1038 l 257
 901 1038 l 257
929 1012 m 257
 1158 1012 l 257
 1158 806 l 257
 929 806 l 257
 929 1012 l 257
EndSplineSet
EndChar

StartChar: ordfeminine
Encoding: 500 170 500
GlifName: ordfeminine
Width: 2048
VWidth: 0
GlyphClass: 2
Flags: W
LayerCount: 2
Fore
SplineSet
697 1542 m 257
 624 1342 l 257
 2230 1342 l 257
 2303 1542 l 257
 697 1542 l 257
2190 1543 m 257
 1818 519 l 257
 2012 519 l 257
 2384 1543 l 257
 2190 1543 l 257
546 1117 m 257
 474 918 l 257
 2098 918 l 257
 2170 1117 l 257
 546 1117 l 257
538 1093 m 257
 328 516 l 257
 529 516 l 257
 739 1093 l 257
 538 1093 l 257
400 719 m 257
 327 519 l 257
 2017 519 l 257
 2090 719 l 257
 400 719 l 257
185 385 m 257
 126 223 l 257
 1922 223 l 257
 1981 385 l 257
 185 385 l 257
EndSplineSet
EndChar

StartChar: ordmasculine
Encoding: 501 186 501
GlifName: ordmasculine
Width: 2048
VWidth: 0
GlyphClass: 2
Flags: W
LayerCount: 2
Fore
SplineSet
662 1541 m 257
 290 518 l 257
 490 518 l 257
 862 1541 l 257
 662 1541 l 257
2277 1541 m 257
 1905 518 l 257
 2107 518 l 257
 2479 1541 l 257
 2277 1541 l 257
785 1541 m 257
 712 1340 l 257
 2298 1340 l 257
 2371 1541 l 257
 785 1541 l 257
490 718 m 257
 417 518 l 257
 1989 518 l 257
 2062 718 l 257
 490 718 l 257
238 355 m 257
 195 223 l 257
 2022 223 l 257
 2065 355 l 257
 238 355 l 257
EndSplineSet
EndChar

StartChar: oslash
Encoding: 502 248 502
GlifName: oslash
Width: 2048
VWidth: 0
GlyphClass: 2
Flags: W
AnchorPoint: "top" 1362 1076 basechar 0
AnchorPoint: "base" 971 -120 basechar 0
LayerCount: 2
Fore
SplineSet
2285 1164 m 257
 7 -5 l 257
 134 -103 l 257
 2412 1066 l 257
 2285 1164 l 257
476 1023 m 257
 104 0 l 257
 304 0 l 257
 676 1023 l 257
 476 1023 l 257
2115 1023 m 257
 1743 0 l 257
 1945 0 l 257
 2317 1023 l 257
 2115 1023 l 257
599 1023 m 257
 526 822 l 257
 2136 822 l 257
 2209 1023 l 257
 599 1023 l 257
304 200 m 257
 231 0 l 257
 1827 0 l 257
 1900 200 l 257
 304 200 l 257
EndSplineSet
EndChar

StartChar: ou
Encoding: 505 547 505
GlifName: ou
Width: 2048
VWidth: 0
Flags: W
LayerCount: 2
Fore
SplineSet
680 1552 m 257
 447 911 l 257
 647 911 l 257
 880 1552 l 257
 680 1552 l 257
2316 1552 m 257
 2081 915 l 257
 2281 915 l 257
 2516 1552 l 257
 2316 1552 l 257
386 779 m 257
 311 581 l 257
 2178 578 l 257
 2251 783 l 257
 386 779 l 257
386 779 m 257
 104 24 l 257
 308 24 l 257
 583 779 l 257
 386 779 l 257
2051 780 m 257
 1773 0 l 257
 1976 3 l 257
 2251 783 l 257
 2051 780 l 257
167 200 m 257
 92 0 l 257
 1966 0 l 257
 2039 200 l 257
 167 200 l 257
2251 783 m 257
 529 1143 l 257
 448 910 l 257
 2178 578 l 257
 2251 783 l 257
312 581 m 257
 2281 915 l 257
 2358 1139 l 257
 386 780 l 257
 312 581 l 257
EndSplineSet
EndChar

StartChar: p
Encoding: 506 112 506
GlifName: p
Width: 2048
VWidth: 0
GlyphClass: 2
Flags: W
AnchorPoint: "base" 128 -496 basechar 0
AnchorPoint: "top" 753 1339 basechar 0
LayerCount: 2
Fore
SplineSet
640 1203 m 257
 54 -406 l 257
 254 -406 l 257
 840 1203 l 257
 640 1203 l 257
672 1023 m 257
 599 821 l 257
 2137 821 l 257
 2210 1023 l 257
 672 1023 l 257
378 202 m 257
 304 0 l 257
 1844 0 l 257
 1918 202 l 257
 378 202 l 257
1961 876 m 257
 1706 175 l 257
 1904 175 l 257
 2159 876 l 257
 1961 876 l 257
EndSplineSet
EndChar

StartChar: paragraph
Encoding: 507 182 507
GlifName: paragraph
Width: 2048
VWidth: 0
GlyphClass: 2
Flags: W
LayerCount: 2
Fore
SplineSet
1013 1130 m 257
 961 985 l 257
 1525 985 l 257
 1577 1130 l 257
 1013 1130 l 257
1165 1548 m 257
 966 1000 l 257
 1126 1000 l 257
 1325 1548 l 257
 1165 1548 l 257
1165 1548 m 257
 1124 1435 l 257
 1944 1435 l 257
 1985 1548 l 257
 1165 1548 l 257
1635 1548 m 257
 1072 0 l 257
 1216 0 l 257
 1779 1548 l 257
 1635 1548 l 257
1905 1548 m 257
 1342 0 l 257
 1446 0 l 257
 2009 1548 l 257
 1905 1548 l 257
EndSplineSet
EndChar

StartChar: parenleft
Encoding: 508 40 508
GlifName: parenleft
Width: 2048
VWidth: 0
GlyphClass: 2
Flags: W
LayerCount: 2
Fore
SplineSet
1208 1023 m 257
 901 179 l 257
 1091 179 l 257
 1398 1023 l 257
 1208 1023 l 257
1748 1633 m 257
 1210 1028 l 257
 1398 1028 l 257
 1781 1640 l 257
 1748 1633 l 257
901 179 m 257
 1032 -406 l 257
 1064 -406 l 257
 1091 179 l 257
 901 179 l 257
EndSplineSet
EndChar

StartChar: parenright
Encoding: 509 41 509
GlifName: parenright
Width: 2048
VWidth: 0
GlyphClass: 2
Flags: W
LayerCount: 2
Fore
SplineSet
1372 1023 m 257
 1065 179 l 257
 1255 179 l 257
 1562 1023 l 257
 1372 1023 l 257
1451 1629 m 257
 1372 1023 l 257
 1562 1023 l 257
 1489 1629 l 257
 1451 1629 l 257
1065 179 m 257
 710 -406 l 257
 738 -406 l 257
 1255 179 l 257
 1065 179 l 257
EndSplineSet
EndChar

StartChar: partialdiff
Encoding: 510 8706 510
GlifName: partialdiff
Width: 2048
VWidth: 0
GlyphClass: 2
Flags: W
LayerCount: 2
Fore
SplineSet
1828 1548 m 257
 1716 0 l 257
 1917 0 l 257
 2029 1548 l 257
 1828 1548 l 257
600 1023 m 257
 527 822 l 257
 1892 822 l 257
 1965 1023 l 257
 600 1023 l 257
504 1023 m 257
 132 0 l 257
 333 0 l 257
 705 1023 l 257
 504 1023 l 257
299 195 m 257
 228 0 l 257
 1869 0 l 257
 1940 195 l 257
 299 195 l 257
1638 1537 m 257
 1570 1350 l 257
 1770 1359 l 257
 1838 1546 l 257
 1638 1537 l 257
EndSplineSet
EndChar

StartChar: percent
Encoding: 511 37 511
GlifName: percent
Width: 2048
VWidth: 0
GlyphClass: 2
Flags: W
LayerCount: 2
Fore
SplineSet
780 522 m 257
 771 377 l 257
 1719 716 l 257
 1727 860 l 257
 780 522 l 257
1148 1148 m 257
 1029 822 l 257
 1107 822 l 257
 1226 1148 l 257
 1148 1148 l 257
1149 1152 m 257
 1115 1057 l 257
 1463 1057 l 257
 1497 1152 l 257
 1149 1152 l 257
1047 871 m 257
 1017 789 l 257
 1361 789 l 257
 1391 871 l 257
 1047 871 l 257
1405 1152 m 257
 1274 791 l 257
 1366 791 l 257
 1497 1152 l 257
 1405 1152 l 257
1217 436 m 257
 1098 110 l 257
 1176 110 l 257
 1295 436 l 257
 1217 436 l 257
1218 440 m 257
 1184 345 l 257
 1530 345 l 257
 1564 440 l 257
 1218 440 l 257
1116 159 m 257
 1086 77 l 257
 1430 77 l 257
 1460 159 l 257
 1116 159 l 257
1472 440 m 257
 1341 79 l 257
 1433 79 l 257
 1564 440 l 257
 1472 440 l 257
EndSplineSet
EndChar

StartChar: period
Encoding: 512 46 512
GlifName: period
Width: 2048
VWidth: 0
GlyphClass: 2
Flags: W
LayerCount: 2
Fore
SplineSet
982 246 m 257
 892 0 l 257
 1156 0 l 257
 1246 246 l 257
 982 246 l 257
EndSplineSet
EndChar

StartChar: periodcentered
Encoding: 513 183 513
GlifName: periodcentered
Width: 2048
VWidth: 0
GlyphClass: 2
Flags: W
LayerCount: 2
Fore
SplineSet
1309 1146 m 257
 1219 899 l 257
 1483 899 l 257
 1573 1146 l 257
 1309 1146 l 257
EndSplineSet
EndChar

StartChar: perthousand
Encoding: 514 8240 514
GlifName: perthousand
Width: 2048
VWidth: 0
GlyphClass: 2
Flags: W
LayerCount: 2
Fore
SplineSet
1333 436 m 257
 1214 110 l 257
 1292 110 l 257
 1411 436 l 257
 1333 436 l 257
1334 440 m 257
 1300 345 l 257
 1646 345 l 257
 1680 440 l 257
 1334 440 l 257
1232 159 m 257
 1202 77 l 257
 1546 77 l 257
 1576 159 l 257
 1232 159 l 257
1588 440 m 257
 1457 79 l 257
 1549 79 l 257
 1680 440 l 257
 1588 440 l 257
718 522 m 257
 707 377 l 257
 1655 716 l 257
 1663 860 l 257
 718 522 l 257
1086 1148 m 257
 967 822 l 257
 1045 822 l 257
 1164 1148 l 257
 1086 1148 l 257
1087 1152 m 257
 1053 1057 l 257
 1399 1057 l 257
 1433 1152 l 257
 1087 1152 l 257
985 871 m 257
 955 789 l 257
 1299 789 l 257
 1329 871 l 257
 985 871 l 257
1341 1152 m 257
 1210 791 l 257
 1302 791 l 257
 1433 1152 l 257
 1341 1152 l 257
931 436 m 257
 812 110 l 257
 890 110 l 257
 1009 436 l 257
 931 436 l 257
932 440 m 257
 898 345 l 257
 1246 345 l 257
 1280 440 l 257
 932 440 l 257
830 159 m 257
 800 77 l 257
 1144 77 l 257
 1174 159 l 257
 830 159 l 257
1188 440 m 257
 1057 79 l 257
 1149 79 l 257
 1280 440 l 257
 1188 440 l 257
EndSplineSet
EndChar

StartChar: peseta
Encoding: 515 8359 515
GlifName: peseta
Width: 2048
VWidth: 0
GlyphClass: 2
Flags: W
LayerCount: 2
Fore
SplineSet
1231 1548 m 257
 671 0 l 257
 741 0 l 257
 1301 1548 l 257
 1231 1548 l 257
1260 1548 m 257
 1187 1346 l 257
 1429 1346 l 257
 1503 1548 l 257
 1260 1548 l 257
1436 1548 m 257
 1193 881 l 257
 1267 881 l 257
 1510 1548 l 257
 1436 1548 l 257
1080 1068 m 257
 1007 868 l 257
 1261 868 l 257
 1334 1068 l 257
 1080 1068 l 257
1599 1526 m 257
 1044 0 l 257
 1110 0 l 257
 1665 1526 l 257
 1599 1526 l 257
1116 198 m 257
 1045 0 l 257
 1176 0 l 257
 1247 198 l 257
 1116 198 l 257
1333 1009 m 257
 1261 813 l 257
 1484 813 l 257
 1555 1009 l 257
 1333 1009 l 257
1448 609 m 257
 1405 491 l 257
 1559 491 l 257
 1602 609 l 257
 1448 609 l 257
1448 609 m 257
 1385 438 l 257
 1436 438 l 257
 1498 609 l 257
 1448 609 l 257
1269 118 m 257
 1225 0 l 257
 1379 0 l 257
 1422 118 l 257
 1269 118 l 257
1391 173 m 257
 1330 5 l 257
 1381 5 l 257
 1442 173 l 257
 1391 173 l 257
1385 438 m 257
 1391 173 l 257
 1442 173 l 257
 1436 438 l 257
 1385 438 l 257
EndSplineSet
EndChar

StartChar: phi
Encoding: 516 966 516
GlifName: phi
Width: 2048
VWidth: 0
GlyphClass: 2
Flags: W
LayerCount: 2
Fore
SplineSet
627 1023 m 257
 254 0 l 257
 454 0 l 257
 827 1023 l 257
 627 1023 l 257
2266 1023 m 257
 1893 0 l 257
 2095 0 l 257
 2468 1023 l 257
 2266 1023 l 257
750 1023 m 257
 677 822 l 257
 2287 822 l 257
 2360 1023 l 257
 750 1023 l 257
454 200 m 257
 381 0 l 257
 1977 0 l 257
 2050 200 l 257
 454 200 l 257
1511 1202 m 257
 923 -413 l 257
 1125 -413 l 257
 1713 1202 l 257
 1511 1202 l 257
EndSplineSet
EndChar

StartChar: phi1
Encoding: 517 981 517
GlifName: phiS_ymbol
Width: 2048
VWidth: 0
GlyphClass: 2
Flags: W
LayerCount: 2
Fore
SplineSet
365 1110 m 257
 -30 25 l 257
 170 25 l 257
 565 1110 l 257
 365 1110 l 257
34 201 m 257
 -39 1 l 257
 1800 1 l 257
 1873 201 l 257
 34 201 l 257
2088 1098 m 257
 1689 0 l 257
 1889 0 l 257
 2288 1098 l 257
 2088 1098 l 257
1269 1098 m 257
 1196 898 l 257
 2215 898 l 257
 2288 1098 l 257
 1269 1098 l 257
1252 1098 m 257
 669 -503 l 257
 869 -503 l 257
 1452 1098 l 257
 1252 1098 l 257
EndSplineSet
EndChar

StartChar: pi
Encoding: 518 960 518
GlifName: pi
Width: 2048
VWidth: 0
GlyphClass: 2
Flags: W
LayerCount: 2
Fore
SplineSet
560 990 m 257
 188 0 l 257
 389 0 l 257
 761 990 l 257
 560 990 l 257
1978 976 m 257
 1611 0 l 257
 1812 0 l 257
 2179 976 l 257
 1978 976 l 257
452 1023 m 257
 378 826 l 257
 2264 826 l 257
 2338 1023 l 257
 452 1023 l 257
EndSplineSet
EndChar

StartChar: plus
Encoding: 519 43 519
GlifName: plus
Width: 2048
VWidth: 0
GlyphClass: 2
Flags: W
LayerCount: 2
Fore
SplineSet
1340 1221 m 257
 956 165 l 257
 1181 165 l 257
 1565 1221 l 257
 1340 1221 l 257
872 821 m 257
 796 613 l 257
 1698 613 l 257
 1774 821 l 257
 872 821 l 257
EndSplineSet
EndChar

StartChar: plusminus
Encoding: 520 177 520
GlifName: plusminus
Width: 2048
VWidth: 0
GlyphClass: 2
Flags: W
LayerCount: 2
Fore
SplineSet
650 108 m 257
 575 -100 l 257
 1401 -100 l 257
 1476 108 l 257
 650 108 l 257
1340 1221 m 257
 956 165 l 257
 1181 165 l 257
 1565 1221 l 257
 1340 1221 l 257
872 821 m 257
 796 613 l 257
 1698 613 l 257
 1774 821 l 257
 872 821 l 257
EndSplineSet
EndChar

StartChar: product
Encoding: 522 8719 522
GlifName: product
Width: 2048
VWidth: 0
GlyphClass: 2
Flags: W
LayerCount: 2
Fore
SplineSet
925 1537 m 257
 366 0 l 257
 567 0 l 257
 1126 1537 l 257
 925 1537 l 257
2034 1537 m 257
 1475 0 l 257
 1678 0 l 257
 2237 1537 l 257
 2034 1537 l 257
615 1537 m 257
 543 1337 l 257
 2493 1337 l 257
 2565 1537 l 257
 615 1537 l 257
EndSplineSet
EndChar

StartChar: psi
Encoding: 523 968 523
GlifName: psi
Width: 2048
VWidth: 0
GlyphClass: 2
Flags: W
LayerCount: 2
Fore
SplineSet
1355 1015 m 257
 923 -129 l 257
 1125 -129 l 257
 1557 1015 l 257
 1355 1015 l 257
597 1020 m 257
 318 278 l 257
 518 278 l 257
 797 1020 l 257
 597 1020 l 257
2126 1020 m 257
 1847 278 l 257
 2046 278 l 257
 2325 1020 l 257
 2126 1020 l 257
461 478 m 257
 386 278 l 257
 1956 278 l 257
 2031 478 l 257
 461 478 l 257
EndSplineSet
EndChar

StartChar: q
Encoding: 524 113 524
GlifName: q
Width: 2048
VWidth: 0
GlyphClass: 2
Flags: W
AnchorPoint: "top" 1968 1279 basechar 0
AnchorPoint: "base" 1385 -489 basechar 0
LayerCount: 2
Fore
SplineSet
1861 1201 m 257
 1276 -406 l 257
 1474 -406 l 257
 2059 1201 l 257
 1861 1201 l 257
522 1023 m 257
 450 823 l 257
 1900 823 l 257
 1972 1023 l 257
 522 1023 l 257
226 203 m 257
 152 0 l 257
 1568 0 l 257
 1642 203 l 257
 226 203 l 257
461 855 m 257
 189 107 l 257
 389 107 l 257
 661 855 l 257
 461 855 l 257
1364 -268 m 257
 1314 -406 l 257
 1750 -406 l 257
 1800 -268 l 257
 1364 -268 l 257
EndSplineSet
EndChar

StartChar: question
Encoding: 525 63 525
GlifName: question
Width: 2048
VWidth: 0
GlyphClass: 2
Flags: W
LayerCount: 2
Fore
SplineSet
970 247 m 257
 880 0 l 257
 1126 0 l 257
 1216 247 l 257
 970 247 l 257
1257 1519 m 257
 1189 1333 l 257
 1825 1333 l 257
 1893 1519 l 257
 1257 1519 l 257
1701 1514 m 257
 1502 966 l 257
 1696 966 l 257
 1895 1514 l 257
 1701 1514 l 257
1249 1015 m 257
 1177 816 l 257
 1641 816 l 257
 1713 1015 l 257
 1249 1015 l 257
1248 1011 m 257
 1023 392 l 257
 1271 392 l 257
 1496 1011 l 257
 1248 1011 l 257
EndSplineSet
EndChar

StartChar: questiondown
Encoding: 526 191 526
GlifName: questiondown
Width: 2048
VWidth: 0
GlyphClass: 2
Flags: W
LayerCount: 2
Fore
SplineSet
1631 1273 m 257
 1721 1519 l 257
 1471 1519 l 257
 1381 1272 l 257
 1631 1273 l 257
1344 0 m 257
 1412 186 l 257
 776 186 l 257
 708 0 l 257
 1344 0 l 257
900 5 m 257
 1099 553 l 257
 905 553 l 257
 706 5 l 257
 900 5 l 257
1351 504 m 257
 1424 703 l 257
 960 703 l 257
 887 504 l 257
 1351 504 l 257
1353 508 m 257
 1578 1127 l 257
 1330 1127 l 257
 1105 508 l 257
 1353 508 l 257
EndSplineSet
EndChar

StartChar: quotedbl
Encoding: 527 34 527
GlifName: quotedbl
Width: 2048
VWidth: 0
GlyphClass: 2
Flags: W
LayerCount: 2
Fore
SplineSet
1235 1326 m 257
 1379 1326 l 257
 1469 1574 l 257
 1325 1574 l 257
 1235 1326 l 257
1635 1326 m 257
 1779 1326 l 257
 1869 1574 l 257
 1725 1574 l 257
 1635 1326 l 257
EndSplineSet
EndChar

StartChar: quotedblbase
Encoding: 528 8222 528
GlifName: quotedblbase
Width: 2048
VWidth: 0
GlyphClass: 2
Flags: W
LayerCount: 2
Fore
SplineSet
284 237 m 257
 201 8 l 257
 449 8 l 257
 532 237 l 257
 284 237 l 257
346 135 m 257
 126 -146 l 257
 247 -206 l 257
 444 0 l 257
 346 135 l 257
683 237 m 257
 600 8 l 257
 848 8 l 257
 931 237 l 257
 683 237 l 257
745 135 m 257
 525 -146 l 257
 646 -206 l 257
 843 0 l 257
 745 135 l 257
EndSplineSet
EndChar

StartChar: quotedblleft
Encoding: 529 8220 529
GlifName: quotedblleft
Width: 2048
VWidth: 0
GlyphClass: 2
Flags: W
LayerCount: 2
Fore
SplineSet
1640 1842 m 257
 1724 2071 l 257
 1476 2071 l 257
 1392 1842 l 257
 1640 1842 l 257
1580 1944 m 257
 1800 2225 l 257
 1678 2285 l 257
 1479 2075 l 257
 1580 1944 l 257
1976 1842 m 257
 2060 2071 l 257
 1812 2071 l 257
 1728 1842 l 257
 1976 1842 l 257
1916 1944 m 257
 2136 2225 l 257
 2014 2285 l 257
 1815 2075 l 257
 1916 1944 l 257
EndSplineSet
EndChar

StartChar: quotedblright
Encoding: 530 8221 530
GlifName: quotedblright
Width: 2048
VWidth: 0
GlyphClass: 2
Flags: W
LayerCount: 2
Fore
SplineSet
1900 2285 m 257
 1816 2056 l 257
 2064 2056 l 257
 2148 2285 l 257
 1900 2285 l 257
1963 2183 m 257
 1742 1902 l 257
 1862 1842 l 257
 2061 2052 l 257
 1963 2183 l 257
1582 2285 m 257
 1498 2056 l 257
 1746 2056 l 257
 1830 2285 l 257
 1582 2285 l 257
1645 2183 m 257
 1424 1902 l 257
 1544 1842 l 257
 1743 2052 l 257
 1645 2183 l 257
EndSplineSet
EndChar

StartChar: quoteleft
Encoding: 531 8216 531
GlifName: quoteleft
Width: 2048
VWidth: 0
GlyphClass: 2
Flags: W
LayerCount: 2
Fore
SplineSet
1071 1028 m 257
 1155 1257 l 257
 907 1257 l 257
 823 1028 l 257
 1071 1028 l 257
1011 1130 m 257
 1231 1411 l 257
 1109 1471 l 257
 910 1261 l 257
 1011 1130 l 257
EndSplineSet
EndChar

StartChar: quoteright
Encoding: 532 8217 532
GlifName: quoteright
Width: 2048
VWidth: 0
GlyphClass: 2
Flags: W
LayerCount: 2
Fore
SplineSet
1742 2285 m 257
 1658 2056 l 257
 1906 2056 l 257
 1990 2285 l 257
 1742 2285 l 257
1803 2183 m 257
 1582 1902 l 257
 1704 1842 l 257
 1903 2052 l 257
 1803 2183 l 257
EndSplineSet
EndChar

StartChar: quotesinglbase
Encoding: 533 8218 533
GlifName: quotesinglbase
Width: 2048
VWidth: 0
GlyphClass: 2
Flags: W
LayerCount: 2
Fore
SplineSet
996 237 m 257
 913 8 l 257
 1161 8 l 257
 1244 237 l 257
 996 237 l 257
1057 135 m 257
 837 -146 l 257
 959 -206 l 257
 1156 0 l 257
 1057 135 l 257
EndSplineSet
EndChar

StartChar: quotesingle
Encoding: 534 39 534
GlifName: quotesingle
Width: 2048
VWidth: 0
GlyphClass: 2
Flags: W
LayerCount: 2
Fore
SplineSet
1504 1496 m 257
 1419 1264 l 257
 1549 1264 l 257
 1634 1496 l 257
 1504 1496 l 257
EndSplineSet
EndChar

StartChar: r
Encoding: 535 114 535
GlifName: r
Width: 2048
VWidth: 0
GlyphClass: 2
Flags: W
AnchorPoint: "top" 1391 1122 basechar 0
AnchorPoint: "base" 989 -94 basechar 0
LayerCount: 2
Fore
SplineSet
530 1023 m 257
 457 821 l 257
 2189 821 l 257
 2262 1023 l 257
 530 1023 l 257
1219 954 m 257
 872 0 l 257
 1072 0 l 257
 1419 954 l 257
 1219 954 l 257
2045 976 m 257
 1927 650 l 257
 2127 650 l 257
 2245 976 l 257
 2045 976 l 257
EndSplineSet
EndChar

StartChar: radical
Encoding: 537 8730 537
GlifName: radical
Width: 2048
VWidth: 0
GlyphClass: 2
Flags: W
LayerCount: 2
Fore
SplineSet
1212 1390 m 257
 1016 117 l 257
 1200 117 l 257
 1396 1390 l 257
 1212 1390 l 257
696 620 m 257
 622 396 l 257
 718 317 l 257
 901 675 l 257
 696 620 l 257
706 621 m 257
 1016 117 l 257
 1200 117 l 257
 904 679 l 257
 706 621 l 257
EndSplineSet
EndChar

StartChar: registered
Encoding: 540 174 540
GlifName: registered
Width: 2048
VWidth: 0
GlyphClass: 2
Flags: W
LayerCount: 2
Fore
SplineSet
985 1032 m 257
 791 501 l 257
 859 501 l 257
 1053 1032 l 257
 985 1032 l 257
1010 1032 m 257
 985 963 l 257
 1814 963 l 257
 1839 1032 l 257
 1010 1032 l 257
1779 1032 m 257
 1695 802 l 257
 1764 802 l 257
 1848 1032 l 257
 1779 1032 l 257
948 875 m 257
 922 801 l 257
 1760 801 l 257
 1786 875 l 257
 948 875 l 257
971 809 m 257
 1593 485 l 257
 1728 485 l 257
 1093 809 l 257
 971 809 l 257
712 1537 m 257
 153 0 l 257
 354 0 l 257
 913 1537 l 257
 712 1537 l 257
2251 1537 m 257
 1692 0 l 257
 1895 0 l 257
 2454 1537 l 257
 2251 1537 l 257
853 1537 m 257
 781 1337 l 257
 2224 1337 l 257
 2296 1537 l 257
 853 1537 l 257
344 204 m 257
 270 0 l 257
 1743 0 l 257
 1817 204 l 257
 344 204 l 257
EndSplineSet
EndChar

StartChar: rho
Encoding: 541 961 541
GlifName: rho
Width: 2048
VWidth: 0
GlyphClass: 2
Flags: W
LayerCount: 2
Fore
SplineSet
759 1203 m 257
 173 -406 l 257
 373 -406 l 257
 959 1203 l 257
 759 1203 l 257
857 1203 m 257
 783 1001 l 257
 2281 821 l 257
 2354 1023 l 257
 857 1203 l 257
496 202 m 257
 423 0 l 257
 2040 147 l 257
 2114 349 l 257
 496 202 l 257
2104 876 m 257
 1882 266 l 257
 2080 266 l 257
 2302 876 l 257
 2104 876 l 257
EndSplineSet
EndChar

StartChar: ring
Encoding: 542 730 542
GlifName: ring
Width: 2048
VWidth: 0
GlyphClass: 2
Flags: W
LayerCount: 2
Fore
SplineSet
1405 1252 m 257
 1553 1252 l 257
 1505 1122 l 257
 1357 1122 l 257
 1405 1252 l 257
1333 1343 m 257
 1220 1034 l 257
 1580 1034 l 257
 1693 1343 l 257
 1333 1343 l 257
EndSplineSet
EndChar

StartChar: s
Encoding: 543 115 543
GlifName: s
Width: 2048
VWidth: 0
GlyphClass: 2
Flags: W
AnchorPoint: "top" 1422 1117 basechar 0
AnchorPoint: "base" 1021 -76 basechar 0
LayerCount: 2
Fore
SplineSet
591 1023 m 257
 520 826 l 257
 2129 826 l 257
 2200 1023 l 257
 591 1023 l 257
591 1023 m 257
 487 736 l 257
 687 736 l 257
 791 1023 l 257
 591 1023 l 257
293 201 m 257
 220 0 l 257
 1825 0 l 257
 1898 201 l 257
 293 201 l 257
1731 293 m 257
 1628 12 l 257
 1828 12 l 257
 1931 293 l 257
 1731 293 l 257
488 736 m 257
 1731 293 l 257
 1931 293 l 257
 688 736 l 257
 488 736 l 257
EndSplineSet
EndChar

StartChar: section
Encoding: 550 167 550
GlifName: section
Width: 2048
VWidth: 0
GlyphClass: 2
Flags: W
LayerCount: 2
Fore
SplineSet
1085 1238 m 257
 1011 1035 l 257
 1609 1035 l 257
 1683 1238 l 257
 1085 1238 l 257
1086 1241 m 257
 854 605 l 257
 1056 605 l 257
 1288 1241 l 257
 1086 1241 l 257
648 -61 m 257
 575 -260 l 257
 1283 -260 l 257
 1356 -61 l 257
 648 -61 l 257
1120 -259 m 257
 1320 -259 l 257
 1449 95 l 257
 1249 95 l 257
 1120 -259 l 257
854 605 m 257
 1249 95 l 257
 1449 95 l 257
 1056 605 l 257
 854 605 l 257
1226 1626 m 257
 1152 1423 l 257
 1750 1423 l 257
 1824 1626 l 257
 1226 1626 l 257
1227 1629 m 257
 1084 1237 l 257
 1286 1237 l 257
 1429 1629 l 257
 1227 1629 l 257
766 286 m 257
 694 87 l 257
 1402 87 l 257
 1474 286 l 257
 766 286 l 257
1236 88 m 257
 1438 88 l 257
 1567 442 l 257
 1365 442 l 257
 1236 88 l 257
1084 1237 m 257
 1365 442 l 257
 1567 442 l 257
 1286 1237 l 257
 1084 1237 l 257
EndSplineSet
EndChar

StartChar: semicolon
Encoding: 551 59 551
GlifName: semicolon
Width: 2048
VWidth: 0
GlyphClass: 2
Flags: W
LayerCount: 2
Fore
SplineSet
1069 430 m 257
 985 201 l 257
 1233 201 l 257
 1317 430 l 257
 1069 430 l 257
1129 328 m 257
 909 47 l 257
 1031 -13 l 257
 1230 197 l 257
 1129 328 l 257
1205 871 m 257
 1115 624 l 257
 1381 624 l 257
 1471 871 l 257
 1205 871 l 257
EndSplineSet
EndChar

StartChar: seven
Encoding: 552 55 552
GlifName: seven
Width: 2048
VWidth: 0
GlyphClass: 2
Flags: W
LayerCount: 2
Fore
SplineSet
547 1355 m 257
 2281 1355 l 257
 1788 0 l 257
 1991 0 l 257
 2558 1557 l 257
 621 1557 l 257
 547 1355 l 257
EndSplineSet
Substitution2: "sinfScientificInferiorsinLatinlookup3 subtable" uni2087
Substitution2: "supsSuperscriptinLatinlookup16 subtable" uni2077
EndChar

StartChar: sigma
Encoding: 554 963 554
GlifName: sigma
Width: 2048
VWidth: 0
GlyphClass: 2
Flags: W
LayerCount: 2
Fore
SplineSet
423 1023 m 257
 38 0 l 257
 238 0 l 257
 623 1023 l 257
 423 1023 l 257
1748 1023 m 257
 1363 0 l 257
 1565 0 l 257
 1950 1023 l 257
 1748 1023 l 257
546 1023 m 257
 470 822 l 257
 2302 822 l 257
 2378 1023 l 257
 546 1023 l 257
240 200 m 257
 165 0 l 257
 1505 0 l 257
 1580 200 l 257
 240 200 l 257
EndSplineSet
EndChar

StartChar: sigma1
Encoding: 555 962 555
GlifName: sigmafinal
Width: 2048
VWidth: 0
GlyphClass: 2
Flags: W
LayerCount: 2
Fore
SplineSet
654 1023 m 257
 581 823 l 257
 2301 823 l 257
 2374 1023 l 257
 654 1023 l 257
642 984 m 257
 302 51 l 257
 503 53 l 257
 843 986 l 257
 642 984 l 257
413 253 m 257
 340 53 l 257
 2017 51 l 257
 2090 251 l 257
 413 253 l 257
1304 -124 m 257
 1231 -324 l 257
 1881 -324 l 257
 1954 -124 l 257
 1304 -124 l 257
1835 100 m 257
 1696 -284 l 257
 1896 -284 l 257
 2035 100 l 257
 1835 100 l 257
EndSplineSet
EndChar

StartChar: six
Encoding: 556 54 556
GlifName: six
Width: 2048
VWidth: 0
GlyphClass: 2
Flags: W
LayerCount: 2
Fore
SplineSet
604 1548 m 257
 114 201 l 257
 41 0 l 257
 2004 0 l 257
 2353 959 l 257
 593 959 l 257
 735 1348 l 257
 2500 1348 l 257
 2572 1548 l 257
 604 1548 l 257
2072 759 m 257
 1870 203 l 257
 324 203 l 257
 526 759 l 257
 2072 759 l 257
EndSplineSet
Substitution2: "sinfScientificInferiorsinLatinlookup3 subtable" uni2086
Substitution2: "supsSuperscriptinLatinlookup16 subtable" uni2076
EndChar

StartChar: slash
Encoding: 557 47 557
GlifName: slash
Width: 2048
VWidth: 0
GlyphClass: 2
Flags: W
LayerCount: 2
Fore
SplineSet
1755 1483 m 257
 647 6 l 257
 809 -67 l 257
 1916 1410 l 257
 1755 1483 l 257
EndSplineSet
EndChar

StartChar: sterling
Encoding: 559 163 559
GlifName: sterling
Width: 2048
VWidth: 0
GlyphClass: 2
Flags: W
LayerCount: 2
Fore
SplineSet
1496 1543 m 257
 1423 1344 l 257
 1714 1344 l 257
 1787 1543 l 257
 1496 1543 l 257
887 770 m 257
 815 571 l 257
 1541 571 l 257
 1613 770 l 257
 887 770 l 257
1451 1542 m 257
 890 0 l 257
 1088 0 l 257
 1649 1542 l 257
 1451 1542 l 257
789 202 m 257
 715 0 l 257
 1441 0 l 257
 1515 202 l 257
 789 202 l 257
EndSplineSet
EndChar

StartChar: summation
Encoding: 560 8721 560
GlifName: summation
Width: 2048
VWidth: 0
GlyphClass: 2
Flags: W
LayerCount: 2
Fore
SplineSet
1554 830 m 257
 186 112 l 257
 105 -112 l 257
 1480 627 l 257
 1554 830 l 257
1553 823 m 257
 688.15 1539 l 257
 615.992 1338 l 257
 1481 624 l 257
 1553 823 l 257
2360.63 1337 m 257
 2433.42 1537 l 257
 687.422 1537 l 257
 614.628 1337 l 257
 2360.63 1337 l 257
1812 -98 m 257
 1887 108 l 257
 200 108 l 257
 125 -98 l 257
 1812 -98 l 257
EndSplineSet
EndChar

StartChar: t
Encoding: 561 116 561
GlifName: t
Width: 2048
VWidth: 0
GlyphClass: 2
Flags: W
AnchorPoint: "top" 1612 1652 basechar 0
AnchorPoint: "base" 1020 -92 basechar 0
LayerCount: 2
Fore
SplineSet
1485 1548 m 257
 922 0 l 257
 1122 0 l 257
 1685 1548 l 257
 1485 1548 l 257
1002 199 m 257
 930 0 l 257
 1822 0 l 257
 1894 199 l 257
 1002 199 l 257
558 1023 m 257
 486 824 l 257
 2160 824 l 257
 2232 1023 l 257
 558 1023 l 257
EndSplineSet
EndChar

StartChar: tcaron
Encoding: 564 357 564
GlifName: tcaron
Width: 2048
VWidth: 0
GlyphClass: 2
Flags: W
AnchorPoint: "base" 1024 -78 basechar 0
LayerCount: 2
Fore
SplineSet
1411 1529 m 257
 854 0 l 257
 1055 0 l 257
 1612 1529 l 257
 1411 1529 l 257
1079 199 m 257
 1007 0 l 257
 1910 0 l 257
 1982 199 l 257
 1079 199 l 257
442 1023 m 257
 370 824 l 257
 2173 824 l 257
 2245 1023 l 257
 442 1023 l 257
1940 1496 m 257
 1866 1291 l 257
 1996 1291 l 257
 2070 1496 l 257
 1940 1496 l 257
EndSplineSet
EndChar

StartChar: theta
Encoding: 567 952 567
GlifName: theta
Width: 2048
VWidth: 0
GlyphClass: 2
Flags: W
LayerCount: 2
Fore
SplineSet
287 908 m 257
 215 708 l 257
 1846 701 l 257
 1919 901 l 257
 287 908 l 257
474 1276 m 257
 1214 1359 l 257
 1936 1282 l 257
 1579 301 l 257
 789 208 l 257
 120 301 l 257
 474 1276 l 257
327 1425 m 257
 -133 163 l 257
 732 7 l 257
 1728 163 l 257
 2190 1431 l 257
 1267 1559 l 257
 327 1425 l 257
EndSplineSet
EndChar

StartChar: thorn
Encoding: 569 254 569
GlifName: thorn
Width: 2048
VWidth: 0
GlyphClass: 2
Flags: W
AnchorPoint: "base" 776 -491 basechar 0
LayerCount: 2
Fore
SplineSet
549 1630 m 257
 25 -406 l 257
 225 -406 l 257
 749 1630 l 257
 549 1630 l 257
603 1012 m 257
 530 813 l 257
 2110 813 l 257
 2183 1012 l 257
 603 1012 l 257
370 204 m 257
 297 3 l 257
 1867 3 l 257
 1940 204 l 257
 370 204 l 257
1957 942 m 257
 1702 94 l 257
 1900 94 l 257
 2155 942 l 257
 1957 942 l 257
EndSplineSet
EndChar

StartChar: three
Encoding: 570 51 570
GlifName: three
Width: 2048
VWidth: 0
GlyphClass: 2
Flags: W
LayerCount: 2
Fore
SplineSet
369 736 m 257
 2051 736 l 257
 1853 192 l 257
 129 192 l 257
 56 -8 l 257
 1984 -8 l 257
 2552 1553 l 257
 654 1553 l 257
 581 1353 l 257
 2273 1353 l 257
 2122 936 l 257
 442 936 l 257
 369 736 l 257
EndSplineSet
Substitution2: "sinfScientificInferiorsinLatinlookup3 subtable" uni2083
Substitution2: "supsSuperscriptinLatinlookup16 subtable" uni00B3
EndChar

StartChar: tilde
Encoding: 573 732 573
GlifName: tilde
Width: 2048
VWidth: 0
GlyphClass: 2
Flags: W
LayerCount: 2
Fore
SplineSet
1142 781 m 257
 1106 682 l 257
 1434 621 l 257
 1470 720 l 257
 1142 781 l 257
883 723 m 257
 863 625 l 257
 1106 682 l 257
 1142 781 l 257
 883 723 l 257
1470 720 m 257
 1434 621 l 257
 1667 762 l 257
 1678 858 l 257
 1470 720 l 257
EndSplineSet
EndChar

StartChar: tildecomb
Encoding: 574 771 574
GlifName: tildecomb
Width: 0
VWidth: 0
GlyphClass: 4
Flags: W
AnchorPoint: "top" -4 767 mark 0
LayerCount: 2
Fore
SplineSet
-177 975 m 257
 -213 876 l 257
 114 815 l 257
 150 914 l 257
 -177 975 l 257
-436 917 m 257
 -458 819 l 257
 -213 876 l 257
 -177 975 l 257
 -436 917 l 257
150 914 m 257
 114 815 l 257
 346 956 l 257
 357 1052 l 257
 150 914 l 257
EndSplineSet
EndChar

StartChar: tonos
Encoding: 575 900 575
GlifName: tonos
Width: 2048
VWidth: 0
GlyphClass: 2
Flags: W
AnchorPoint: "top" -1 785 mark 0
LayerCount: 2
Fore
SplineSet
1116 1074 m 257
 986 820 l 257
 1074 774 l 257
 1205 1029 l 257
 1116 1074 l 257
EndSplineSet
EndChar

StartChar: triagdn
Encoding: 577 9660 577
GlifName: downB_lackT_riangle
Width: 2048
VWidth: 0
GlyphClass: 2
Flags: W
LayerCount: 2
Fore
SplineSet
1028 332 m 257
 1444 1021 l 257
 620 1024 l 257
 1028 332 l 257
EndSplineSet
EndChar

StartChar: triagup
Encoding: 578 9650 578
GlifName: upB_lackT_riangle
Width: 2048
VWidth: 0
GlyphClass: 2
Flags: W
LayerCount: 2
Fore
SplineSet
1013 1039 m 257
 600 369 l 257
 1421 347 l 257
 1013 1039 l 257
EndSplineSet
EndChar

StartChar: two
Encoding: 579 50 579
GlifName: two
Width: 2048
VWidth: 0
GlyphClass: 2
Flags: W
LayerCount: 2
Fore
SplineSet
598 1344 m 257
 2231 1344 l 257
 2072 908 l 257
 446 908 l 257
 116 0 l 257
 1928 0 l 257
 2001 200 l 257
 392 200 l 257
 576 707 l 257
 2199 707 l 257
 2505 1548 l 257
 672 1548 l 257
 598 1344 l 257
EndSplineSet
Substitution2: "sinfScientificInferiorsinLatinlookup3 subtable" uni2082
Substitution2: "supsSuperscriptinLatinlookup16 subtable" uni00B2
EndChar

StartChar: u
Encoding: 581 117 581
GlifName: u
Width: 2048
VWidth: 0
GlyphClass: 2
Flags: W
AnchorPoint: "top" 1404 1129 basechar 0
AnchorPoint: "base" 1025 -78 basechar 0
LayerCount: 2
Fore
SplineSet
522 1023 m 257
 150 0 l 257
 350 0 l 257
 722 1023 l 257
 522 1023 l 257
1754 1023 m 257
 1382 0 l 257
 1582 0 l 257
 1954 1023 l 257
 1754 1023 l 257
269 200 m 257
 196 0 l 257
 1898 0 l 257
 1971 200 l 257
 269 200 l 257
EndSplineSet
EndChar

StartChar: underscore
Encoding: 590 95 590
GlifName: underscore
Width: 2048
VWidth: 0
GlyphClass: 2
Flags: W
LayerCount: 2
Fore
SplineSet
-2 -5 m 257
 -26 -71 l 257
 2026 -71 l 257
 2050 -5 l 257
 -2 -5 l 257
EndSplineSet
EndChar

StartChar: uni0000
Encoding: 591 0 591
GlifName: _notdef
Width: 2048
VWidth: 0
GlyphClass: 2
Flags: W
LayerCount: 2
Fore
SplineSet
519 -16 m 257
 1517 -16 l 257
 2114 1624 l 257
 1116 1624 l 257
 519 -16 l 257
622 64 m 257
 1162 1548 l 257
 1293 827 l 257
 622 64 l 257
714 64 m 257
 1303 750 l 257
 1394 64 l 257
 714 64 l 257
1286 1558 m 257
 1917 1558 l 257
 1363 909 l 257
 1286 1558 l 257
1373 832 m 257
 2013 1559 l 257
 1469 64 l 257
 1373 832 l 257
EndSplineSet
EndChar

StartChar: uni0182
Encoding: 599 386 599
GlifName: B_topbar
Width: 2048
VWidth: 0
GlyphClass: 2
Flags: W
AnchorPoint: "top" 1376 1585 basechar 0
AnchorPoint: "base" 1025 -74 basechar 0
LayerCount: 2
Fore
SplineSet
90 0 m 257
 298 0 l 257
 857 1537 l 257
 649 1537 l 257
 90 0 l 257
1453 201 m 257
 1380 0 l 257
 2066 364 l 257
 2148 588 l 257
 1453 201 l 257
1652 567 m 257
 2066 364 l 257
 2147 586 l 257
 1725 766 l 257
 1652 567 l 257
529 766 m 257
 456 567 l 257
 1652 567 l 257
 1725 766 l 257
 529 766 l 257
261 200 m 257
 188 0 l 257
 1380 0 l 257
 1453 200 l 257
 261 200 l 257
809 1537 m 257
 734 1331 l 257
 2400 1331 l 257
 2475 1537 l 257
 809 1537 l 257
EndSplineSet
EndChar

StartChar: uni018F
Encoding: 607 399 607
GlifName: uni018F_
Width: 2048
VWidth: 0
GlyphClass: 2
Flags: W
AnchorPoint: "top" 1161 1630 basechar 0
AnchorPoint: "base" 647 -117 basechar 0
LayerCount: 2
Fore
SplineSet
1828 0 m 257
 1905 200 l 257
 342 200 l 257
 265 0 l 257
 1828 0 l 257
1878 0 m 257
 2440 1543 l 257
 2238 1543 l 257
 1676 0 l 257
 1878 0 l 257
2264 1342 m 257
 2338 1543 l 257
 732 1543 l 257
 658 1342 l 257
 2264 1342 l 257
2059 668 m 257
 2124 868 l 257
 446 868 l 257
 381 668 l 257
 2059 668 l 257
473 30 m 257
 618 869 l 257
 423 869 l 257
 278 30 l 257
 473 30 l 257
EndSplineSet
EndChar

StartChar: uni0190
Encoding: 608 400 608
GlifName: E_open
Width: 2048
VWidth: 0
GlyphClass: 2
Flags: W
AnchorPoint: "base" 1008 -125 basechar 0
AnchorPoint: "top" 1458 1613 basechar 0
LayerCount: 2
Fore
SplineSet
518 1542 m 257
 579 930 l 257
 779 929 l 257
 718 1541 l 257
 518 1542 l 257
596 1541 m 257
 541 1337 l 257
 2284 1337 l 257
 2339 1541 l 257
 596 1541 l 257
239 199 m 257
 170 0 l 257
 1940 0 l 257
 2009 199 l 257
 239 199 l 257
726 931 m 257
 653 731 l 257
 1352 731 l 257
 1425 931 l 257
 726 931 l 257
515 734 m 257
 97 2 l 257
 296 1 l 257
 715 733 l 257
 515 734 l 257
EndSplineSet
EndChar

StartChar: uni0194
Encoding: 611 404 611
GlifName: G_amma_latin
Width: 2048
VWidth: 0
GlyphClass: 2
Flags: W
LayerCount: 2
Fore
SplineSet
740 1543 m 257
 1398 -158 l 257
 1598 -158 l 257
 940 1543 l 257
 740 1543 l 257
2424 1543 m 257
 804 -158 l 257
 1003 -158 l 257
 2624 1543 l 257
 2424 1543 l 257
731 -360 m 257
 1525 -361 l 257
 1599 -158 l 257
 805 -158 l 257
 731 -360 l 257
EndSplineSet
EndChar

StartChar: uni0196
Encoding: 612 406 612
GlifName: I_ota_latin
Width: 2048
VWidth: 0
GlyphClass: 2
Flags: W
AnchorPoint: "top" 1319 1638 basechar 0
AnchorPoint: "base" 1029 -86 basechar 0
LayerCount: 2
Fore
SplineSet
1176 1543 m 257
 893 239 l 257
 1095 239 l 257
 1378 1543 l 257
 1176 1543 l 257
916 304 m 257
 844 106 l 257
 1816 6 l 257
 1888 204 l 257
 916 304 l 257
EndSplineSet
EndChar

StartChar: uni0198
Encoding: 614 408 614
GlifName: K_hook
Width: 2048
VWidth: 0
GlyphClass: 2
Flags: W
LayerCount: 2
Fore
SplineSet
671 1537 m 257
 114 5 l 257
 315 5 l 257
 872 1537 l 257
 671 1537 l 257
521 999 m 257
 580 835 l 257
 2440 1529 l 257
 2173 1529 l 257
 521 999 l 257
577 798 m 257
 384 643 l 257
 1655 0 l 257
 1936 0 l 257
 577 798 l 257
2767 1569 m 257
 2721 1784 l 257
 2481 1670 l 257
 2527 1455 l 257
 2767 1569 l 257
2624 1603 m 257
 2480 1669 l 257
 2170 1528 l 257
 2440 1529 l 257
 2624 1603 l 257
EndSplineSet
EndChar

StartChar: uni019C
Encoding: 617 412 617
GlifName: M_turned
Width: 2048
VWidth: 0
GlyphClass: 2
Flags: W
AnchorPoint: "base" 1025 -105 basechar 0
AnchorPoint: "top" 1447 1103 basechar 0
LayerCount: 2
Fore
SplineSet
1987 30 m 257
 2348 1546 l 257
 2148 1546 l 257
 1787 30 l 257
 1987 30 l 257
1180 51 m 257
 1534 1546 l 257
 1334 1546 l 257
 980 51 l 257
 1180 51 l 257
363 47 m 257
 718 1546 l 257
 518 1546 l 257
 163 47 l 257
 363 47 l 257
2054 0 m 257
 2125 197 l 257
 219 197 l 257
 148 0 l 257
 2054 0 l 257
EndSplineSet
EndChar

StartChar: uni019F
Encoding: 619 415 619
GlifName: O_barred
Width: 2048
VWidth: 0
GlyphClass: 2
Flags: W
AnchorPoint: "top" 1783 1685 basechar 0
AnchorPoint: "base" 1023 -119 basechar 0
LayerCount: 2
Fore
SplineSet
708 1537 m 257
 149 0 l 257
 350 0 l 257
 909 1537 l 257
 708 1537 l 257
2255 1537 m 257
 1696 0 l 257
 1899 0 l 257
 2458 1537 l 257
 2255 1537 l 257
772 1537 m 257
 700 1337 l 257
 2293 1337 l 257
 2365 1537 l 257
 772 1537 l 257
263 204 m 257
 189 0 l 257
 1812 0 l 257
 1886 204 l 257
 263 204 l 257
635.732 825 m 257
 502.23 617 l 257
 1953.19 617 l 257
 2086.69 825 l 257
 635.732 825 l 257
EndSplineSet
EndChar

StartChar: uni01A4
Encoding: 620 420 620
GlifName: P_hook
Width: 2048
VWidth: 0
GlyphClass: 2
Flags: W
AnchorPoint: "base" 1170 -73 basechar 0
AnchorPoint: "top" 1699 1642 basechar 0
LayerCount: 2
Fore
SplineSet
876 1548 m 257
 316 9 l 257
 506 9 l 257
 1066 1548 l 257
 876 1548 l 257
954 1548 m 257
 881 1346 l 257
 2487 1346 l 257
 2560 1548 l 257
 954 1548 l 257
2380 1548 m 257
 2138 881 l 257
 2338 881 l 257
 2580 1548 l 257
 2380 1548 l 257
764 1068 m 257
 691 868 l 257
 2329 868 l 257
 2402 1068 l 257
 764 1068 l 257
531.519 1291.82 m 257
 760.279 1375.48 l 257
 600.833 1565.43 l 257
 372.072 1481.77 l 257
 531.519 1291.82 l 257
581.969 1398.15 m 257
 915.035 1351.32 l 257
 885.27 1546.99 l 257
 600.833 1565.43 l 257
 581.969 1398.15 l 257
EndSplineSet
EndChar

StartChar: uni01A9
Encoding: 622 425 622
GlifName: E_sh
Width: 2048
VWidth: 0
GlyphClass: 2
Flags: W
LayerCount: 2
Fore
SplineSet
1553.76 928 m 257
 186.434 210 l 257
 104.904 -14 l 257
 1479.88 725 l 257
 1553.76 928 l 257
1553.22 921 m 257
 688.15 1539 l 257
 615.992 1338 l 257
 1480.79 722 l 257
 1553.22 921 l 257
2360.63 1337 m 257
 2433.42 1537 l 257
 687.422 1537 l 257
 614.628 1337 l 257
 2360.63 1337 l 257
1812 0 m 257
 1886.98 206 l 257
 199.978 206 l 257
 125 0 l 257
 1812 0 l 257
EndSplineSet
EndChar

StartChar: uni01AC
Encoding: 623 428 623
GlifName: T_hook
Width: 2048
VWidth: 0
GlyphClass: 2
Flags: W
AnchorPoint: "top" 1690 1604 basechar 0
AnchorPoint: "base" 1121 -120 basechar 0
LayerCount: 2
Fore
SplineSet
796 1548 m 257
 724 1348 l 257
 2522 1348 l 257
 2594 1548 l 257
 796 1548 l 257
1555 1436 m 257
 1034 6 l 257
 1234 6 l 257
 1755 1436 l 257
 1555 1436 l 257
963.047 1544.69 m 257
 368.329 1545.9 l 257
 435.876 1358.71 l 257
 1028.71 1356.83 l 257
 963.047 1544.69 l 257
368.329 1545.9 m 257
 492.562 1201.63 l 257
 705.466 1200.85 l 257
 581.234 1545.12 l 257
 368.329 1545.9 l 257
EndSplineSet
EndChar

StartChar: uni01AD
Encoding: 624 429 624
GlifName: thook
Width: 2048
VWidth: 0
GlyphClass: 2
Flags: W
AnchorPoint: "top" 1612 1652 basechar 0
AnchorPoint: "base" 1020 -92 basechar 0
LayerCount: 2
Fore
SplineSet
1485 1548 m 257
 922 0 l 257
 1122 0 l 257
 1685 1548 l 257
 1485 1548 l 257
1002 199 m 257
 930 0 l 257
 1822 0 l 257
 1894 199 l 257
 1002 199 l 257
558 1023 m 257
 486 824 l 257
 2160 824 l 257
 2232 1023 l 257
 558 1023 l 257
1988.51 1333.73 m 257
 1512.31 1689.99 l 257
 1454.65 1499.53 l 257
 1928.93 1143.84 l 257
 1988.51 1333.73 l 257
1512.31 1689.99 m 257
 1406.26 1339.7 l 257
 1576.52 1211.88 l 257
 1682.58 1562.17 l 257
 1512.31 1689.99 l 257
EndSplineSet
EndChar

StartChar: uni01AE
Encoding: 625 430 625
GlifName: T_retroflexhook
Width: 2048
VWidth: 0
GlyphClass: 2
Flags: W
AnchorPoint: "top" 1582 1604 basechar 0
AnchorPoint: "base" 1013 -120 basechar 0
LayerCount: 2
Fore
SplineSet
688 1548 m 257
 616 1348 l 257
 2414 1348 l 257
 2486 1548 l 257
 688 1548 l 257
1447 1436 m 257
 926 6 l 257
 1126 6 l 257
 1647 1436 l 257
 1447 1436 l 257
1005 227 m 257
 802 -332 l 257
 1001 -332 l 257
 1204 225 l 257
 1005 227 l 257
802 -332 m 257
 1168 -332 l 257
 1241 -132 l 257
 875 -132 l 257
 802 -332 l 257
EndSplineSet
EndChar

StartChar: uni01B1
Encoding: 626 433 626
GlifName: U_psilon_latin
Width: 2048
VWidth: 0
GlyphClass: 2
Flags: W
AnchorPoint: "top" 1475 1620 basechar 0
LayerCount: 2
Fore
SplineSet
1184 1455 m 257
 255 0 l 257
 456 0 l 257
 1385 1455 l 257
 1184 1455 l 257
1483 1455 m 257
 1601 0 l 257
 1801 0 l 257
 1683 1455 l 257
 1483 1455 l 257
518 196 m 257
 447 0 l 257
 1599 0 l 257
 1673 203 l 257
 518 196 l 257
1592 1455 m 257
 1524 1255 l 257
 2334 1255 l 257
 2402 1455 l 257
 1592 1455 l 257
461 1455 m 257
 388 1255 l 257
 1145 1255 l 257
 1218 1455 l 257
 461 1455 l 257
EndSplineSet
EndChar

StartChar: uni01B2
Encoding: 627 434 627
GlifName: V_hook
Width: 2048
VWidth: 0
GlyphClass: 2
Flags: W
AnchorPoint: "top" 1416 1124 basechar 0
AnchorPoint: "base" 1025 -72 basechar 0
LayerCount: 2
Fore
SplineSet
488 1623 m 257
 116 0 l 257
 316 0 l 257
 688 1623 l 257
 488 1623 l 257
2104 1623 m 257
 1732 0 l 257
 1934 0 l 257
 2306 1623 l 257
 2104 1623 l 257
1671 1623 m 257
 1598 1422 l 257
 2125 1422 l 257
 2198 1623 l 257
 1671 1623 l 257
317 200 m 257
 244 0 l 257
 1816 0 l 257
 1889 200 l 257
 317 200 l 257
EndSplineSet
EndChar

StartChar: uni01B7
Encoding: 630 439 630
GlifName: E_zh
Width: 2048
VWidth: 0
GlyphClass: 2
Flags: W
LayerCount: 2
Fore
SplineSet
1884 0 m 257
 1956 197 l 257
 236 197 l 257
 164 0 l 257
 1884 0 l 257
1896 39 m 257
 2210 889 l 257
 2008 889 l 257
 1694 39 l 257
 1896 39 l 257
2030 688 m 257
 2104 889 l 257
 498 889 l 257
 424 688 l 257
 2030 688 l 257
683 1544 m 257
 611 1347 l 257
 2463 1347 l 257
 2535 1544 l 257
 683 1544 l 257
2080 1347 m 257
 493 889 l 257
 914 889 l 257
 2463 1347 l 257
 2080 1347 l 257
EndSplineSet
EndChar

StartChar: uni01B8
Encoding: 631 440 631
GlifName: E_zhreversed
Width: 2048
VWidth: 0
GlyphClass: 2
Flags: W
LayerCount: 2
Fore
SplineSet
210 0 m 257
 1930 0 l 257
 2002 197 l 257
 282 197 l 257
 210 0 l 257
226 39 m 257
 428 39 l 257
 734 889 l 257
 532 889 l 257
 226 39 l 257
564 688 m 257
 2170 688 l 257
 2244 889 l 257
 638 889 l 257
 564 688 l 257
2535 1544 m 257
 683 1544 l 257
 611 1347 l 257
 2463 1347 l 257
 2535 1544 l 257
994 1347 m 257
 611 1347 l 257
 1828 889 l 257
 2249 889 l 257
 994 1347 l 257
EndSplineSet
EndChar

StartChar: uni01B9
Encoding: 632 441 632
GlifName: ezhreversed
Width: 2048
VWidth: 0
GlyphClass: 2
Flags: W
LayerCount: 2
Fore
SplineSet
210 0 m 257
 1930 0 l 257
 2002 197 l 257
 282 197 l 257
 210 0 l 257
226 39 m 257
 428 39 l 257
 635 619 l 257
 433 619 l 257
 226 39 l 257
466 418 m 257
 2072 418 l 257
 2145 619 l 257
 539 619 l 257
 466 418 l 257
2437 1274 m 257
 585 1274 l 257
 513 1077 l 257
 2365 1077 l 257
 2437 1274 l 257
896 1077 m 257
 513 1077 l 257
 1729 619 l 257
 2150 619 l 257
 896 1077 l 257
EndSplineSet
EndChar

StartChar: uni021C
Encoding: 711 540 711
GlifName: uni021C_
Width: 2048
VWidth: 0
GlyphClass: 2
Flags: W
LayerCount: 2
Fore
SplineSet
369 502 m 257
 2051 736 l 257
 1853 192 l 257
 129 -42 l 257
 56 -242 l 257
 1984 -8 l 257
 2552 1553 l 257
 654 1368 l 257
 581 1168 l 257
 2273 1353 l 257
 2122 936 l 257
 442 702 l 257
 369 502 l 257
EndSplineSet
EndChar

StartChar: uni021D
Encoding: 712 541 712
GlifName: uni021D_
Width: 2048
VWidth: 0
GlyphClass: 2
Flags: W
LayerCount: 2
Fore
SplineSet
369 93 m 257
 2051 327 l 257
 1853 -137 l 257
 129 -371 l 257
 56 -571 l 257
 1984 -337 l 257
 2552 1100 l 257
 654 915 l 257
 581 715 l 257
 2273 900 l 257
 2122 527 l 257
 442 293 l 257
 369 93 l 257
EndSplineSet
EndChar

StartChar: uni0221
Encoding: 715 545 715
GlifName: dcurl
Width: 2048
VWidth: 0
GlyphClass: 2
Flags: W
AnchorPoint: "base" 1015 -59 basechar 0
AnchorPoint: "top" 2372 1632 basechar 0
LayerCount: 2
Fore
SplineSet
1929 1514 m 257
 1373 -13 l 257
 1573 -13 l 257
 2129 1514 l 257
 1929 1514 l 257
478 1023 m 257
 413 822 l 257
 1791 822 l 257
 1856 1023 l 257
 478 1023 l 257
390 1023 m 257
 18 0 l 257
 218 0 l 257
 590 1023 l 257
 390 1023 l 257
195 195 m 257
 114 0 l 257
 1962 0 l 257
 2043 195 l 257
 195 195 l 257
732 -53 m 257
 651 -248 l 257
 1866 317 l 257
 1947 512 l 257
 732 -53 l 257
1254 507 m 257
 882 6 l 257
 996 10 l 257
 1368 511 l 257
 1254 507 l 257
EndSplineSet
EndChar

StartChar: uni0234
Encoding: 730 564 730
GlifName: lcurl
Width: 2048
VWidth: 0
GlyphClass: 2
Flags: W
AnchorPoint: "base" 1027 -75 basechar 0
AnchorPoint: "top" 1636 1637 basechar 0
LayerCount: 2
Fore
SplineSet
1224 286 m 257
 1151 86 l 257
 1857 349 l 257
 1930 549 l 257
 1224 286 l 257
1487 1548 m 257
 955 86 l 257
 1152 86 l 257
 1684 1548 l 257
 1487 1548 l 257
831 1548 m 257
 759 1349 l 257
 1494 1349 l 257
 1566 1548 l 257
 831 1548 l 257
265 499 m 257
 192 299 l 257
 1861 361 l 257
 1934 561 l 257
 265 499 l 257
EndSplineSet
EndChar

StartChar: uni0235
Encoding: 731 565 731
GlifName: ncurl
Width: 2048
VWidth: 0
GlyphClass: 2
Flags: W
AnchorPoint: "base" 1032 -71 basechar 0
AnchorPoint: "top" 1514 1127 basechar 0
LayerCount: 2
Fore
SplineSet
674 990 m 257
 314 0 l 257
 514 0 l 257
 874 990 l 257
 674 990 l 257
1626 996 m 257
 1268 3 l 257
 1470 3 l 257
 1828 996 l 257
 1626 996 l 257
492 1023 m 257
 435 826 l 257
 1775 826 l 257
 1833 1023 l 257
 492 1023 l 257
967 209 m 257
 896 12 l 257
 2027 402 l 257
 2098 599 l 257
 967 209 l 257
1541 198 m 257
 1466 6 l 257
 1821 6 l 257
 1869 203 l 257
 1541 198 l 257
2088 596 m 257
 1741 3 l 257
 1940 5 l 257
 2287 598 l 257
 2088 596 l 257
EndSplineSet
EndChar

StartChar: uni0236
Encoding: 732 566 732
GlifName: tcurl
Width: 2048
VWidth: 0
GlyphClass: 2
Flags: W
AnchorPoint: "top" 1612 1652 basechar 0
AnchorPoint: "base" 1020 -92 basechar 0
LayerCount: 2
Fore
SplineSet
1485 1548 m 257
 922 0 l 257
 1122 0 l 257
 1685 1548 l 257
 1485 1548 l 257
1002 199 m 257
 930 0 l 257
 1822 0 l 257
 1894 199 l 257
 1002 199 l 257
558 1023 m 257
 486 824 l 257
 2160 824 l 257
 2232 1023 l 257
 558 1023 l 257
480 195 m 257
 408 -4 l 257
 1822 429 l 257
 1822 624 l 257
 480 195 l 257
1822 -1 m 257
 2013 2 l 257
 2013 628 l 257
 1822 624 l 257
 1822 -1 l 257
EndSplineSet
EndChar

StartChar: uni0237
Encoding: 733 567 733
GlifName: uni0237
Width: 2048
VWidth: 0
GlyphClass: 2
Flags: W
AnchorPoint: "top" 2139 1119 basechar 0
LayerCount: 2
Fore
SplineSet
2012 1023 m 257
 1490 -411 l 257
 1688 -411 l 257
 2210 1023 l 257
 2012 1023 l 257
134 -209 m 257
 62 -406 l 257
 1592 -406 l 257
 1664 -209 l 257
 134 -209 l 257
208 -6 m 257
 82 -351 l 257
 282 -351 l 257
 408 -6 l 257
 208 -6 l 257
EndSplineSet
EndChar

StartChar: uni0250
Encoding: 744 592 744
GlifName: aturned
Width: 2048
VWidth: 0
GlyphClass: 2
Flags: W
AnchorPoint: "top" 782 -86 basechar 0
AnchorPoint: "base" 1329 1112 basechar 0
LayerCount: 2
Fore
SplineSet
1806 7 m 257
 1878 206 l 257
 272 206 l 257
 200 7 l 257
 1806 7 l 257
313 10 m 257
 716 1122 l 257
 523 1127 l 257
 119 15 l 257
 313 10 l 257
1956 431 m 257
 2028 630 l 257
 404 630 l 257
 332 431 l 257
 1956 431 l 257
1965 455 m 257
 2174 1030 l 257
 1973 1030 l 257
 1764 455 l 257
 1965 455 l 257
2103 829 m 257
 2176 1030 l 257
 486 1030 l 257
 413 829 l 257
 2103 829 l 257
EndSplineSet
EndChar

StartChar: uni0251
Encoding: 745 593 745
GlifName: alpha_latin
Width: 2048
VWidth: 0
GlyphClass: 2
Flags: W
AnchorPoint: "top" 1416 1124 basechar 0
AnchorPoint: "base" 1025 -72 basechar 0
LayerCount: 2
Fore
SplineSet
488 1023 m 257
 116 0 l 257
 316 0 l 257
 688 1023 l 257
 488 1023 l 257
2104 1116 m 257
 1732 -127 l 257
 1934 -127 l 257
 2306 1116 l 257
 2104 1116 l 257
612 1023 m 257
 539 822 l 257
 2125 822 l 257
 2198 1023 l 257
 612 1023 l 257
317 200 m 257
 244 0 l 257
 1816 0 l 257
 1889 200 l 257
 317 200 l 257
EndSplineSet
EndChar

StartChar: uni0254
Encoding: 747 596 747
GlifName: oopen
Width: 2048
VWidth: 0
GlyphClass: 2
Flags: W
AnchorPoint: "base" 1014 -91 basechar 0
AnchorPoint: "top" 1398 1123 basechar 0
LayerCount: 2
Fore
SplineSet
1879 0 m 257
 1950 197 l 257
 244 197 l 257
 173 0 l 257
 1879 0 l 257
1891 39 m 257
 2249 1023 l 257
 2047 1023 l 257
 1689 39 l 257
 1891 39 l 257
2070 822 m 257
 2143 1023 l 257
 551 1023 l 257
 478 822 l 257
 2070 822 l 257
EndSplineSet
EndChar

StartChar: uni0259
Encoding: 750 601 750
GlifName: uni0259
Width: 2048
VWidth: 0
GlyphClass: 2
Flags: W
AnchorPoint: "top" 1574 1116 basechar 0
AnchorPoint: "base" 1027 -82 basechar 0
LayerCount: 2
Fore
SplineSet
1828 0 m 257
 1905 211 l 257
 341 278 l 257
 264 67 l 257
 1828 0 l 257
1878 0 m 257
 2250 1023 l 257
 2048 1023 l 257
 1676 0 l 257
 1878 0 l 257
2075 822 m 257
 2148 1023 l 257
 542 1023 l 257
 469 822 l 257
 2075 822 l 257
1953 398 m 257
 2018 577 l 257
 404 577 l 257
 339 398 l 257
 1953 398 l 257
472 97 m 257
 576 578 l 257
 381 578 l 257
 277 97 l 257
 472 97 l 257
EndSplineSet
EndChar

StartChar: uni025B
Encoding: 751 603 751
GlifName: eopen
Width: 2048
VWidth: 0
GlyphClass: 2
Flags: W
AnchorPoint: "top" 1429 1190 basechar 0
AnchorPoint: "base" 1019 -82 basechar 0
LayerCount: 2
Fore
SplineSet
518 1140 m 257
 475 669 l 257
 675 668 l 257
 718 1139 l 257
 518 1140 l 257
596 1139 m 257
 521 935 l 257
 2264 935 l 257
 2339 1139 l 257
 596 1139 l 257
244 203 m 257
 170 0 l 257
 1940 0 l 257
 2014 203 l 257
 244 203 l 257
622 670 m 257
 549 470 l 257
 1352 470 l 257
 1425 670 l 257
 622 670 l 257
411 473 m 257
 97 2 l 257
 296 1 l 257
 611 472 l 257
 411 473 l 257
EndSplineSet
EndChar

StartChar: uni0263
Encoding: 755 611 755
GlifName: gamma_latin
Width: 2048
VWidth: 0
GlyphClass: 2
Flags: W
LayerCount: 2
Fore
SplineSet
740 935 m 257
 1398 -158 l 257
 1598 -158 l 257
 940 935 l 257
 740 935 l 257
2424 965 m 257
 804 -158 l 257
 1003 -158 l 257
 2624 965 l 257
 2424 965 l 257
731 -360 m 257
 1525 -361 l 257
 1599 -158 l 257
 805 -158 l 257
 731 -360 l 257
EndSplineSet
EndChar

StartChar: uni0264
Encoding: 756 612 756
GlifName: ramshorn
Width: 2048
VWidth: 0
GlyphClass: 2
Flags: W
AnchorPoint: "top" 1454 1107 basechar 0
LayerCount: 2
Fore
SplineSet
740 935 m 257
 1398 202 l 257
 1598 202 l 257
 940 935 l 257
 740 935 l 257
2424 965 m 257
 804 202 l 257
 1003 202 l 257
 2624 965 l 257
 2424 965 l 257
731 0 m 257
 1525 -1 l 257
 1599 202 l 257
 805 202 l 257
 731 0 l 257
EndSplineSet
EndChar

StartChar: uni0269
Encoding: 760 617 760
GlifName: iota_latin
Width: 2048
VWidth: 0
GlyphClass: 2
Flags: W
AnchorPoint: "top" 1394 1114 basechar 0
LayerCount: 2
Fore
SplineSet
1176 1018 m 257
 893 239 l 257
 1095 239 l 257
 1378 1018 l 257
 1176 1018 l 257
916 304 m 257
 844 106 l 257
 1816 6 l 257
 1888 204 l 257
 916 304 l 257
EndSplineSet
EndChar

StartChar: uni026A
Encoding: 761 618 761
GlifName: icapitalsmall
Width: 2048
VWidth: 0
GlyphClass: 2
Flags: W
AnchorPoint: "top" 1637 1626 basechar 0
AnchorPoint: "base" 1029 -86 basechar 0
LayerCount: 2
Fore
SplineSet
703 1019 m 257
 630 817 l 257
 2375 817 l 257
 2448 1019 l 257
 703 1019 l 257
1509 950 m 257
 1006 84 l 257
 1206 84 l 257
 1709 950 l 257
 1509 950 l 257
198 204 m 257
 126 6 l 257
 1926 6 l 257
 1998 204 l 257
 198 204 l 257
EndSplineSet
EndChar

StartChar: uni026C
Encoding: 763 620 763
GlifName: uni026C_
Width: 2048
VWidth: 0
Flags: W
AnchorPoint: "base" 1027 -75 basechar 0
AnchorPoint: "top" 1636 1637 basechar 0
LayerCount: 2
Fore
SplineSet
685 738 m 257
 642 620 l 257
 1430 620 l 257
 1473 738 l 257
 685 738 l 257
790 1026 m 257
 642 620 l 257
 760 620 l 257
 908 1026 l 257
 790 1026 l 257
790 1026 m 257
 746 905 l 257
 1288 905 l 257
 1332 1026 l 257
 790 1026 l 257
283 209 m 257
 210 9 l 257
 1844 9 l 257
 1917 209 l 257
 283 209 l 257
1487 1548 m 257
 955 86 l 257
 1155 86 l 257
 1687 1548 l 257
 1487 1548 l 257
831 1548 m 257
 759 1349 l 257
 1494 1349 l 257
 1566 1548 l 257
 831 1548 l 257
EndSplineSet
EndChar

StartChar: uni0275
Encoding: 766 629 766
GlifName: obarred
Width: 2048
VWidth: 0
GlyphClass: 2
Flags: W
AnchorPoint: "top" 1458 1124 basechar 0
AnchorPoint: "base" 1025 -72 basechar 0
LayerCount: 2
Fore
SplineSet
488 1023 m 257
 116 0 l 257
 316 0 l 257
 688 1023 l 257
 488 1023 l 257
2104 1023 m 257
 1732 0 l 257
 1934 0 l 257
 2306 1023 l 257
 2104 1023 l 257
612 1023 m 257
 539 822 l 257
 2125 822 l 257
 2198 1023 l 257
 612 1023 l 257
317 200 m 257
 244 0 l 257
 1816 0 l 257
 1889 200 l 257
 317 200 l 257
525.38 636 m 257
 385.273 428 l 257
 1908.02 428 l 257
 2048.12 636 l 257
 525.38 636 l 257
EndSplineSet
EndChar

StartChar: uni027F
Encoding: 768 639 768
GlifName: rfishhookreversed
Width: 2048
VWidth: 0
GlyphClass: 2
Flags: W
AnchorPoint: "top" 1391 1122 basechar 0
AnchorPoint: "base" 989 -94 basechar 0
LayerCount: 2
Fore
SplineSet
523 1023 m 257
 457 821 l 257
 2024 821 l 257
 2090 1023 l 257
 523 1023 l 257
1862 941 m 257
 1515 -505 l 257
 1715 -505 l 257
 2062 941 l 257
 1862 941 l 257
EndSplineSet
EndChar

StartChar: uni0283
Encoding: 769 643 769
GlifName: esh
Width: 2048
VWidth: 0
GlyphClass: 2
Flags: W
LayerCount: 2
Fore
SplineSet
1785 1641 m 257
 823 -390 l 257
 1016 -390 l 257
 1978 1641 l 257
 1785 1641 l 257
406 -240 m 257
 351 -390 l 257
 982 -390 l 257
 1037 -240 l 257
 406 -240 l 257
1840 1641 m 257
 1791 1507 l 257
 2467 1504 l 257
 2516 1638 l 257
 1840 1641 l 257
EndSplineSet
EndChar

StartChar: uni0285
Encoding: 770 645 770
GlifName: eshsquatreversed
Width: 2048
VWidth: 0
GlyphClass: 2
Flags: W
LayerCount: 2
Fore
SplineSet
1347 1001 m 257
 1005 -399 l 257
 1198 -399 l 257
 1540 1001 l 257
 1347 1001 l 257
1100 -201 m 257
 1028 -400 l 257
 1685 -400 l 257
 1757 -201 l 257
 1100 -201 l 257
927 1001 m 257
 856 801 l 257
 1422 800 l 257
 1493 1000 l 257
 927 1001 l 257
EndSplineSet
EndChar

StartChar: uni0288
Encoding: 771 648 771
GlifName: tretroflexhook
Width: 2048
VWidth: 0
GlyphClass: 2
Flags: W
AnchorPoint: "top" 1612 1652 basechar 0
AnchorPoint: "base" 1041 -497 basechar 0
LayerCount: 2
Fore
SplineSet
1485 1548 m 257
 922 -423 l 257
 1122 -423 l 257
 1685 1548 l 257
 1485 1548 l 257
1002 -224 m 257
 930 -423 l 257
 1822 -423 l 257
 1894 -224 l 257
 1002 -224 l 257
558 1023 m 257
 486 824 l 257
 2160 824 l 257
 2232 1023 l 257
 558 1023 l 257
EndSplineSet
EndChar

StartChar: uni028A
Encoding: 773 650 773
GlifName: upsilon_latin
Width: 2048
VWidth: 0
GlyphClass: 2
Flags: W
AnchorPoint: "top" 1404 1129 basechar 0
LayerCount: 2
Fore
SplineSet
1184 1023 m 257
 255 0 l 257
 456 0 l 257
 1385 1023 l 257
 1184 1023 l 257
1483 1023 m 257
 1601 0 l 257
 1801 0 l 257
 1683 1023 l 257
 1483 1023 l 257
518 196 m 257
 447 0 l 257
 1599 0 l 257
 1673 203 l 257
 518 196 l 257
1592 1023 m 257
 1524 823 l 257
 2334 823 l 257
 2402 1023 l 257
 1592 1023 l 257
461 1023 m 257
 388 823 l 257
 1145 823 l 257
 1218 1023 l 257
 461 1023 l 257
EndSplineSet
EndChar

StartChar: uni028B
Encoding: 774 651 774
GlifName: vhook
Width: 2048
VWidth: 0
GlyphClass: 2
Flags: W
AnchorPoint: "top" 1416 1124 basechar 0
AnchorPoint: "base" 1025 -72 basechar 0
LayerCount: 2
Fore
SplineSet
488 1023 m 257
 116 0 l 257
 316 0 l 257
 688 1023 l 257
 488 1023 l 257
2104 1023 m 257
 1732 0 l 257
 1934 0 l 257
 2306 1023 l 257
 2104 1023 l 257
1671 1023 m 257
 1598 822 l 257
 2125 822 l 257
 2198 1023 l 257
 1671 1023 l 257
317 200 m 257
 244 0 l 257
 1816 0 l 257
 1889 200 l 257
 317 200 l 257
EndSplineSet
EndChar

StartChar: uni0292
Encoding: 776 658 776
GlifName: ezh
Width: 2048
VWidth: 0
GlyphClass: 2
Flags: W
LayerCount: 2
Fore
SplineSet
1884 0 m 257
 1956 197 l 257
 236 197 l 257
 164 0 l 257
 1884 0 l 257
1896 39 m 257
 2111 619 l 257
 1909 619 l 257
 1694 39 l 257
 1896 39 l 257
1932 418 m 257
 2005 619 l 257
 399 619 l 257
 326 418 l 257
 1932 418 l 257
585 1274 m 257
 513 1077 l 257
 2365 1077 l 257
 2437 1274 l 257
 585 1274 l 257
1982 1077 m 257
 394 619 l 257
 815 619 l 257
 2365 1077 l 257
 1982 1077 l 257
EndSplineSet
EndChar

StartChar: uni0294
Encoding: 777 660 777
GlifName: glottalstop
Width: 2048
VWidth: 0
GlyphClass: 2
Flags: W
LayerCount: 2
Fore
SplineSet
1157 1543 m 257
 1085 1343 l 257
 1613 1343 l 257
 1685 1543 l 257
 1157 1543 l 257
1485 1543 m 257
 1298 1028 l 257
 1498 1028 l 257
 1685 1543 l 257
 1485 1543 l 257
1054 1073 m 257
 982 873 l 257
 1442 873 l 257
 1514 1073 l 257
 1054 1073 l 257
1041 1073 m 257
 794 167 l 257
 994 167 l 257
 1241 1073 l 257
 1041 1073 l 257
EndSplineSet
EndChar

StartChar: uni0295
Encoding: 778 661 778
GlifName: glottalstopreversed
Width: 2048
VWidth: 0
GlyphClass: 2
Flags: W
LayerCount: 2
Fore
SplineSet
1833 1543 m 257
 1305 1543 l 257
 1232 1343 l 257
 1760 1343 l 257
 1833 1543 l 257
1505 1543 m 257
 1305 1543 l 257
 1117 1028 l 257
 1317 1028 l 257
 1505 1543 l 257
1594 1073 m 257
 1134 1073 l 257
 1061 873 l 257
 1521 873 l 257
 1594 1073 l 257
1607 1073 m 257
 1407 1073 l 257
 1077 167 l 257
 1277 167 l 257
 1607 1073 l 257
EndSplineSet
EndChar

StartChar: uni029D
Encoding: 780 669 780
GlifName: jcrossedtail
Width: 2048
VWidth: 0
GlyphClass: 2
Flags: W
AnchorPoint: "top" 2220 1424 basechar 0
AnchorPoint: "base" 1025 -476 basechar 0
LayerCount: 2
Fore
SplineSet
2012 1023 m 257
 1490 -411 l 257
 1688 -411 l 257
 2210 1023 l 257
 2012 1023 l 257
134 -209 m 257
 62 -406 l 257
 1592 -406 l 257
 1664 -209 l 257
 134 -209 l 257
208 -6 m 257
 82 -351 l 257
 282 -351 l 257
 408 -6 l 257
 208 -6 l 257
2103 1307 m 257
 2032 1112 l 257
 2258 1112 l 257
 2329 1307 l 257
 2103 1307 l 257
207.22 -8 m 257
 2012.88 -8 l 257
 2179.02 200 l 257
 373.358 200 l 257
 207.22 -8 l 257
EndSplineSet
EndChar

StartChar: uni02C0
Encoding: 789 704 789
GlifName: glottalstopmod
Width: 2048
VWidth: 0
GlyphClass: 2
Flags: W
LayerCount: 2
Fore
SplineSet
1157 1543 m 257
 1085 1343 l 257
 1613 1343 l 257
 1685 1543 l 257
 1157 1543 l 257
1485 1543 m 257
 1298 1028 l 257
 1498 1028 l 257
 1685 1543 l 257
 1485 1543 l 257
1054 1073 m 257
 982 873 l 257
 1442 873 l 257
 1514 1073 l 257
 1054 1073 l 257
1041 1073 m 257
 859 572 l 257
 1059 572 l 257
 1241 1073 l 257
 1041 1073 l 257
EndSplineSet
EndChar

StartChar: uni02C8
Encoding: 790 712 790
GlifName: verticallinemod
Width: 2048
VWidth: 0
GlyphClass: 2
Flags: W
LayerCount: 2
Fore
SplineSet
1211 1823 m 257
 921 1025 l 257
 1123 1025 l 257
 1413 1823 l 257
 1211 1823 l 257
EndSplineSet
EndChar

StartChar: uni02C9
Encoding: 791 713 791
GlifName: uni02C_9
Width: 2048
VWidth: 0
GlyphClass: 2
Flags: W
LayerCount: 2
Fore
SplineSet
1337 1630 m 257
 1307 1548 l 257
 1867 1548 l 257
 1897 1630 l 257
 1337 1630 l 257
EndSplineSet
EndChar

StartChar: uni02CA
Encoding: 792 714 792
GlifName: uni02C_A_
Width: 2048
VWidth: 0
GlyphClass: 2
Flags: W
LayerCount: 2
Fore
SplineSet
1554 1330 m 257
 1332 1076 l 257
 1403 1030 l 257
 1628 1285 l 257
 1554 1330 l 257
EndSplineSet
EndChar

StartChar: uni02CB
Encoding: 793 715 793
GlifName: uni02C_B_
Width: 2048
VWidth: 0
GlyphClass: 2
Flags: W
LayerCount: 2
Fore
SplineSet
1685 2107 m 257
 1719 1871 l 257
 1828 1917 l 257
 1794 2154 l 257
 1685 2107 l 257
EndSplineSet
EndChar

StartChar: uni02CC
Encoding: 794 716 794
GlifName: verticallinelowmod
Width: 2048
VWidth: 0
GlyphClass: 2
Flags: W
LayerCount: 2
Fore
SplineSet
1220 805 m 257
 930 7 l 257
 1132 7 l 257
 1422 805 l 257
 1220 805 l 257
EndSplineSet
EndChar

StartChar: uni0302
Encoding: 797 770 797
GlifName: uni0302
Width: 0
VWidth: 0
GlyphClass: 4
Flags: W
AnchorPoint: "top" 2 782 mark 0
LayerCount: 2
Fore
SplineSet
158 1083 m 257
 83 1083 l 257
 -162 775 l 257
 -98 743 l 257
 158 1083 l 257
64 1023 m 257
 90 743 l 257
 175 771 l 257
 158 1083 l 257
 64 1023 l 257
EndSplineSet
EndChar

StartChar: uni0304
Encoding: 798 772 798
GlifName: uni0304
Width: 0
VWidth: 0
GlyphClass: 4
Flags: W
AnchorPoint: "top" -1 781 mark 0
LayerCount: 2
Fore
SplineSet
-392 928 m 257
 -437 805 l 257
 403 805 l 257
 448 928 l 257
 -392 928 l 257
EndSplineSet
EndChar

StartChar: uni0305
Encoding: 799 773 799
GlifName: uni0305
Width: 0
VWidth: 0
GlyphClass: 4
Flags: W
AnchorPoint: "top" 18 1480 mark 0
LayerCount: 2
Fore
SplineSet
195 1602 m 257
 195 1542 l 257
 949 1542 l 257
 949 1602 l 257
 195 1602 l 257
EndSplineSet
EndChar

StartChar: uni0306
Encoding: 800 774 800
GlifName: uni0306
Width: 0
VWidth: 0
GlyphClass: 4
Flags: W
AnchorPoint: "top" -12 782 mark 0
LayerCount: 2
Fore
SplineSet
186 910 m 257
 119 794 l 257
 309 862 l 257
 386 1007 l 257
 186 910 l 257
-138 910 m 257
 -205 794 l 257
 119 794 l 257
 186 910 l 257
 -138 910 l 257
-280 992 m 257
 -351 862 l 257
 -205 794 l 257
 -138 910 l 257
 -280 992 l 257
EndSplineSet
EndChar

StartChar: uni0307
Encoding: 801 775 801
GlifName: uni0307
Width: 0
VWidth: 0
GlyphClass: 4
Flags: W
AnchorPoint: "top" 4 774 mark 0
LayerCount: 2
Fore
SplineSet
-46 1008 m 257
 -119 806 l 257
 105 806 l 257
 178 1008 l 257
 -46 1008 l 257
EndSplineSet
EndChar

StartChar: uni0308
Encoding: 802 776 802
GlifName: uni0308
Width: 0
VWidth: 0
GlyphClass: 4
AnchorPoint: "top" 1 1461 mark 0
LayerCount: 2
Fore
SplineSet
-245 1668 m 257
 -300 1517 l 257
 -132 1517 l 257
 -77 1668 l 257
 -245 1668 l 257
119 1668 m 257
 64 1517 l 257
 232 1517 l 257
 287 1668 l 257
 119 1668 l 257
EndSplineSet
EndChar

StartChar: uni030A
Encoding: 803 778 803
GlifName: uni030A_
Width: 0
VWidth: 0
GlyphClass: 4
Flags: W
AnchorPoint: "top" 5 796 mark 0
LayerCount: 2
Fore
SplineSet
6 1051 m 257
 154 1051 l 257
 107 921 l 257
 -41 921 l 257
 6 1051 l 257
-66 1142 m 257
 -179 832 l 257
 181 832 l 257
 294 1142 l 257
 -66 1142 l 257
EndSplineSet
EndChar

StartChar: uni030B
Encoding: 804 779 804
GlifName: uni030B_
Width: 0
VWidth: 0
GlyphClass: 4
AnchorPoint: "top" 6 769 mark 0
LayerCount: 2
Fore
SplineSet
-286 771 m 257
 -142 771 l 257
 39 1019 l 257
 -105 1019 l 257
 -286 771 l 257
114 771 m 257
 258 771 l 257
 439 1019 l 257
 295 1019 l 257
 114 771 l 257
EndSplineSet
EndChar

StartChar: uni030C
Encoding: 805 780 805
GlifName: uni030C_
Width: 0
VWidth: 0
GlyphClass: 4
Flags: W
AnchorPoint: "top" -9 741 mark 0
LayerCount: 2
Fore
SplineSet
36 815 m 257
 50 1096 l 257
 -9 1071 l 257
 -15 814 l 257
 36 815 l 257
5 864 m 257
 36 815 l 257
 217 1073 l 257
 175 1097 l 257
 5 864 l 257
EndSplineSet
EndChar

StartChar: uni030D
Encoding: 806 781 806
GlifName: verticallineabovecomb
Width: 0
VWidth: 0
GlyphClass: 4
Flags: W
AnchorPoint: "top" 0 964 mark 0
LayerCount: 2
Fore
SplineSet
94 1561 m 257
 -99 1031 l 257
 99 1031 l 257
 292 1561 l 257
 94 1561 l 257
EndSplineSet
EndChar

StartChar: uni030F
Encoding: 807 783 807
GlifName: uni030F_
Width: 0
VWidth: 0
GlyphClass: 4
Flags: W
AnchorPoint: "top" -11 766 mark 0
LayerCount: 2
Fore
SplineSet
-47 1032 m 257
 73 796 l 257
 164 842 l 257
 45 1079 l 257
 -47 1032 l 257
-265 1032 m 257
 -145 796 l 257
 -54 842 l 257
 -173 1079 l 257
 -265 1032 l 257
EndSplineSet
EndChar

StartChar: uni0311
Encoding: 809 785 809
GlifName: uni0311
Width: 0
VWidth: 0
GlyphClass: 4
Flags: W
AnchorPoint: "top" -8 776 mark 0
LayerCount: 2
Fore
SplineSet
-184 818 m 257
 -184 886 l 257
 -349 818 l 257
 -349 721 l 257
 -184 818 l 257
140 818 m 257
 140 886 l 257
 -184 886 l 257
 -184 818 l 257
 140 818 l 257
311 736 m 257
 311 818 l 257
 140 886 l 257
 140 818 l 257
 311 736 l 257
EndSplineSet
EndChar

StartChar: uni0312
Encoding: 810 786 810
GlifName: uni0312
Width: 0
VWidth: 0
GlyphClass: 4
Flags: W
AnchorPoint: "top" -4 1497 mark 0
LayerCount: 2
Fore
SplineSet
-133 1554 m 257
 115 1554 l 257
 199 1783 l 257
 -49 1783 l 257
 -133 1554 l 257
3 1656 m 257
 199 1784 l 257
 153 1997 l 257
 -13 1937 l 257
 3 1656 l 257
EndSplineSet
EndChar

StartChar: uni0314
Encoding: 812 788 812
GlifName: commareversedabovecomb
Width: 0
VWidth: 0
GlyphClass: 4
Flags: W
AnchorPoint: "top" -140.298 949 mark 0
LayerCount: 2
Fore
SplineSet
292.504 1435 m 257
 44.5042 1435 l 257
 -64.6496 1206 l 257
 183.35 1206 l 257
 292.504 1435 l 257
153.721 1328 m 257
 -64.6496 1206 l 257
 -40.5042 1000 l 257
 214.923 1103 l 257
 153.721 1328 l 257
EndSplineSet
EndChar

StartChar: uni0315
Encoding: 813 789 813
GlifName: commaaboverightcomb
Width: 0
VWidth: 0
GlyphClass: 4
Flags: W
AnchorPoint: "top" -283 1018 mark 0
LayerCount: 2
Fore
SplineSet
-35 1192 m 257
 -118 963 l 257
 130 963 l 257
 213 1192 l 257
 -35 1192 l 257
14 1085 m 257
 -236 860 l 257
 -67 757 l 257
 130 963 l 257
 14 1085 l 257
EndSplineSet
EndChar

StartChar: uni031B
Encoding: 814 795 814
GlifName: uni031B_
Width: 0
VWidth: 0
GlyphClass: 4
Flags: W
AnchorPoint: "top" 0 778 mark 0
LayerCount: 2
Fore
SplineSet
95 1216 m 257
 11 987 l 257
 259 987 l 257
 343 1216 l 257
 95 1216 l 257
155 1114 m 257
 -65 833 l 257
 57 773 l 257
 254 979 l 257
 155 1114 l 257
EndSplineSet
EndChar

StartChar: uni0324
Encoding: 815 804 815
GlifName: uni0324
Width: 0
VWidth: 0
GlyphClass: 4
Flags: W
AnchorPoint: "base" -8 -147 mark 0
LayerCount: 2
Fore
SplineSet
254 -188 m 257
 164 -435 l 257
 428 -435 l 257
 518 -188 l 257
 254 -188 l 257
-335 -188 m 257
 -425 -435 l 257
 -161 -435 l 257
 -71 -188 l 257
 -335 -188 l 257
EndSplineSet
EndChar

StartChar: uni0325
Encoding: 816 805 816
GlifName: ringbelowcomb
Width: 0
VWidth: 0
GlyphClass: 4
Flags: W
AnchorPoint: "base" 5 5 mark 0
LayerCount: 2
Fore
SplineSet
-119 -246 m 257
 29 -246 l 257
 -18 -376 l 257
 -166 -376 l 257
 -119 -246 l 257
-191 -155 m 257
 -304 -465 l 257
 56 -465 l 257
 169 -155 l 257
 -191 -155 l 257
EndSplineSet
EndChar

StartChar: uni0326
Encoding: 817 806 817
GlifName: uni0326
Width: 0
VWidth: 0
GlyphClass: 4
Flags: W
AnchorPoint: "base" 22 -5 mark 0
LayerCount: 2
Fore
SplineSet
-114 0 m 257
 -198 -230 l 257
 50 -230 l 257
 134 0 l 257
 -114 0 l 257
-53 -103 m 257
 -274 -384 l 257
 -152 -444 l 257
 47 -234 l 257
 -53 -103 l 257
EndSplineSet
EndChar

StartChar: uni0327
Encoding: 818 807 818
GlifName: uni0327
Width: 0
VWidth: 0
GlyphClass: 4
Flags: W
AnchorPoint: "base" -446 90 mark 0
LayerCount: 2
Fore
SplineSet
-158 180 m 257
 -276 -111 l 257
 -120 -111 l 257
 -2 180 l 257
 -158 180 l 257
-327 -288 m 257
 -370 -406 l 257
 76 -373 l 257
 119 -255 l 257
 -327 -288 l 257
72 33 m 257
 -63 -339 l 257
 89 -339 l 257
 224 33 l 257
 72 33 l 257
-222 33 m 257
 -279 -123 l 257
 167 -123 l 257
 224 33 l 257
 -222 33 l 257
EndSplineSet
EndChar

StartChar: uni0328
Encoding: 819 808 819
GlifName: uni0328
Width: 0
VWidth: 0
GlyphClass: 4
Flags: W
AnchorPoint: "base" -167 0 mark 0
LayerCount: 2
Fore
SplineSet
-376 -288 m 257
 -419 -406 l 257
 123 -406 l 257
 166 -288 l 257
 -376 -288 l 257
-271 0 m 257
 -419 -406 l 257
 -301 -406 l 257
 -153 0 l 257
 -271 0 l 257
-271 0 m 257
 -315 -121 l 257
 227 -121 l 257
 271 0 l 257
 -271 0 l 257
EndSplineSet
EndChar

StartChar: uni0329
Encoding: 820 809 820
GlifName: uni0329
Width: 0
VWidth: 0
GlyphClass: 4
Flags: W
AnchorPoint: "base" 4 -39 mark 0
LayerCount: 2
Fore
SplineSet
-37 -76 m 257
 -161 -419 l 257
 39 -419 l 257
 163 -76 l 257
 -37 -76 l 257
EndSplineSet
EndChar

StartChar: uni032E
Encoding: 822 814 822
GlifName: uni032E_
Width: 0
VWidth: 0
GlyphClass: 4
Flags: W
AnchorPoint: "base" -9 -4 mark 0
LayerCount: 2
Fore
SplineSet
134 -173 m 257
 109 -241 l 257
 299 -173 l 257
 334 -76 l 257
 134 -173 l 257
-190 -173 m 257
 -215 -241 l 257
 109 -241 l 257
 134 -173 l 257
 -190 -173 l 257
-331 -91 m 257
 -361 -173 l 257
 -215 -241 l 257
 -190 -173 l 257
 -331 -91 l 257
EndSplineSet
EndChar

StartChar: uni0331
Encoding: 825 817 825
GlifName: uni0331
Width: 0
VWidth: 0
GlyphClass: 4
Flags: W
AnchorPoint: "base" 4 -163 mark 0
LayerCount: 2
Fore
SplineSet
-597 -170 m 257
 -697 -282 l 257
 423 -282 l 257
 523 -170 l 257
 -597 -170 l 257
EndSplineSet
EndChar

StartChar: uni0335
Encoding: 827 821 827
GlifName: uni0335
Width: 0
VWidth: 0
GlyphClass: 4
Flags: W
AnchorPoint: "base" -55 -163 mark 0
LayerCount: 2
Fore
SplineSet
-206 1013 m 257
 -235 935 l 257
 325 935 l 257
 354 1013 l 257
 -206 1013 l 257
EndSplineSet
EndChar

StartChar: uni0345
Encoding: 831 837 831
GlifName: uni0345
Width: 0
VWidth: 0
GlyphClass: 4
Flags: W
LayerCount: 2
Fore
SplineSet
130 111 m 257
 -33 -338 l 257
 167 -338 l 257
 330 111 l 257
 130 111 l 257
-33 -338 m 257
 -22 -521 l 257
 349 -421 l 257
 339 -238 l 257
 -33 -338 l 257
EndSplineSet
EndChar

StartChar: uni035C
Encoding: 832 860 832
GlifName: uni035C_
Width: 0
VWidth: 0
GlyphClass: 2
Flags: W
AnchorPoint: "base" 0 9 basechar 0
LayerCount: 2
Fore
SplineSet
-1662 -192 m 257
 -2364 169 l 257
 -2364 -53 l 257
 -1662 -414 l 257
 -1662 -192 l 257
1539 -160 m 257
 -1662 -192 l 257
 -1662 -414 l 257
 1542 -382 l 257
 1539 -160 l 257
1542 -382 m 257
 2343 10 l 257
 2343 232 l 257
 1539 -160 l 257
 1542 -382 l 257
EndSplineSet
EndChar

StartChar: uni035F
Encoding: 833 863 833
GlifName: doublemacronbelowcomb
Width: 0
VWidth: 0
GlyphClass: 4
Flags: W
AnchorPoint: "base" 4 -163 mark 0
LayerCount: 2
Fore
SplineSet
-512 -170 m 257
 -540 -248 l 257
 352 -248 l 257
 380 -170 l 257
 -512 -170 l 257
EndSplineSet
EndChar

StartChar: uni0394
Encoding: 838 916 838
GlifName: uni0394
Width: 2048
VWidth: 0
GlyphClass: 2
Flags: W
LayerCount: 2
Fore
SplineSet
299.702 197 m 257
 123.908 -3 l 257
 1921.91 -3 l 257
 1889.7 197 l 257
 299.702 197 l 257
1941 0 m 257
 1732.43 1548 l 257
 1511.43 1548 l 257
 1740 0 l 257
 1941 0 l 257
307 0 m 257
 1607.43 1548 l 257
 1384.43 1548 l 257
 106 0 l 257
 307 0 l 257
EndSplineSet
EndChar

StartChar: uni03A9
Encoding: 839 937 839
GlifName: uni03A_9
Width: 2048
VWidth: 0
GlyphClass: 2
Flags: W
LayerCount: 2
Fore
SplineSet
1503.98 489 m 257
 1391.51 180 l 257
 1595.51 180 l 257
 1707.98 489 l 257
 1503.98 489 l 257
702.981 489 m 257
 590.515 180 l 257
 790.515 180 l 257
 902.981 489 l 257
 702.981 489 l 257
1403.53 213 m 257
 1329.28 9 l 257
 1942.28 9 l 257
 2016.53 213 l 257
 1403.53 213 l 257
189.525 213 m 257
 115.275 9 l 257
 728.275 9 l 257
 802.525 213 l 257
 189.525 213 l 257
1548.39 611 m 257
 1474.14 407 l 257
 2087.14 407 l 257
 2161.39 611 l 257
 1548.39 611 l 257
669.422 1537 m 257
 316.007 566 l 257
 517.007 566 l 257
 870.422 1537 l 257
 669.422 1537 l 257
2290.42 1537 m 257
 1937.01 566 l 257
 2140.01 566 l 257
 2493.42 1537 l 257
 2290.42 1537 l 257
733.422 1537 m 257
 660.628 1337 l 257
 2327.63 1337 l 257
 2400.42 1537 l 257
 733.422 1537 l 257
334.386 611 m 257
 260.136 407 l 257
 873.136 407 l 257
 947.386 611 l 257
 334.386 611 l 257
EndSplineSet
EndChar

StartChar: uni03CF
Encoding: 841 975 841
GlifName: K_aiS_ymbol
Width: 2048
VWidth: 0
GlyphClass: 2
Flags: W
LayerCount: 2
Fore
SplineSet
1378 -271 m 257
 1571 -370 l 257
 1906 9 l 257
 1713 108 l 257
 1378 -271 l 257
EndSplineSet
Refer: 78 75 N 1 0 0 1 0 0 2
EndChar

StartChar: uni03D7
Encoding: 842 983 842
GlifName: kaiS_ymbol
Width: 2048
VWidth: 0
GlyphClass: 2
Flags: W
LayerCount: 2
Fore
SplineSet
549 1017 m 257
 480 819 l 257
 1257 709 l 257
 1452 909 l 257
 549 1017 l 257
1266 908 m 257
 392 22 l 257
 576 22 l 257
 1450 908 l 257
 1266 908 l 257
1960 1014 m 257
 399 18 l 257
 583 18 l 257
 2144 1014 l 257
 1960 1014 l 257
1951 1013 m 257
 1284 -5 l 257
 1468 -5 l 257
 2135 1013 l 257
 1951 1013 l 257
1465 193 m 257
 1396 -5 l 257
 1994 -2 l 257
 2111 193 l 257
 1465 193 l 257
1269 -183 m 257
 1253 -346 l 257
 1828 -270 l 257
 1931 -104 l 257
 1269 -183 l 257
2084 139 m 257
 1921 185 l 257
 1706 -163 l 257
 1848 -239 l 257
 2084 139 l 257
EndSplineSet
EndChar

StartChar: uni046A
Encoding: 847 1130 847
GlifName: uni046A_
Width: 2048
VWidth: 0
GlyphClass: 2
Flags: W
LayerCount: 2
Fore
SplineSet
589 1548 m 257
 516 1348 l 257
 2292 1348 l 257
 2365 1548 l 257
 589 1548 l 257
1124 706 m 257
 906 2 l 257
 1105 2 l 257
 1323 706 l 257
 1124 706 l 257
522 1355 m 257
 1773 4 l 257
 1972 4 l 257
 721 1355 l 257
 522 1355 l 257
2097 1355 m 257
 74 5 l 257
 273 5 l 257
 2296 1355 l 257
 2097 1355 l 257
EndSplineSet
EndChar

StartChar: uni046B
Encoding: 848 1131 848
GlifName: yusbig-cy
Width: 2048
VWidth: 0
GlyphClass: 2
Flags: W
LayerCount: 2
Fore
SplineSet
589 1189 m 257
 516 989 l 257
 2292 989 l 257
 2365 1189 l 257
 589 1189 l 257
1133 522 m 257
 906 2 l 257
 1105 2 l 257
 1332 522 l 257
 1133 522 l 257
522 996 m 257
 1773 4 l 257
 1972 4 l 257
 721 996 l 257
 522 996 l 257
2097 996 m 257
 74 5 l 257
 273 5 l 257
 2296 996 l 257
 2097 996 l 257
EndSplineSet
EndChar

StartChar: uni0494
Encoding: 853 1172 853
GlifName: uni0494
Width: 2048
VWidth: 0
GlyphClass: 2
Flags: W
LayerCount: 2
Fore
SplineSet
1312 1547 m 257
 1265 1347 l 257
 2256 1347 l 257
 2303 1547 l 257
 1312 1547 l 257
1281 1544 m 257
 719 -1 l 257
 919 -1 l 257
 1481 1544 l 257
 1281 1544 l 257
1164 994 m 257
 1091 794 l 257
 2216 794 l 257
 2289 994 l 257
 1164 994 l 257
2087 989 m 257
 1561 -406 l 257
 1761 -406 l 257
 2287 989 l 257
 2087 989 l 257
1241 -243 m 257
 1168 -443 l 257
 1747 -443 l 257
 1820 -243 l 257
 1241 -243 l 257
EndSplineSet
EndChar

StartChar: uni0495
Encoding: 854 1173 854
GlifName: uni0495
Width: 2048
VWidth: 0
GlyphClass: 2
Flags: W
LayerCount: 2
Fore
SplineSet
1312 1017 m 257
 1265 817 l 257
 2256 817 l 257
 2303 1017 l 257
 1312 1017 l 257
1281 1014 m 257
 719 -1 l 257
 919 -1 l 257
 1481 1014 l 257
 1281 1014 l 257
1067 464 m 257
 988 264 l 257
 2210 264 l 257
 2289 464 l 257
 1067 464 l 257
2087 459 m 257
 1561 -406 l 257
 1761 -406 l 257
 2287 459 l 257
 2087 459 l 257
1241 -243 m 257
 1168 -443 l 257
 1747 -443 l 257
 1820 -243 l 257
 1241 -243 l 257
EndSplineSet
EndChar

StartChar: uni04A6
Encoding: 871 1190 871
GlifName: uni04A_6
Width: 2048
VWidth: 0
GlyphClass: 2
Flags: W
LayerCount: 2
Fore
SplineSet
997 1547 m 257
 950 1347 l 257
 1941 1347 l 257
 1988 1547 l 257
 997 1547 l 257
1520 1544 m 257
 958 -1 l 257
 1158 -1 l 257
 1720 1544 l 257
 1520 1544 l 257
1164 994 m 257
 1091 794 l 257
 2216 794 l 257
 2289 994 l 257
 1164 994 l 257
2087 989 m 257
 1561 -406 l 257
 1761 -406 l 257
 2287 989 l 257
 2087 989 l 257
1241 -243 m 257
 1168 -443 l 257
 1747 -443 l 257
 1820 -243 l 257
 1241 -243 l 257
1028 1544 m 257
 466 -1 l 257
 666 -1 l 257
 1228 1544 l 257
 1028 1544 l 257
EndSplineSet
EndChar

StartChar: uni04A7
Encoding: 872 1191 872
GlifName: uni04A_7
Width: 2048
VWidth: 0
GlyphClass: 2
Flags: W
LayerCount: 2
Fore
SplineSet
634 1017 m 257
 587 817 l 257
 1578 817 l 257
 1625 1017 l 257
 634 1017 l 257
672 1010 m 257
 110 -5 l 257
 310 -5 l 257
 872 1010 l 257
 672 1010 l 257
1241 464 m 257
 1162 264 l 257
 2082 264 l 257
 2161 464 l 257
 1241 464 l 257
1959 459 m 257
 1561 -406 l 257
 1761 -406 l 257
 2159 459 l 257
 1959 459 l 257
1241 -243 m 257
 1168 -443 l 257
 1747 -443 l 257
 1820 -243 l 257
 1241 -243 l 257
1497 1018 m 257
 935 3 l 257
 1135 3 l 257
 1697 1018 l 257
 1497 1018 l 257
EndSplineSet
EndChar

StartChar: uni04A8
Encoding: 873 1192 873
GlifName: uni04A_8
Width: 2048
VWidth: 0
GlyphClass: 2
Flags: W
LayerCount: 2
Fore
SplineSet
609 1550 m 257
 81 101 l 257
 281 101 l 257
 809 1550 l 257
 609 1550 l 257
119 202 m 257
 46 2 l 257
 1802 2 l 257
 1875 202 l 257
 119 202 l 257
2003 1018 m 257
 1634 5 l 257
 1824 5 l 257
 2193 1018 l 257
 2003 1018 l 257
1409 1018 m 257
 1336 819 l 257
 2099 819 l 257
 2172 1018 l 257
 1409 1018 l 257
1350 1018 m 257
 892 -307 l 257
 1092 -307 l 257
 1550 1018 l 257
 1350 1018 l 257
1070 -107 m 257
 997 -307 l 257
 1867 -307 l 257
 1940 -107 l 257
 1070 -107 l 257
674 1551 m 257
 601 1352 l 257
 1095 1352 l 257
 1168 1551 l 257
 674 1551 l 257
EndSplineSet
EndChar

StartChar: uni04A9
Encoding: 874 1193 874
GlifName: uni04A_9
Width: 2048
VWidth: 0
GlyphClass: 2
Flags: W
LayerCount: 2
Fore
SplineSet
609 1025 m 257
 81 101 l 257
 281 101 l 257
 809 1025 l 257
 609 1025 l 257
119 202 m 257
 46 2 l 257
 1802 2 l 257
 1875 202 l 257
 119 202 l 257
2003 700 m 257
 1634 5 l 257
 1824 5 l 257
 2193 700 l 257
 2003 700 l 257
1409 700 m 257
 1336 501 l 257
 2099 501 l 257
 2172 700 l 257
 1409 700 l 257
1350 700 m 257
 892 -265 l 257
 1092 -265 l 257
 1550 700 l 257
 1350 700 l 257
1070 -65 m 257
 997 -265 l 257
 1867 -265 l 257
 1940 -65 l 257
 1070 -65 l 257
674 1026 m 257
 601 827 l 257
 1095 827 l 257
 1168 1026 l 257
 674 1026 l 257
EndSplineSet
EndChar

StartChar: uni04BC
Encoding: 893 1212 893
GlifName: uni04B_C_
Width: 2048
VWidth: 0
GlyphClass: 2
Flags: W
AnchorPoint: "top" 1629 1598 basechar 0
AnchorPoint: "base" 1176 -79 basechar 0
LayerCount: 2
Fore
SplineSet
1012 1538 m 257
 939 1338 l 257
 2391 1338 l 257
 2464 1538 l 257
 1012 1538 l 257
962 1538 m 257
 400 -5 l 257
 602 -5 l 257
 1164 1538 l 257
 962 1538 l 257
575 196 m 257
 502 -5 l 257
 1997 -5 l 257
 2070 196 l 257
 575 196 l 257
548 663 m 257
 665 1204 l 257
 466 1199 l 257
 347 658 l 257
 548 663 l 257
350 670 m 257
 2251 670 l 257
 2323 870 l 257
 422 870 l 257
 350 670 l 257
2256 1508 m 257
 2110 669 l 257
 2305 669 l 257
 2451 1508 l 257
 2256 1508 l 257
EndSplineSet
EndChar

StartChar: uni04BD
Encoding: 894 1213 894
GlifName: uni04B_D_
Width: 2048
VWidth: 0
GlyphClass: 2
Flags: W
AnchorPoint: "top" 1020 1122 basechar 0
AnchorPoint: "base" 1062 -81 basechar 0
LayerCount: 2
Fore
SplineSet
1050 1023 m 257
 954 813 l 257
 2050 746 l 257
 2123 957 l 257
 1050 1023 l 257
847 1024 m 257
 477 1 l 257
 679 1 l 257
 1049 1024 l 257
 847 1024 l 257
652 202 m 257
 579 1 l 257
 1845 1 l 257
 1918 202 l 257
 652 202 l 257
556 627 m 257
 590 844 l 257
 411 843 l 257
 376 624 l 257
 556 627 l 257
310 447 m 257
 1983 447 l 257
 2048 626 l 257
 374 626 l 257
 310 447 l 257
1928 956 m 257
 1811 446 l 257
 2006 446 l 257
 2123 956 l 257
 1928 956 l 257
EndSplineSet
EndChar

StartChar: uni04E0
Encoding: 916 1248 916
GlifName: uni04E_0
Width: 2048
VWidth: 0
Flags: W
LayerCount: 2
Fore
SplineSet
662 1547 m 257
 589 1347 l 257
 2439 1347 l 257
 2512 1547 l 257
 662 1547 l 257
1944 1348 m 257
 835 894 l 257
 1334 894 l 257
 2443 1348 l 257
 1944 1348 l 257
1992 710 m 257
 1736 7 l 257
 1936 7 l 257
 2192 710 l 257
 1992 710 l 257
175 200 m 257
 102 0 l 257
 1933 0 l 257
 2006 200 l 257
 175 200 l 257
832 892 m 257
 751 692 l 257
 2185 692 l 257
 2266 892 l 257
 832 892 l 257
EndSplineSet
EndChar

StartChar: uni04E1
Encoding: 917 1249 917
GlifName: uni04E_1
Width: 2048
VWidth: 0
Flags: W
LayerCount: 2
Fore
SplineSet
662 1016 m 257
 589 816 l 257
 2439 816 l 257
 2512 1016 l 257
 662 1016 l 257
1944 817 m 257
 835 363 l 257
 1334 363 l 257
 2443 817 l 257
 1944 817 l 257
1992 179 m 257
 1736 -524 l 257
 1936 -524 l 257
 2192 179 l 257
 1992 179 l 257
175 -331 m 257
 102 -531 l 257
 1933 -531 l 257
 2006 -331 l 257
 175 -331 l 257
832 361 m 257
 751 161 l 257
 2185 161 l 257
 2266 361 l 257
 832 361 l 257
EndSplineSet
EndChar

StartChar: uni04E9
Encoding: 925 1257 925
GlifName: obarred-cy
Width: 2048
VWidth: 0
GlyphClass: 2
Flags: W
AnchorPoint: "top" 1458 1124 basechar 0
AnchorPoint: "base" 1025 -72 basechar 0
LayerCount: 2
Fore
SplineSet
488 1023 m 257
 116 0 l 257
 316 0 l 257
 688 1023 l 257
 488 1023 l 257
2104 1023 m 257
 1732 0 l 257
 1934 0 l 257
 2306 1023 l 257
 2104 1023 l 257
612 1023 m 257
 539 822 l 257
 2125 822 l 257
 2198 1023 l 257
 612 1023 l 257
317 200 m 257
 244 0 l 257
 1816 0 l 257
 1889 200 l 257
 317 200 l 257
525.38 636 m 257
 385.273 428 l 257
 1908.02 428 l 257
 2048.12 636 l 257
 525.38 636 l 257
EndSplineSet
EndChar

StartChar: uni0900
Encoding: 944 2304 944
GlifName: uni0900
Width: 0
VWidth: 0
GlyphClass: 4
Flags: W
AnchorPoint: "abvm_deva" 285 1596 mark 0
LayerCount: 2
Fore
SplineSet
371 2124 m 257
 195 1639 l 257
 394 1639 l 257
 570 2124 l 257
 371 2124 l 257
417 2124 m 257
 345 1925 l 257
 979 1925 l 257
 1051 2124 l 257
 417 2124 l 257
589 1865 m 257
 516 1665 l 257
 716 1665 l 257
 789 1865 l 257
 589 1865 l 257
975 2124 m 257
 797 1636 l 257
 997 1636 l 257
 1175 2124 l 257
 975 2124 l 257
EndSplineSet
EndChar

StartChar: uni0901
Encoding: 945 2305 945
GlifName: uni0901
Width: 0
VWidth: 0
GlyphClass: 4
Flags: W
AnchorPoint: "abvm_deva" 242 1596 mark 0
LayerCount: 2
Fore
SplineSet
371 2124 m 257
 195 1639 l 257
 394 1639 l 257
 570 2124 l 257
 371 2124 l 257
314 1842 m 257
 241 1641 l 257
 875 1641 l 257
 948 1842 l 257
 314 1842 l 257
663 2095 m 257
 590 1895 l 257
 790 1895 l 257
 863 2095 l 257
 663 2095 l 257
978 2132 m 257
 799 1641 l 257
 999 1641 l 257
 1178 2132 l 257
 978 2132 l 257
EndSplineSet
EndChar

StartChar: uni0902
Encoding: 946 2306 946
GlifName: uni0902
Width: 0
VWidth: 0
GlyphClass: 4
Flags: W
AnchorPoint: "abvm_deva" 505 1570 mark 0
LayerCount: 2
Fore
SplineSet
762 1839 m 257
 690 1639 l 257
 890 1639 l 257
 962 1839 l 257
 762 1839 l 257
EndSplineSet
EndChar

StartChar: uni0903
Encoding: 947 2307 947
GlifName: uni0903
Width: 2048
VWidth: 0
GlyphClass: 2
Flags: W
LayerCount: 2
Fore
SplineSet
1160 649 m 257
 1087 449 l 257
 1287 449 l 257
 1360 649 l 257
 1160 649 l 257
1403 1317 m 257
 1331 1117 l 257
 1531 1117 l 257
 1603 1317 l 257
 1403 1317 l 257
EndSplineSet
EndChar

StartChar: uni0904
Encoding: 948 2308 948
GlifName: uni0904
Width: 2048
VWidth: 0
GlyphClass: 2
Flags: W
AnchorPoint: "abvm_deva" 1625 1952 basechar 0
LayerCount: 2
Fore
SplineSet
1550 2155 m 257
 1434 1836 l 257
 1632 1836 l 257
 1748 2155 l 257
 1550 2155 l 257
1480 1967 m 257
 1408 1768 l 257
 2580 1768 l 257
 2652 1967 l 257
 1480 1967 l 257
2448 1956 m 257
 2288 1516 l 257
 2490 1516 l 257
 2650 1956 l 257
 2448 1956 l 257
2267 1548 m 257
 2195 1348 l 257
 2542 1348 l 257
 2614 1548 l 257
 2267 1548 l 257
2280 1419 m 257
 1764 0 l 257
 1964 0 l 257
 2480 1419 l 257
 2280 1419 l 257
601 1548 m 257
 529 1348 l 257
 1563 1348 l 257
 1635 1548 l 257
 601 1548 l 257
1461 1548 m 257
 949 140 l 257
 1149 140 l 257
 1661 1548 l 257
 1461 1548 l 257
447 894 m 257
 374 693 l 257
 2070 693 l 257
 2143 894 l 257
 447 894 l 257
85 201 m 257
 12 0 l 257
 1098 0 l 257
 1171 201 l 257
 85 201 l 257
EndSplineSet
EndChar

StartChar: uni0905
Encoding: 949 2309 949
GlifName: uni0905
Width: 2048
VWidth: 0
GlyphClass: 2
Flags: W
AnchorPoint: "abvm_deva" 2198 1589 basechar 0
LayerCount: 2
Fore
SplineSet
2234 1548 m 257
 2161 1347 l 257
 2540 1347 l 257
 2613 1548 l 257
 2234 1548 l 257
2316 1419 m 257
 1800 0 l 257
 1998 0 l 257
 2514 1419 l 257
 2316 1419 l 257
601 1548 m 257
 529 1348 l 257
 1563 1348 l 257
 1635 1548 l 257
 601 1548 l 257
1461 1548 m 257
 949 140 l 257
 1149 140 l 257
 1661 1548 l 257
 1461 1548 l 257
447 894 m 257
 374 693 l 257
 2106 693 l 257
 2179 894 l 257
 447 894 l 257
85 201 m 257
 12 0 l 257
 1098 0 l 257
 1171 201 l 257
 85 201 l 257
EndSplineSet
EndChar

StartChar: uni0906
Encoding: 950 2310 950
GlifName: uni0906
Width: 2048
VWidth: 0
GlyphClass: 2
Flags: W
AnchorPoint: "abvm_deva" 2158 1602 basechar 0
LayerCount: 2
Fore
SplineSet
1891 1548 m 257
 1819 1348 l 257
 2541 1348 l 257
 2613 1548 l 257
 1891 1548 l 257
1860 1419 m 257
 1344 0 l 257
 1543 0 l 257
 2059 1419 l 257
 1860 1419 l 257
588 1548 m 257
 516 1348 l 257
 1388 1348 l 257
 1460 1548 l 257
 588 1548 l 257
1286 1548 m 257
 774 140 l 257
 974 140 l 257
 1486 1548 l 257
 1286 1548 l 257
434 894 m 257
 361 693 l 257
 1695 693 l 257
 1768 894 l 257
 434 894 l 257
73 201 m 257
 0 0 l 257
 923 0 l 257
 996 201 l 257
 73 201 l 257
2279 1420 m 257
 1762 0 l 257
 1961 0 l 257
 2478 1420 l 257
 2279 1420 l 257
EndSplineSet
EndChar

StartChar: uni0907
Encoding: 951 2311 951
GlifName: uni0907
Width: 2048
VWidth: 0
GlyphClass: 2
Flags: W
AnchorPoint: "abvm_deva" 1843 1543 basechar 0
LayerCount: 2
Fore
SplineSet
557 1548 m 257
 485 1349 l 257
 2545 1349 l 257
 2617 1548 l 257
 557 1548 l 257
1623 1537 m 257
 1468 1110 l 257
 1668 1110 l 257
 1823 1537 l 257
 1623 1537 l 257
610 1205 m 257
 536 1004 l 257
 1629 1004 l 257
 1703 1205 l 257
 610 1205 l 257
601 1181 m 257
 440 738 l 257
 610 738 l 257
 771 1181 l 257
 601 1181 l 257
492 881 m 257
 419 681 l 257
 1526 681 l 257
 1599 881 l 257
 492 881 l 257
1478 881 m 257
 1252 262 l 257
 1451 262 l 257
 1677 881 l 257
 1478 881 l 257
257 298 m 257
 184 97 l 257
 1391 97 l 257
 1464 298 l 257
 257 298 l 257
373 298 m 257
 176 -244 l 257
 376 -244 l 257
 573 298 l 257
 373 298 l 257
EndSplineSet
EndChar

StartChar: uni0908
Encoding: 952 2312 952
GlifName: uni0908
Width: 2048
VWidth: 0
GlyphClass: 2
Flags: W
AnchorPoint: "abvm_deva" 2213 1587 basechar 0
LayerCount: 2
Fore
SplineSet
560 1556 m 257
 487 1355 l 257
 2547 1355 l 257
 2620 1556 l 257
 560 1556 l 257
1629 1553 m 257
 1468 1110 l 257
 1668 1110 l 257
 1829 1553 l 257
 1629 1553 l 257
610 1205 m 257
 536 1004 l 257
 1629 1004 l 257
 1703 1205 l 257
 610 1205 l 257
601 1181 m 257
 440 738 l 257
 640 738 l 257
 801 1181 l 257
 601 1181 l 257
492 881 m 257
 419 681 l 257
 1526 681 l 257
 1599 881 l 257
 492 881 l 257
1496 881 m 257
 1279 285 l 257
 1460 285 l 257
 1677 881 l 257
 1496 881 l 257
257 298 m 257
 184 97 l 257
 1394 97 l 257
 1467 298 l 257
 257 298 l 257
373 298 m 257
 176 -244 l 257
 399 -244 l 257
 596 298 l 257
 373 298 l 257
918 1770 m 257
 1551 1423 l 257
 1755 1537 l 257
 1122 1886 l 257
 918 1770 l 257
EndSplineSet
EndChar

StartChar: uni0909
Encoding: 953 2313 953
GlifName: uni0909
Width: 2048
VWidth: 0
GlyphClass: 2
Flags: W
AnchorPoint: "abvm_deva" 2164 1627 basechar 0
LayerCount: 2
Fore
SplineSet
563 1548 m 257
 491 1348 l 257
 2541 1348 l 257
 2613 1548 l 257
 563 1548 l 257
1451 1530 m 257
 1258 1001 l 257
 1457 1001 l 257
 1650 1530 l 257
 1451 1530 l 257
617 1044 m 257
 545 845 l 257
 1899 845 l 257
 1971 1044 l 257
 617 1044 l 257
1754 994 m 257
 1395 8 l 257
 1595 8 l 257
 1954 994 l 257
 1754 994 l 257
205 201 m 257
 132 0 l 257
 1581 0 l 257
 1654 201 l 257
 205 201 l 257
264 363 m 257
 145 36 l 257
 345 36 l 257
 464 363 l 257
 264 363 l 257
EndSplineSet
EndChar

StartChar: uni090A
Encoding: 954 2314 954
GlifName: uni090A_
Width: 2048
VWidth: 0
GlyphClass: 2
Flags: W
AnchorPoint: "abvm_deva" 2277 1617 basechar 0
LayerCount: 2
Fore
SplineSet
557 1548 m 257
 484 1347 l 257
 2545 1347 l 257
 2618 1548 l 257
 557 1548 l 257
1375 1530 m 257
 1182 1001 l 257
 1380 1001 l 257
 1573 1530 l 257
 1375 1530 l 257
528 1044 m 257
 456 845 l 257
 2180 845 l 257
 2252 1044 l 257
 528 1044 l 257
1546 994 m 257
 1188 11 l 257
 1388 11 l 257
 1746 994 l 257
 1546 994 l 257
118 204 m 257
 46 5 l 257
 1384 5 l 257
 1456 204 l 257
 118 204 l 257
177 366 m 257
 58 39 l 257
 258 39 l 257
 377 366 l 257
 177 366 l 257
2016 946 m 257
 1751 217 l 257
 1951 217 l 257
 2216 946 l 257
 2016 946 l 257
EndSplineSet
EndChar

StartChar: uni090B
Encoding: 955 2315 955
GlifName: uni090B_
Width: 2048
VWidth: 0
GlyphClass: 2
Flags: W
AnchorPoint: "abvm_deva" 2182 1561 basechar 0
LayerCount: 2
Fore
SplineSet
563 1548 m 257
 490 1347 l 257
 2543 1347 l 257
 2616 1548 l 257
 563 1548 l 257
1577 1537 m 257
 1018 0 l 257
 1217 0 l 257
 1776 1537 l 257
 1577 1537 l 257
408 1044 m 257
 336 845 l 257
 640 845 l 257
 712 1044 l 257
 408 1044 l 257
1198 496 m 257
 244 329 l 257
 256 136 l 257
 1209 303 l 257
 1198 496 l 257
712 1044 m 257
 640 846 l 257
 1384 742 l 257
 1458 944 l 257
 712 1044 l 257
1527 897 m 257
 1455 699 l 257
 2270 699 l 257
 2342 897 l 257
 1527 897 l 257
2020 897 m 257
 1789 262 l 257
 1988 262 l 257
 2219 897 l 257
 2020 897 l 257
1939 464 m 257
 1866 264 l 257
 2130 264 l 257
 2203 464 l 257
 1939 464 l 257
EndSplineSet
EndChar

StartChar: uni090C
Encoding: 956 2316 956
GlifName: uni090C_
Width: 2048
VWidth: 0
GlyphClass: 2
Flags: W
AnchorPoint: "abvm_deva" 2275 1588 basechar 0
LayerCount: 2
Fore
SplineSet
555 1548 m 257
 483 1348 l 257
 2547 1348 l 257
 2619 1548 l 257
 555 1548 l 257
1628 1548 m 257
 1316 689 l 257
 1516 689 l 257
 1828 1548 l 257
 1628 1548 l 257
2052 791 m 257
 338 791 l 257
 265 590 l 257
 1979 590 l 257
 2052 791 l 257
333 777 m 257
 142 252 l 257
 343 252 l 257
 534 777 l 257
 333 777 l 257
989 791 m 257
 859 433 l 257
 1060 433 l 257
 1190 791 l 257
 989 791 l 257
1841 792 m 257
 1580 73 l 257
 1780 73 l 257
 2041 792 l 257
 1841 792 l 257
1722 259 m 257
 1654 71 l 257
 2080 71 l 257
 2148 259 l 257
 1722 259 l 257
EndSplineSet
EndChar

StartChar: uni090D
Encoding: 957 2317 957
GlifName: uni090D_
Width: 2048
VWidth: 0
GlyphClass: 2
Flags: W
AnchorPoint: "abvm_deva" 474 2104 basechar 0
LayerCount: 2
Fore
SplineSet
558 1548 m 257
 486 1348 l 257
 2540 1348 l 257
 2612 1548 l 257
 558 1548 l 257
2311 1548 m 257
 2032 779 l 257
 2231 779 l 257
 2510 1548 l 257
 2311 1548 l 257
1494 839 m 257
 1422 639 l 257
 2180 639 l 257
 2252 839 l 257
 1494 839 l 257
703 1542 m 257
 265 338 l 257
 464 338 l 257
 902 1542 l 257
 703 1542 l 257
323 496 m 257
 250 297 l 257
 1232 297 l 257
 1305 496 l 257
 323 496 l 257
1055 358 m 257
 889 -98 l 257
 1088 -98 l 257
 1254 358 l 257
 1055 358 l 257
424 101 m 257
 351 -98 l 257
 1086 -98 l 257
 1159 101 l 257
 424 101 l 257
930 2124 m 257
 754 1639 l 257
 953 1639 l 257
 1129 2124 l 257
 930 2124 l 257
873 1840 m 257
 800 1641 l 257
 2413 1641 l 257
 2486 1840 l 257
 873 1840 l 257
2417 2132 m 257
 2238 1641 l 257
 2437 1641 l 257
 2616 2132 l 257
 2417 2132 l 257
EndSplineSet
EndChar

